{"glyphs":{"0":{"ha":822,"x_min":67,"x_max":758,"o":"m 401 -11 q 143 108 219 -11 q 67 454 67 228 q 154 797 67 675 q 426 918 242 918 q 683 799 607 918 q 758 454 758 681 q 672 111 758 233 q 401 -11 585 -11 m 413 71 q 544 114 497 71 q 610 240 592 157 q 628 454 628 322 q 610 669 628 586 q 544 794 592 751 q 413 836 497 836 q 281 794 328 836 q 215 669 233 751 q 197 454 197 586 q 215 240 197 322 q 281 114 233 157 q 413 71 328 71 z "},"1":{"ha":542,"x_min":61,"x_max":515,"o":"m 76 0 l 76 68 l 235 83 l 235 804 l 61 804 l 61 872 l 292 914 l 353 914 l 353 83 l 515 68 l 515 0 l 76 0 z "},"2":{"ha":675,"x_min":40,"x_max":647,"o":"m 40 76 l 299 347 q 440 519 399 451 q 482 661 482 586 q 444 785 482 747 q 307 824 407 824 q 154 797 207 824 l 132 665 l 63 665 l 63 865 q 165 900 103 883 q 307 917 228 917 q 537 858 463 917 q 611 669 611 800 q 586 557 611 611 q 506 438 561 503 q 350 272 451 372 l 190 114 l 190 106 l 550 106 l 578 226 l 647 226 l 647 0 l 40 0 l 40 76 z "},"3":{"ha":614,"x_min":28,"x_max":599,"o":"m 268 -14 q 133 6 201 -14 q 28 50 65 25 l 38 229 l 110 229 l 124 118 q 269 75 196 75 q 418 117 369 75 q 467 257 467 160 q 410 391 467 354 q 247 428 353 428 l 175 428 l 154 467 l 154 517 l 224 517 q 369 558 307 517 q 432 675 432 599 q 396 788 432 753 q 265 824 360 824 q 199 819 228 824 q 153 808 169 814 q 133 801 138 803 l 121 683 l 50 683 l 39 874 q 279 917 142 917 q 488 863 428 917 q 547 711 547 808 q 503 576 547 631 q 396 497 460 522 l 392 496 q 537 424 475 476 q 599 268 599 371 q 510 58 599 129 q 268 -14 421 -14 z "},"4":{"ha":669,"x_min":-6,"x_max":643,"o":"m 286 0 l 286 61 l 401 82 l 401 251 l 29 251 l -6 317 l 444 939 l 515 908 l 515 339 l 643 339 l 643 251 l 515 251 l 515 82 l 631 61 l 631 0 l 286 0 m 119 339 l 401 339 l 401 753 l 389 729 l 115 347 l 119 339 z "},"5":{"ha":613,"x_min":28,"x_max":596,"o":"m 275 -14 q 28 44 124 -14 l 38 233 l 113 233 l 125 100 q 189 76 156 86 q 279 67 222 67 q 423 122 379 67 q 467 278 467 176 q 407 430 467 379 q 203 481 347 481 l 63 481 l 63 900 l 550 900 l 550 794 l 143 794 l 143 568 l 228 568 q 508 503 419 568 q 596 299 596 438 q 511 71 596 156 q 275 -14 426 -14 z "},"6":{"ha":711,"x_min":63,"x_max":663,"o":"m 351 -14 q 133 76 204 -14 q 63 353 63 165 q 126 646 63 522 q 313 838 190 769 q 606 913 435 907 l 606 857 q 308 740 413 838 q 199 478 204 643 q 304 529 247 511 q 419 547 361 547 q 595 478 528 547 q 663 297 663 408 q 624 134 663 204 q 515 25 586 64 q 351 -14 444 -14 m 371 67 q 496 119 456 67 q 536 278 536 171 q 491 406 536 361 q 364 451 446 451 q 197 424 290 451 l 197 388 q 214 197 197 267 q 268 97 231 128 q 371 67 306 67 z "},"7":{"ha":601,"x_min":29,"x_max":608,"o":"m 124 0 l 124 57 l 508 771 l 508 794 l 128 794 l 117 685 l 42 685 l 29 900 l 608 900 l 608 794 l 228 0 l 124 0 z "},"8":{"ha":669,"x_min":58,"x_max":628,"o":"m 333 -14 q 129 42 200 -14 q 58 200 58 97 q 106 344 58 278 q 228 453 153 410 q 119 545 157 492 q 81 672 81 599 q 116 800 81 744 q 213 886 151 856 q 349 917 275 917 q 533 858 469 917 q 597 703 597 800 q 558 576 597 633 q 456 482 519 518 q 584 383 540 438 q 628 249 628 329 q 597 121 628 181 q 499 24 565 61 q 333 -14 433 -14 m 401 508 q 467 586 446 544 q 488 685 488 628 q 452 793 488 761 q 336 825 417 825 q 192 701 192 825 q 226 607 192 643 q 343 535 261 571 q 376 519 361 526 q 401 508 390 513 m 346 67 q 513 231 513 67 q 465 333 513 293 q 306 417 418 372 l 281 426 q 204 336 229 386 q 179 233 179 286 q 219 108 179 149 q 346 67 260 67 z "},"9":{"ha":674,"x_min":33,"x_max":633,"o":"m 214 -7 q 139 -4 167 -7 q 106 0 111 -1 l 106 56 q 340 92 256 56 q 463 208 425 128 q 503 426 500 288 q 474 406 503 424 q 397 374 444 389 q 286 358 349 358 q 103 426 174 358 q 33 613 33 494 q 73 782 33 714 q 178 883 113 850 q 325 917 244 917 q 499 875 431 917 q 600 739 567 833 q 633 488 633 644 q 523 115 633 238 q 214 -7 413 -7 m 349 453 q 460 469 419 453 q 503 486 501 485 q 492 674 503 603 q 442 790 482 744 q 319 836 403 836 q 195 784 229 836 q 161 625 161 732 q 215 492 161 532 q 349 453 269 453 z "},"\u0000":{"ha":0,"x_min":0,"x_max":0,"o":""},"\r":{"ha":279,"x_min":0,"x_max":0,"o":""}," ":{"ha":279,"x_min":0,"x_max":0,"o":""},"A":{"ha":844,"x_min":-12,"x_max":857,"o":"m -12 57 l 75 79 l 382 907 l 449 907 l 768 79 l 857 57 l 857 0 l 525 0 l 525 57 l 624 79 l 624 104 l 564 258 l 229 258 l 175 104 l 175 79 l 281 57 l 281 0 l -12 0 l -12 57 m 535 338 l 400 694 l 394 710 l 392 717 l 383 692 l 257 338 l 535 338 z "},"Á":{"ha":844,"x_min":-12,"x_max":857,"o":"m 472 1131 q 505 1152 489 1143 q 531 1161 521 1161 q 568 1136 551 1161 q 589 1065 585 1111 l 321 946 l 290 994 l 472 1131 m -12 57 l 75 79 l 382 907 l 449 907 l 768 79 l 857 57 l 857 0 l 525 0 l 525 57 l 624 79 l 624 104 l 564 258 l 229 258 l 175 104 l 175 79 l 281 57 l 281 0 l -12 0 l -12 57 m 535 338 l 400 694 l 394 710 l 392 717 l 383 692 l 257 338 l 535 338 z "},"Ă":{"ha":844,"x_min":-12,"x_max":857,"o":"m 318 1140 q 330 1111 318 1135 q 368 1067 342 1088 q 435 1046 394 1046 q 515 1067 483 1046 q 563 1112 547 1088 q 579 1140 579 1136 l 622 1129 q 604 1078 622 1119 q 543 999 586 1036 q 431 961 500 961 q 307 997 350 961 q 249 1071 264 1033 q 235 1122 235 1108 l 318 1140 m -12 57 l 75 79 l 382 907 l 449 907 l 768 79 l 857 57 l 857 0 l 525 0 l 525 57 l 624 79 l 624 104 l 564 258 l 229 258 l 175 104 l 175 79 l 281 57 l 281 0 l -12 0 l -12 57 m 535 338 l 400 694 l 394 710 l 392 717 l 383 692 l 257 338 l 535 338 z "},"Ắ":{"ha":844,"x_min":-12,"x_max":857,"o":"m 0 0 m -12 57 l 75 79 l 382 907 l 449 907 l 768 79 l 857 57 l 857 0 l 525 0 l 525 57 l 624 79 l 624 104 l 564 258 l 229 258 l 175 104 l 175 79 l 281 57 l 281 0 l -12 0 l -12 57 m 535 338 l 400 694 l 394 710 l 392 717 l 383 692 l 257 338 l 535 338 m 297 1140 q 309 1111 297 1135 q 347 1067 321 1088 q 414 1046 374 1046 q 494 1067 463 1046 q 542 1112 526 1088 q 558 1140 558 1136 l 601 1129 q 583 1078 601 1119 q 522 999 565 1036 q 410 961 479 961 q 286 997 329 961 q 228 1071 243 1033 q 214 1122 214 1108 l 297 1140 m 331 1179 l 513 1315 q 545 1337 529 1328 q 571 1346 561 1346 q 608 1321 592 1346 q 629 1250 625 1296 l 361 1131 l 331 1179 z "},"Ặ":{"ha":844,"x_min":-12,"x_max":857,"o":"m 0 0 m -12 57 l 75 79 l 382 907 l 449 907 l 768 79 l 857 57 l 857 0 l 525 0 l 525 57 l 624 79 l 624 104 l 564 258 l 229 258 l 175 104 l 175 79 l 281 57 l 281 0 l -12 0 l -12 57 m 535 338 l 400 694 l 394 710 l 392 717 l 383 692 l 257 338 l 535 338 m 418 -239 q 362 -215 383 -239 q 340 -153 340 -192 q 365 -88 340 -115 q 425 -61 389 -61 q 482 -83 461 -61 q 503 -144 503 -106 q 480 -211 503 -183 q 418 -239 457 -239 m 311 1140 q 323 1111 311 1135 q 361 1067 335 1088 q 428 1046 388 1046 q 508 1067 476 1046 q 556 1112 540 1088 q 572 1140 572 1136 l 615 1129 q 597 1078 615 1119 q 536 999 579 1036 q 424 961 493 961 q 300 997 343 961 q 242 1071 257 1033 q 228 1122 228 1108 l 311 1140 z "},"Ằ":{"ha":844,"x_min":-12,"x_max":857,"o":"m 0 0 m -12 57 l 75 79 l 382 907 l 449 907 l 768 79 l 857 57 l 857 0 l 525 0 l 525 57 l 624 79 l 624 104 l 564 258 l 229 258 l 175 104 l 175 79 l 281 57 l 281 0 l -12 0 l -12 57 m 535 338 l 400 694 l 394 710 l 392 717 l 383 692 l 257 338 l 535 338 m 313 1140 q 324 1111 313 1135 q 363 1067 336 1088 q 429 1046 389 1046 q 510 1067 478 1046 q 558 1112 542 1088 q 574 1140 574 1136 l 617 1129 q 599 1078 617 1119 q 538 999 581 1036 q 425 961 494 961 q 301 997 344 961 q 244 1071 258 1033 q 229 1122 229 1108 l 313 1140 m 228 1250 q 249 1321 232 1296 q 286 1346 265 1346 q 312 1337 296 1346 q 344 1315 328 1328 l 526 1179 l 496 1131 l 228 1250 z "},"Ẳ":{"ha":844,"x_min":-12,"x_max":857,"o":"m 0 0 m -12 57 l 75 79 l 382 907 l 449 907 l 768 79 l 857 57 l 857 0 l 525 0 l 525 57 l 624 79 l 624 104 l 564 258 l 229 258 l 175 104 l 175 79 l 281 57 l 281 0 l -12 0 l -12 57 m 535 338 l 400 694 l 394 710 l 392 717 l 383 692 l 257 338 l 535 338 m 311 1140 q 323 1111 311 1135 q 361 1067 335 1088 q 428 1046 388 1046 q 508 1067 476 1046 q 556 1112 540 1088 q 572 1140 572 1136 l 615 1129 q 597 1078 615 1119 q 536 999 579 1036 q 424 961 493 961 q 300 997 343 961 q 242 1071 257 1033 q 228 1122 228 1108 l 311 1140 m 385 1111 q 378 1136 378 1128 q 390 1164 378 1151 q 431 1186 403 1176 q 468 1207 457 1196 q 479 1233 479 1218 q 411 1261 479 1261 q 324 1250 371 1261 q 311 1294 311 1274 q 327 1326 311 1315 q 394 1336 343 1336 q 526 1311 478 1336 q 574 1239 574 1286 q 493 1147 574 1172 q 463 1132 469 1140 q 456 1111 456 1124 l 385 1111 z "},"Ẵ":{"ha":844,"x_min":-12,"x_max":857,"o":"m 0 0 m -12 57 l 75 79 l 382 907 l 449 907 l 768 79 l 857 57 l 857 0 l 525 0 l 525 57 l 624 79 l 624 104 l 564 258 l 229 258 l 175 104 l 175 79 l 281 57 l 281 0 l -12 0 l -12 57 m 535 338 l 400 694 l 394 710 l 392 717 l 383 692 l 257 338 l 535 338 m 308 1140 q 320 1111 308 1135 q 358 1067 332 1088 q 425 1046 385 1046 q 506 1067 474 1046 q 553 1112 538 1088 q 569 1140 569 1136 l 613 1129 q 594 1078 613 1119 q 533 999 576 1036 q 421 961 490 961 q 297 997 340 961 q 240 1071 254 1033 q 225 1122 225 1108 l 308 1140 m 529 1168 q 432 1189 497 1168 l 322 1224 l 211 1174 l 179 1210 l 231 1278 q 315 1318 260 1318 q 413 1297 347 1318 l 522 1263 l 633 1313 l 665 1276 l 614 1208 q 529 1168 585 1168 z "},"Ǎ":{"ha":844,"x_min":-12,"x_max":857,"o":"m 0 0 m -12 57 l 75 79 l 382 907 l 449 907 l 768 79 l 857 57 l 857 0 l 525 0 l 525 57 l 624 79 l 624 104 l 564 258 l 229 258 l 175 104 l 175 79 l 281 57 l 281 0 l -12 0 l -12 57 m 535 338 l 400 694 l 394 710 l 392 717 l 383 692 l 257 338 l 535 338 m 425 1068 l 600 1156 l 635 1106 l 525 1017 l 485 985 q 446 953 463 965 q 419 942 429 942 q 392 952 407 942 q 343 992 376 963 q 313 1017 332 1000 l 210 1101 l 256 1158 l 425 1068 z "},"Â":{"ha":844,"x_min":-12,"x_max":857,"o":"m 307 1083 l 347 1115 q 386 1147 369 1135 q 413 1158 403 1158 q 440 1148 425 1158 q 489 1108 456 1138 q 519 1083 500 1100 l 622 999 l 576 942 l 407 1032 l 232 944 l 197 994 l 307 1083 m -12 57 l 75 79 l 382 907 l 449 907 l 768 79 l 857 57 l 857 0 l 525 0 l 525 57 l 624 79 l 624 104 l 564 258 l 229 258 l 175 104 l 175 79 l 281 57 l 281 0 l -12 0 l -12 57 m 535 338 l 400 694 l 394 710 l 392 717 l 383 692 l 257 338 l 535 338 z "},"Ấ":{"ha":844,"x_min":-12,"x_max":857,"o":"m 0 0 m -12 57 l 75 79 l 382 907 l 449 907 l 768 79 l 857 57 l 857 0 l 525 0 l 525 57 l 624 79 l 624 104 l 564 258 l 229 258 l 175 104 l 175 79 l 281 57 l 281 0 l -12 0 l -12 57 m 535 338 l 400 694 l 394 710 l 392 717 l 383 692 l 257 338 l 535 338 m 315 1083 l 356 1115 q 394 1147 378 1135 q 421 1158 411 1158 q 449 1148 433 1158 q 497 1108 464 1138 q 528 1083 508 1100 l 631 999 l 585 942 l 415 1032 l 240 944 l 206 994 l 315 1083 m 478 1172 l 660 1308 q 692 1330 676 1321 q 718 1339 708 1339 q 756 1314 739 1339 q 776 1243 772 1289 l 508 1124 l 478 1172 z "},"Ậ":{"ha":844,"x_min":-12,"x_max":857,"o":"m 0 0 m -12 57 l 75 79 l 382 907 l 449 907 l 768 79 l 857 57 l 857 0 l 525 0 l 525 57 l 624 79 l 624 104 l 564 258 l 229 258 l 175 104 l 175 79 l 281 57 l 281 0 l -12 0 l -12 57 m 535 338 l 400 694 l 394 710 l 392 717 l 383 692 l 257 338 l 535 338 m 418 -239 q 362 -215 383 -239 q 340 -153 340 -192 q 365 -88 340 -115 q 425 -61 389 -61 q 482 -83 461 -61 q 503 -144 503 -106 q 480 -211 503 -183 q 418 -239 457 -239 m 319 1083 l 360 1115 q 399 1147 382 1135 q 425 1158 415 1158 q 453 1148 438 1158 q 501 1108 468 1138 q 532 1083 513 1100 l 635 999 l 589 942 l 419 1032 l 244 944 l 210 994 l 319 1083 z "},"Ầ":{"ha":844,"x_min":-12,"x_max":857,"o":"m 0 0 m -12 57 l 75 79 l 382 907 l 449 907 l 768 79 l 857 57 l 857 0 l 525 0 l 525 57 l 624 79 l 624 104 l 564 258 l 229 258 l 175 104 l 175 79 l 281 57 l 281 0 l -12 0 l -12 57 m 535 338 l 400 694 l 394 710 l 392 717 l 383 692 l 257 338 l 535 338 m 318 1083 l 358 1115 q 397 1147 381 1135 q 424 1158 414 1158 q 451 1148 436 1158 q 500 1108 467 1138 q 531 1083 511 1100 l 633 999 l 588 942 l 418 1032 l 243 944 l 208 994 l 318 1083 m 411 1243 q 432 1314 415 1289 q 469 1339 449 1339 q 495 1330 479 1339 q 528 1308 511 1321 l 710 1172 l 679 1124 l 411 1243 z "},"Ẩ":{"ha":844,"x_min":-12,"x_max":857,"o":"m 0 0 m -12 57 l 75 79 l 382 907 l 449 907 l 768 79 l 857 57 l 857 0 l 525 0 l 525 57 l 624 79 l 624 104 l 564 258 l 229 258 l 175 104 l 175 79 l 281 57 l 281 0 l -12 0 l -12 57 m 535 338 l 400 694 l 394 710 l 392 717 l 383 692 l 257 338 l 535 338 m 307 1083 l 347 1115 q 386 1147 369 1135 q 413 1158 403 1158 q 440 1148 425 1158 q 489 1108 456 1138 q 519 1083 500 1100 l 622 999 l 576 942 l 407 1032 l 232 944 l 197 994 l 307 1083 m 540 1103 q 533 1128 533 1119 q 546 1156 533 1143 q 586 1178 558 1168 q 624 1199 613 1188 q 635 1225 635 1210 q 567 1253 635 1253 q 479 1242 526 1253 q 467 1286 467 1265 q 483 1317 467 1307 q 550 1328 499 1328 q 681 1303 633 1328 q 729 1231 729 1278 q 649 1139 729 1164 q 618 1124 625 1132 q 611 1103 611 1115 l 540 1103 z "},"Ẫ":{"ha":844,"x_min":-12,"x_max":857,"o":"m 0 0 m -12 57 l 75 79 l 382 907 l 449 907 l 768 79 l 857 57 l 857 0 l 525 0 l 525 57 l 624 79 l 624 104 l 564 258 l 229 258 l 175 104 l 175 79 l 281 57 l 281 0 l -12 0 l -12 57 m 535 338 l 400 694 l 394 710 l 392 717 l 383 692 l 257 338 l 535 338 m 317 1083 l 357 1115 q 396 1147 379 1135 q 422 1158 413 1158 q 450 1148 435 1158 q 499 1108 465 1138 q 529 1083 510 1100 l 632 999 l 586 942 l 417 1032 l 242 944 l 207 994 l 317 1083 m 529 1186 q 432 1207 497 1186 l 322 1242 l 211 1192 l 179 1228 l 231 1296 q 315 1336 260 1336 q 413 1315 347 1336 l 522 1281 l 633 1331 l 665 1294 l 614 1226 q 529 1186 585 1186 z "},"Ȁ":{"ha":844,"x_min":-12,"x_max":857,"o":"m 0 0 m -12 57 l 75 79 l 382 907 l 449 907 l 768 79 l 857 57 l 857 0 l 525 0 l 525 57 l 624 79 l 624 104 l 564 258 l 229 258 l 175 104 l 175 79 l 281 57 l 281 0 l -12 0 l -12 57 m 535 338 l 400 694 l 394 710 l 392 717 l 383 692 l 257 338 l 535 338 m 92 1081 q 119 1142 101 1121 q 156 1164 136 1164 q 187 1155 172 1164 q 221 1119 201 1146 l 331 976 l 292 939 l 92 1081 m 347 1081 q 374 1142 357 1121 q 411 1164 392 1164 q 442 1155 428 1164 q 476 1119 457 1146 l 586 976 l 547 939 l 347 1081 z "},"Ä":{"ha":844,"x_min":-12,"x_max":857,"o":"m 265 953 q 214 974 233 953 q 194 1031 194 996 q 216 1090 194 1065 q 271 1114 238 1114 q 322 1094 303 1114 q 342 1039 342 1074 q 321 978 342 1003 q 265 953 300 953 m 558 953 q 507 974 526 953 q 488 1031 488 996 q 509 1090 488 1065 q 564 1114 531 1114 q 615 1094 596 1114 q 635 1039 635 1074 q 614 978 635 1003 q 558 953 593 953 m -12 57 l 75 79 l 382 907 l 449 907 l 768 79 l 857 57 l 857 0 l 525 0 l 525 57 l 624 79 l 624 104 l 564 258 l 229 258 l 175 104 l 175 79 l 281 57 l 281 0 l -12 0 l -12 57 m 535 338 l 400 694 l 394 710 l 392 717 l 383 692 l 257 338 l 535 338 z "},"Ạ":{"ha":844,"x_min":-12,"x_max":857,"o":"m 0 0 m -12 57 l 75 79 l 382 907 l 449 907 l 768 79 l 857 57 l 857 0 l 525 0 l 525 57 l 624 79 l 624 104 l 564 258 l 229 258 l 175 104 l 175 79 l 281 57 l 281 0 l -12 0 l -12 57 m 535 338 l 400 694 l 394 710 l 392 717 l 383 692 l 257 338 l 535 338 m 418 -239 q 362 -215 383 -239 q 340 -153 340 -192 q 365 -88 340 -115 q 425 -61 389 -61 q 482 -83 461 -61 q 503 -144 503 -106 q 480 -211 503 -183 q 418 -239 457 -239 z "},"À":{"ha":844,"x_min":-12,"x_max":857,"o":"m 228 1065 q 249 1136 232 1111 q 286 1161 265 1161 q 312 1152 296 1161 q 344 1131 328 1143 l 526 994 l 496 946 l 228 1065 m -12 57 l 75 79 l 382 907 l 449 907 l 768 79 l 857 57 l 857 0 l 525 0 l 525 57 l 624 79 l 624 104 l 564 258 l 229 258 l 175 104 l 175 79 l 281 57 l 281 0 l -12 0 l -12 57 m 535 338 l 400 694 l 394 710 l 392 717 l 383 692 l 257 338 l 535 338 z "},"Ả":{"ha":844,"x_min":-12,"x_max":857,"o":"m 0 0 m -12 57 l 75 79 l 382 907 l 449 907 l 768 79 l 857 57 l 857 0 l 525 0 l 525 57 l 624 79 l 624 104 l 564 258 l 229 258 l 175 104 l 175 79 l 281 57 l 281 0 l -12 0 l -12 57 m 535 338 l 400 694 l 394 710 l 392 717 l 383 692 l 257 338 l 535 338 m 382 940 q 375 965 375 957 q 388 993 375 981 q 428 1015 400 1006 q 465 1036 454 1025 q 476 1063 476 1047 q 408 1090 476 1090 q 321 1079 368 1090 q 308 1124 308 1103 q 324 1155 308 1144 q 392 1165 340 1165 q 523 1140 475 1165 q 571 1068 571 1115 q 490 976 571 1001 q 460 961 467 969 q 453 940 453 953 l 382 940 z "},"Ȃ":{"ha":844,"x_min":-12,"x_max":857,"o":"m 0 0 m -12 57 l 75 79 l 382 907 l 449 907 l 768 79 l 857 57 l 857 0 l 525 0 l 525 57 l 624 79 l 624 104 l 564 258 l 229 258 l 175 104 l 175 79 l 281 57 l 281 0 l -12 0 l -12 57 m 535 338 l 400 694 l 394 710 l 392 717 l 383 692 l 257 338 l 535 338 m 532 961 q 520 990 532 967 q 482 1035 508 1014 q 415 1056 456 1056 q 335 1035 367 1056 q 287 990 303 1014 q 271 961 271 965 l 228 972 q 246 1024 228 982 q 307 1103 264 1065 q 419 1140 350 1140 q 543 1104 500 1140 q 601 1031 586 1068 q 615 979 615 993 l 532 961 z "},"Ā":{"ha":844,"x_min":-12,"x_max":857,"o":"m 192 1085 l 653 1085 l 639 1004 l 178 1004 l 192 1085 m -12 57 l 75 79 l 382 907 l 449 907 l 768 79 l 857 57 l 857 0 l 525 0 l 525 57 l 624 79 l 624 104 l 564 258 l 229 258 l 175 104 l 175 79 l 281 57 l 281 0 l -12 0 l -12 57 m 535 338 l 400 694 l 394 710 l 392 717 l 383 692 l 257 338 l 535 338 z "},"Ą":{"ha":844,"x_min":-12,"x_max":857,"o":"m 588 0 q 511 -115 511 -62 q 571 -176 511 -176 q 650 -147 600 -176 l 675 -189 q 653 -209 675 -190 q 601 -244 632 -228 q 535 -260 569 -260 q 451 -233 483 -260 q 419 -157 419 -207 q 525 1 419 -67 l 525 57 l 624 79 l 624 104 l 564 258 l 229 258 l 175 104 l 175 79 l 281 57 l 281 0 l -12 0 l -12 57 l 75 79 l 382 907 l 449 907 l 768 79 l 857 57 l 857 0 l 588 0 m 257 338 l 535 338 l 400 694 l 394 710 l 392 717 l 383 692 l 257 338 z "},"Å":{"ha":844,"x_min":-12,"x_max":857,"o":"m 857 57 l 857 0 l 525 0 l 525 57 l 624 79 l 624 104 l 564 258 l 229 258 l 175 104 l 175 79 l 281 57 l 281 0 l -12 0 l -12 57 l 75 79 l 379 897 q 310 933 331 904 q 289 1015 289 961 q 325 1108 289 1076 q 418 1140 361 1140 q 508 1113 474 1140 q 542 1025 542 1085 q 520 940 542 971 q 451 900 499 908 l 768 79 l 857 57 m 356 1021 q 367 973 356 988 q 417 958 379 958 q 463 972 450 958 q 475 1018 475 985 q 464 1066 475 1051 q 417 1081 453 1081 q 369 1067 383 1081 q 356 1021 356 1054 m 257 338 l 535 338 l 400 694 l 394 710 l 392 717 l 383 692 l 257 338 z "},"Ǻ":{"ha":844,"x_min":-12,"x_max":857,"o":"m 375 1189 l 344 1238 l 526 1374 q 559 1395 543 1386 q 585 1404 575 1404 q 622 1379 606 1404 q 643 1308 639 1354 l 375 1189 m 857 57 l 857 0 l 525 0 l 525 57 l 624 79 l 624 104 l 564 258 l 229 258 l 175 104 l 175 79 l 281 57 l 281 0 l -12 0 l -12 57 l 75 79 l 381 904 q 296 1018 296 921 q 332 1111 296 1079 q 425 1143 368 1143 q 515 1115 481 1143 q 549 1028 549 1088 q 522 944 549 975 q 450 904 494 914 l 768 79 l 857 57 m 363 1024 q 374 976 363 990 q 424 961 386 961 q 469 974 457 961 q 482 1021 482 988 q 471 1069 482 1054 q 424 1083 460 1083 q 376 1070 390 1083 q 363 1024 363 1057 m 257 338 l 535 338 l 400 694 l 394 710 l 392 717 l 383 692 l 257 338 z "},"Ã":{"ha":844,"x_min":-12,"x_max":857,"o":"m 224 1079 q 308 1119 253 1119 q 406 1099 340 1119 l 515 1064 l 626 1114 l 658 1078 l 607 1010 q 522 969 578 969 q 425 990 490 969 l 315 1025 l 204 975 l 172 1011 l 224 1079 m -12 57 l 75 79 l 382 907 l 449 907 l 768 79 l 857 57 l 857 0 l 525 0 l 525 57 l 624 79 l 624 104 l 564 258 l 229 258 l 175 104 l 175 79 l 281 57 l 281 0 l -12 0 l -12 57 m 535 338 l 400 694 l 394 710 l 392 717 l 383 692 l 257 338 l 535 338 z "},"Æ":{"ha":1101,"x_min":-12,"x_max":1074,"o":"m 75 79 l 464 900 l 989 900 l 989 672 l 921 672 l 892 824 l 761 824 l 631 815 l 660 456 l 857 456 l 881 524 l 939 524 l 939 308 l 881 308 l 857 376 l 667 376 l 693 93 q 756 83 715 88 q 836 79 796 79 l 975 79 l 1006 228 l 1074 228 l 1074 0 l 453 0 l 453 60 l 568 83 l 543 376 l 307 376 l 178 104 l 178 79 l 281 57 l 281 0 l -12 0 l -12 57 l 75 79 m 536 456 l 507 810 l 347 456 l 536 456 z "},"Ǽ":{"ha":1101,"x_min":-12,"x_max":1074,"o":"m 0 0 m 75 79 l 464 900 l 989 900 l 989 672 l 921 672 l 892 824 l 761 824 l 631 815 l 660 456 l 857 456 l 881 524 l 939 524 l 939 308 l 881 308 l 857 376 l 667 376 l 693 93 q 756 83 715 88 q 836 79 796 79 l 975 79 l 1006 228 l 1074 228 l 1074 0 l 453 0 l 453 60 l 568 83 l 543 376 l 307 376 l 178 104 l 178 79 l 281 57 l 281 0 l -12 0 l -12 57 l 75 79 m 536 456 l 507 810 l 347 456 l 536 456 m 522 994 l 704 1131 q 737 1152 721 1143 q 763 1161 753 1161 q 800 1136 783 1161 q 821 1065 817 1111 l 553 946 l 522 994 z "},"B":{"ha":833,"x_min":82,"x_max":776,"o":"m 82 60 l 197 83 l 197 817 l 82 840 l 82 900 l 446 900 q 653 842 576 900 q 729 683 729 783 q 691 557 729 606 q 569 479 653 508 q 717 395 658 461 q 776 247 776 329 q 694 65 776 131 q 467 0 613 0 l 82 0 l 82 60 m 388 496 q 548 544 493 496 q 603 682 603 592 q 418 819 603 819 q 317 813 368 819 l 317 496 l 388 496 m 444 76 q 589 122 539 76 q 639 251 639 167 q 585 380 639 340 q 411 419 532 419 l 317 419 l 317 85 q 444 76 369 76 z "},"C":{"ha":850,"x_min":63,"x_max":774,"o":"m 774 256 l 774 44 q 647 1 711 18 q 472 -15 582 -15 q 63 439 63 -15 q 115 676 63 567 q 267 851 168 786 q 493 917 365 917 q 768 876 668 917 l 768 658 l 700 658 l 671 811 q 640 818 665 813 q 574 828 615 824 q 483 833 532 833 q 320 793 382 833 q 231 667 258 753 q 203 443 203 582 q 278 166 203 269 q 489 63 354 63 q 592 74 550 63 q 656 98 633 85 q 678 114 678 111 l 706 256 l 774 256 z "},"Ć":{"ha":850,"x_min":63,"x_max":774,"o":"m 571 1131 q 603 1152 588 1143 q 629 1161 619 1161 q 667 1136 650 1161 q 688 1065 683 1111 l 419 946 l 389 994 l 571 1131 m 774 256 l 774 44 q 647 1 711 18 q 472 -15 582 -15 q 63 439 63 -15 q 115 676 63 567 q 267 851 168 786 q 493 917 365 917 q 768 876 668 917 l 768 658 l 700 658 l 671 811 q 640 818 665 813 q 574 828 615 824 q 483 833 532 833 q 320 793 382 833 q 231 667 258 753 q 203 443 203 582 q 278 166 203 269 q 489 63 354 63 q 592 74 550 63 q 656 98 633 85 q 678 114 678 111 l 706 256 l 774 256 z "},"Č":{"ha":850,"x_min":63,"x_max":774,"o":"m 481 1068 l 656 1156 l 690 1106 l 581 1017 l 540 985 q 501 953 518 965 q 475 942 485 942 q 447 952 463 942 q 399 992 432 963 q 368 1017 388 1000 l 265 1101 l 311 1158 l 481 1068 m 774 256 l 774 44 q 647 1 711 18 q 472 -15 582 -15 q 63 439 63 -15 q 115 676 63 567 q 267 851 168 786 q 493 917 365 917 q 768 876 668 917 l 768 658 l 700 658 l 671 811 q 640 818 665 813 q 574 828 615 824 q 483 833 532 833 q 320 793 382 833 q 231 667 258 753 q 203 443 203 582 q 278 166 203 269 q 489 63 354 63 q 592 74 550 63 q 656 98 633 85 q 678 114 678 111 l 706 256 l 774 256 z "},"Ç":{"ha":850,"x_min":63,"x_max":774,"o":"m 379 -186 q 454 -201 418 -201 q 536 -160 536 -201 q 526 -131 536 -139 q 493 -119 517 -124 l 442 -108 l 415 -82 l 443 -14 q 63 439 63 0 q 115 676 63 567 q 267 851 168 786 q 493 917 365 917 q 768 876 668 917 l 768 658 l 700 658 l 671 811 q 640 818 665 813 q 574 828 615 824 q 483 833 532 833 q 320 793 382 833 q 231 667 258 753 q 203 443 203 582 q 278 166 203 269 q 489 63 354 63 q 592 74 550 63 q 656 98 633 85 q 678 114 678 111 l 706 256 l 774 256 l 774 44 q 660 4 719 19 q 507 -15 601 -11 l 507 -40 l 531 -46 q 606 -75 581 -58 q 631 -133 631 -92 q 581 -230 631 -200 q 460 -260 532 -260 q 406 -254 429 -260 q 357 -237 383 -249 l 379 -186 z "},"Ĉ":{"ha":850,"x_min":63,"x_max":774,"o":"m 63 0 m 774 256 l 774 44 q 647 1 711 18 q 472 -15 582 -15 q 63 439 63 -15 q 115 676 63 567 q 267 851 168 786 q 493 917 365 917 q 768 876 668 917 l 768 658 l 700 658 l 671 811 q 640 818 665 813 q 574 828 615 824 q 483 833 532 833 q 320 793 382 833 q 231 667 258 753 q 203 443 203 582 q 278 166 203 269 q 489 63 354 63 q 592 74 550 63 q 656 98 633 85 q 678 114 678 111 l 706 256 l 774 256 m 390 1083 l 431 1115 q 469 1147 453 1135 q 496 1158 486 1158 q 524 1148 508 1158 q 572 1108 539 1138 q 603 1083 583 1100 l 706 999 l 660 942 l 490 1032 l 315 944 l 281 994 l 390 1083 z "},"Ċ":{"ha":850,"x_min":63,"x_max":774,"o":"m 63 0 m 774 256 l 774 44 q 647 1 711 18 q 472 -15 582 -15 q 63 439 63 -15 q 115 676 63 567 q 267 851 168 786 q 493 917 365 917 q 768 876 668 917 l 768 658 l 700 658 l 671 811 q 640 818 665 813 q 574 828 615 824 q 483 833 532 833 q 320 793 382 833 q 231 667 258 753 q 203 443 203 582 q 278 166 203 269 q 489 63 354 63 q 592 74 550 63 q 656 98 633 85 q 678 114 678 111 l 706 256 l 774 256 m 489 964 q 433 988 454 964 q 411 1050 411 1011 q 435 1115 411 1088 q 496 1142 460 1142 q 553 1119 532 1142 q 574 1058 574 1097 q 551 992 574 1019 q 489 964 528 964 z "},"D":{"ha":976,"x_min":76,"x_max":914,"o":"m 76 60 l 192 83 l 192 815 l 76 840 l 76 900 l 488 900 q 803 789 693 900 q 914 472 914 678 q 792 119 914 239 q 431 0 669 0 l 76 0 l 76 60 m 443 71 q 633 112 561 71 q 740 240 706 153 q 774 468 774 326 q 694 735 774 650 q 444 819 614 819 q 311 810 361 819 l 311 86 q 369 75 331 79 q 443 71 407 71 z "},"Ǳ":{"ha":1753,"x_min":76,"x_max":1704,"o":"m 76 0 m 76 60 l 192 83 l 192 815 l 76 840 l 76 900 l 488 900 q 803 789 693 900 q 914 472 914 678 q 792 119 914 239 q 431 0 669 0 l 76 0 l 76 60 m 443 71 q 633 112 561 71 q 740 240 706 153 q 774 468 774 326 q 694 735 774 650 q 444 819 614 819 q 311 810 361 819 l 311 86 q 369 75 331 79 q 443 71 407 71 m 1025 82 l 1525 792 l 1525 818 l 1147 818 l 1107 674 l 1039 674 l 1039 900 l 1692 900 l 1692 808 l 1178 99 l 1178 82 l 1596 82 l 1636 226 l 1704 226 l 1704 0 l 1025 0 l 1025 82 z "},"Ǆ":{"ha":1753,"x_min":76,"x_max":1704,"o":"m 76 0 m 76 60 l 192 83 l 192 815 l 76 840 l 76 900 l 488 900 q 803 789 693 900 q 914 472 914 678 q 792 119 914 239 q 431 0 669 0 l 76 0 l 76 60 m 443 71 q 633 112 561 71 q 740 240 706 153 q 774 468 774 326 q 694 735 774 650 q 444 819 614 819 q 311 810 361 819 l 311 86 q 369 75 331 79 q 443 71 407 71 m 1025 82 l 1525 792 l 1525 818 l 1147 818 l 1107 674 l 1039 674 l 1039 900 l 1692 900 l 1692 808 l 1178 99 l 1178 82 l 1596 82 l 1636 226 l 1704 226 l 1704 0 l 1025 0 l 1025 82 m 1361 1068 l 1536 1156 l 1571 1106 l 1461 1017 l 1421 985 q 1382 953 1399 965 q 1356 942 1365 942 q 1328 952 1343 942 q 1279 992 1313 963 q 1249 1017 1268 1000 l 1146 1101 l 1192 1158 l 1361 1068 z "},"Ð":{"ha":989,"x_min":79,"x_max":919,"o":"m 197 83 l 197 424 l 79 424 l 79 503 l 197 503 l 197 815 l 82 840 l 82 900 l 510 900 q 813 785 707 900 q 919 458 919 671 q 864 217 919 321 q 707 57 808 114 q 472 0 606 0 l 82 0 l 82 60 l 197 83 m 317 86 q 457 71 371 71 q 643 110 572 71 q 747 233 714 149 q 779 454 779 317 q 704 732 779 644 q 467 819 629 819 q 317 810 385 819 l 317 503 l 561 503 l 561 424 l 317 424 l 317 86 z "},"Ď":{"ha":982,"x_min":76,"x_max":914,"o":"m 474 1068 l 649 1156 l 683 1106 l 574 1017 l 533 985 q 494 953 511 965 q 468 942 478 942 q 440 952 456 942 q 392 992 425 963 q 361 1017 381 1000 l 258 1101 l 304 1158 l 474 1068 m 76 60 l 192 83 l 192 815 l 76 840 l 76 900 l 488 900 q 803 789 693 900 q 914 472 914 678 q 792 119 914 239 q 431 0 669 0 l 76 0 l 76 60 m 443 71 q 633 112 561 71 q 740 240 706 153 q 774 468 774 326 q 694 735 774 650 q 444 819 614 819 q 311 810 361 819 l 311 86 q 369 75 331 79 q 443 71 407 71 z "},"Đ":{"ha":989,"x_min":79,"x_max":919,"o":"m 79 0 m 197 83 l 197 424 l 79 424 l 79 503 l 197 503 l 197 815 l 82 840 l 82 900 l 510 900 q 813 785 707 900 q 919 458 919 671 q 864 217 919 321 q 707 57 808 114 q 472 0 606 0 l 82 0 l 82 60 l 197 83 m 317 86 q 457 71 371 71 q 643 110 572 71 q 747 233 714 149 q 779 454 779 317 q 704 732 779 644 q 467 819 629 819 q 317 810 385 819 l 317 503 l 561 503 l 561 424 l 317 424 l 317 86 z "},"Ḍ":{"ha":976,"x_min":76,"x_max":914,"o":"m 76 0 m 76 60 l 192 83 l 192 815 l 76 840 l 76 900 l 488 900 q 803 789 693 900 q 914 472 914 678 q 792 119 914 239 q 431 0 669 0 l 76 0 l 76 60 m 443 71 q 633 112 561 71 q 740 240 706 153 q 774 468 774 326 q 694 735 774 650 q 444 819 614 819 q 311 810 361 819 l 311 86 q 369 75 331 79 q 443 71 407 71 m 485 -239 q 428 -215 450 -239 q 407 -153 407 -192 q 431 -88 407 -115 q 492 -61 456 -61 q 549 -83 528 -61 q 569 -144 569 -106 q 547 -211 569 -183 q 485 -239 524 -239 z "},"ǲ":{"ha":1579,"x_min":76,"x_max":1547,"o":"m 76 0 m 76 60 l 192 83 l 192 815 l 76 840 l 76 900 l 488 900 q 803 789 693 900 q 914 472 914 678 q 792 119 914 239 q 431 0 669 0 l 76 0 l 76 60 m 443 71 q 633 112 561 71 q 740 240 706 153 q 774 468 774 326 q 694 735 774 650 q 444 819 614 819 q 311 810 361 819 l 311 86 q 369 75 331 79 q 443 71 407 71 m 1003 0 l 1003 69 l 1383 594 l 1383 613 l 1113 613 l 1093 497 l 1036 497 l 1017 686 l 1517 686 l 1517 583 l 1161 94 l 1161 72 l 1451 72 l 1471 190 l 1528 190 l 1547 0 l 1003 0 z "},"ǅ":{"ha":1579,"x_min":76,"x_max":1547,"o":"m 76 0 m 76 60 l 192 83 l 192 815 l 76 840 l 76 900 l 488 900 q 803 789 693 900 q 914 472 914 678 q 792 119 914 239 q 431 0 669 0 l 76 0 l 76 60 m 443 71 q 633 112 561 71 q 740 240 706 153 q 774 468 774 326 q 694 735 774 650 q 444 819 614 819 q 311 810 361 819 l 311 86 q 369 75 331 79 q 443 71 407 71 m 1003 0 l 1003 69 l 1383 594 l 1383 613 l 1113 613 l 1093 497 l 1036 497 l 1017 686 l 1517 686 l 1517 583 l 1161 94 l 1161 72 l 1451 72 l 1471 190 l 1528 190 l 1547 0 l 1003 0 m 1271 756 q 1200 800 1244 756 l 1067 935 l 1114 983 l 1281 863 l 1442 985 l 1476 939 l 1342 800 q 1271 756 1300 756 z "},"E":{"ha":794,"x_min":76,"x_max":725,"o":"m 192 83 l 192 817 l 76 840 l 76 900 l 713 900 l 713 672 l 644 672 l 615 824 l 447 824 l 311 815 l 311 497 l 531 497 l 551 579 l 610 579 l 610 342 l 551 342 l 531 424 l 311 424 l 311 93 q 379 83 338 88 q 460 79 421 79 l 626 79 l 657 228 l 725 228 l 725 0 l 76 0 l 76 60 l 192 83 z "},"É":{"ha":794,"x_min":76,"x_max":725,"o":"m 475 1131 q 508 1152 492 1143 q 533 1161 524 1161 q 571 1136 554 1161 q 592 1065 588 1111 l 324 946 l 293 994 l 475 1131 m 192 83 l 192 817 l 76 840 l 76 900 l 713 900 l 713 672 l 644 672 l 615 824 l 447 824 l 311 815 l 311 497 l 531 497 l 551 579 l 610 579 l 610 342 l 551 342 l 531 424 l 311 424 l 311 93 q 379 83 338 88 q 460 79 421 79 l 626 79 l 657 228 l 725 228 l 725 0 l 76 0 l 76 60 l 192 83 z "},"Ĕ":{"ha":794,"x_min":76,"x_max":725,"o":"m 76 0 m 192 83 l 192 817 l 76 840 l 76 900 l 713 900 l 713 672 l 644 672 l 615 824 l 447 824 l 311 815 l 311 497 l 531 497 l 551 579 l 610 579 l 610 342 l 551 342 l 531 424 l 311 424 l 311 93 q 379 83 338 88 q 460 79 421 79 l 626 79 l 657 228 l 725 228 l 725 0 l 76 0 l 76 60 l 192 83 m 333 1140 q 345 1111 333 1135 q 383 1067 357 1088 q 450 1046 410 1046 q 531 1067 499 1046 q 578 1112 563 1088 q 594 1140 594 1136 l 638 1129 q 619 1078 638 1119 q 558 999 601 1036 q 446 961 515 961 q 322 997 365 961 q 265 1071 279 1033 q 250 1122 250 1108 l 333 1140 z "},"Ě":{"ha":794,"x_min":76,"x_max":725,"o":"m 425 1068 l 600 1156 l 635 1106 l 525 1017 l 485 985 q 446 953 463 965 q 419 942 429 942 q 392 952 407 942 q 343 992 376 963 q 313 1017 332 1000 l 210 1101 l 256 1158 l 425 1068 m 192 83 l 192 817 l 76 840 l 76 900 l 713 900 l 713 672 l 644 672 l 615 824 l 447 824 l 311 815 l 311 497 l 531 497 l 551 579 l 610 579 l 610 342 l 551 342 l 531 424 l 311 424 l 311 93 q 379 83 338 88 q 460 79 421 79 l 626 79 l 657 228 l 725 228 l 725 0 l 76 0 l 76 60 l 192 83 z "},"Ê":{"ha":794,"x_min":76,"x_max":725,"o":"m 317 1083 l 357 1115 q 396 1147 379 1135 q 422 1158 413 1158 q 450 1148 435 1158 q 499 1108 465 1138 q 529 1083 510 1100 l 632 999 l 586 942 l 417 1032 l 242 944 l 207 994 l 317 1083 m 192 83 l 192 817 l 76 840 l 76 900 l 713 900 l 713 672 l 644 672 l 615 824 l 447 824 l 311 815 l 311 497 l 531 497 l 551 579 l 610 579 l 610 342 l 551 342 l 531 424 l 311 424 l 311 93 q 379 83 338 88 q 460 79 421 79 l 626 79 l 657 228 l 725 228 l 725 0 l 76 0 l 76 60 l 192 83 z "},"Ế":{"ha":794,"x_min":76,"x_max":799,"o":"m 76 0 m 192 83 l 192 817 l 76 840 l 76 900 l 713 900 l 713 672 l 644 672 l 615 824 l 447 824 l 311 815 l 311 497 l 531 497 l 551 579 l 610 579 l 610 342 l 551 342 l 531 424 l 311 424 l 311 93 q 379 83 338 88 q 460 79 421 79 l 626 79 l 657 228 l 725 228 l 725 0 l 76 0 l 76 60 l 192 83 m 338 1083 l 378 1115 q 417 1147 400 1135 q 443 1158 433 1158 q 471 1148 456 1158 q 519 1108 486 1138 q 550 1083 531 1100 l 653 999 l 607 942 l 438 1032 l 263 944 l 228 994 l 338 1083 m 500 1172 l 682 1308 q 715 1330 699 1321 q 740 1339 731 1339 q 778 1314 761 1339 q 799 1243 794 1289 l 531 1124 l 500 1172 z "},"Ệ":{"ha":794,"x_min":76,"x_max":725,"o":"m 76 0 m 192 83 l 192 817 l 76 840 l 76 900 l 713 900 l 713 672 l 644 672 l 615 824 l 447 824 l 311 815 l 311 497 l 531 497 l 551 579 l 610 579 l 610 342 l 551 342 l 531 424 l 311 424 l 311 93 q 379 83 338 88 q 460 79 421 79 l 626 79 l 657 228 l 725 228 l 725 0 l 76 0 l 76 60 l 192 83 m 393 -239 q 337 -215 358 -239 q 315 -153 315 -192 q 340 -88 315 -115 q 400 -61 364 -61 q 457 -83 436 -61 q 478 -144 478 -106 q 455 -211 478 -183 q 393 -239 432 -239 m 342 1083 l 382 1115 q 421 1147 404 1135 q 447 1158 438 1158 q 475 1148 460 1158 q 524 1108 490 1138 q 554 1083 535 1100 l 657 999 l 611 942 l 442 1032 l 267 944 l 232 994 l 342 1083 z "},"Ề":{"ha":794,"x_min":76,"x_max":732,"o":"m 76 0 m 192 83 l 192 817 l 76 840 l 76 900 l 713 900 l 713 672 l 644 672 l 615 824 l 447 824 l 311 815 l 311 497 l 531 497 l 551 579 l 610 579 l 610 342 l 551 342 l 531 424 l 311 424 l 311 93 q 379 83 338 88 q 460 79 421 79 l 626 79 l 657 228 l 725 228 l 725 0 l 76 0 l 76 60 l 192 83 m 340 1083 l 381 1115 q 419 1147 403 1135 q 446 1158 436 1158 q 474 1148 458 1158 q 522 1108 489 1138 q 553 1083 533 1100 l 656 999 l 610 942 l 440 1032 l 265 944 l 231 994 l 340 1083 m 433 1243 q 454 1314 438 1289 q 492 1339 471 1339 q 517 1330 501 1339 q 550 1308 533 1321 l 732 1172 l 701 1124 l 433 1243 z "},"Ể":{"ha":794,"x_min":76,"x_max":751,"o":"m 76 0 m 192 83 l 192 817 l 76 840 l 76 900 l 713 900 l 713 672 l 644 672 l 615 824 l 447 824 l 311 815 l 311 497 l 531 497 l 551 579 l 610 579 l 610 342 l 551 342 l 531 424 l 311 424 l 311 93 q 379 83 338 88 q 460 79 421 79 l 626 79 l 657 228 l 725 228 l 725 0 l 76 0 l 76 60 l 192 83 m 329 1083 l 369 1115 q 408 1147 392 1135 q 435 1158 425 1158 q 463 1148 447 1158 q 511 1108 478 1138 q 542 1083 522 1100 l 644 999 l 599 942 l 429 1032 l 254 944 l 219 994 l 329 1083 m 563 1103 q 556 1128 556 1119 q 568 1156 556 1143 q 608 1178 581 1168 q 646 1199 635 1188 q 657 1225 657 1210 q 589 1253 657 1253 q 501 1242 549 1253 q 489 1286 489 1265 q 505 1317 489 1307 q 572 1328 521 1328 q 703 1303 656 1328 q 751 1231 751 1278 q 671 1139 751 1164 q 640 1124 647 1132 q 633 1103 633 1115 l 563 1103 z "},"Ễ":{"ha":794,"x_min":76,"x_max":725,"o":"m 76 0 m 192 83 l 192 817 l 76 840 l 76 900 l 713 900 l 713 672 l 644 672 l 615 824 l 447 824 l 311 815 l 311 497 l 531 497 l 551 579 l 610 579 l 610 342 l 551 342 l 531 424 l 311 424 l 311 93 q 379 83 338 88 q 460 79 421 79 l 626 79 l 657 228 l 725 228 l 725 0 l 76 0 l 76 60 l 192 83 m 339 1083 l 379 1115 q 418 1147 401 1135 q 444 1158 435 1158 q 472 1148 457 1158 q 521 1108 488 1138 q 551 1083 532 1100 l 654 999 l 608 942 l 439 1032 l 264 944 l 229 994 l 339 1083 m 551 1186 q 454 1207 519 1186 l 344 1242 l 233 1192 l 201 1228 l 253 1296 q 338 1336 282 1336 q 435 1315 369 1336 l 544 1281 l 656 1331 l 688 1294 l 636 1226 q 551 1186 607 1186 z "},"Ȅ":{"ha":794,"x_min":76,"x_max":725,"o":"m 76 0 m 192 83 l 192 817 l 76 840 l 76 900 l 713 900 l 713 672 l 644 672 l 615 824 l 447 824 l 311 815 l 311 497 l 531 497 l 551 579 l 610 579 l 610 342 l 551 342 l 531 424 l 311 424 l 311 93 q 379 83 338 88 q 460 79 421 79 l 626 79 l 657 228 l 725 228 l 725 0 l 76 0 l 76 60 l 192 83 m 114 1081 q 141 1142 124 1121 q 178 1164 158 1164 q 209 1155 194 1164 q 243 1119 224 1146 l 353 976 l 314 939 l 114 1081 m 369 1081 q 397 1142 379 1121 q 433 1164 414 1164 q 465 1155 450 1164 q 499 1119 479 1146 l 608 976 l 569 939 l 369 1081 z "},"Ë":{"ha":794,"x_min":76,"x_max":725,"o":"m 283 963 q 232 984 251 963 q 213 1040 213 1006 q 234 1099 213 1075 q 289 1124 256 1124 q 340 1103 321 1124 q 360 1049 360 1083 q 339 988 360 1013 q 283 963 318 963 m 576 963 q 525 984 544 963 q 506 1040 506 1006 q 527 1099 506 1075 q 582 1124 549 1124 q 633 1103 614 1124 q 653 1049 653 1083 q 632 988 653 1013 q 576 963 611 963 m 192 83 l 192 817 l 76 840 l 76 900 l 713 900 l 713 672 l 644 672 l 615 824 l 447 824 l 311 815 l 311 497 l 531 497 l 551 579 l 610 579 l 610 342 l 551 342 l 531 424 l 311 424 l 311 93 q 379 83 338 88 q 460 79 421 79 l 626 79 l 657 228 l 725 228 l 725 0 l 76 0 l 76 60 l 192 83 z "},"Ė":{"ha":794,"x_min":76,"x_max":725,"o":"m 431 964 q 374 988 396 964 q 353 1050 353 1011 q 377 1115 353 1088 q 438 1142 401 1142 q 494 1119 474 1142 q 515 1058 515 1097 q 492 992 515 1019 q 431 964 469 964 m 192 83 l 192 817 l 76 840 l 76 900 l 713 900 l 713 672 l 644 672 l 615 824 l 447 824 l 311 815 l 311 497 l 531 497 l 551 579 l 610 579 l 610 342 l 551 342 l 531 424 l 311 424 l 311 93 q 379 83 338 88 q 460 79 421 79 l 626 79 l 657 228 l 725 228 l 725 0 l 76 0 l 76 60 l 192 83 z "},"Ẹ":{"ha":794,"x_min":76,"x_max":725,"o":"m 76 0 m 192 83 l 192 817 l 76 840 l 76 900 l 713 900 l 713 672 l 644 672 l 615 824 l 447 824 l 311 815 l 311 497 l 531 497 l 551 579 l 610 579 l 610 342 l 551 342 l 531 424 l 311 424 l 311 93 q 379 83 338 88 q 460 79 421 79 l 626 79 l 657 228 l 725 228 l 725 0 l 76 0 l 76 60 l 192 83 m 393 -239 q 337 -215 358 -239 q 315 -153 315 -192 q 340 -88 315 -115 q 400 -61 364 -61 q 457 -83 436 -61 q 478 -144 478 -106 q 455 -211 478 -183 q 393 -239 432 -239 z "},"È":{"ha":794,"x_min":76,"x_max":725,"o":"m 269 1065 q 290 1136 274 1111 q 328 1161 307 1161 q 353 1152 338 1161 q 386 1131 369 1143 l 568 994 l 538 946 l 269 1065 m 192 83 l 192 817 l 76 840 l 76 900 l 713 900 l 713 672 l 644 672 l 615 824 l 447 824 l 311 815 l 311 497 l 531 497 l 551 579 l 610 579 l 610 342 l 551 342 l 531 424 l 311 424 l 311 93 q 379 83 338 88 q 460 79 421 79 l 626 79 l 657 228 l 725 228 l 725 0 l 76 0 l 76 60 l 192 83 z "},"Ẻ":{"ha":794,"x_min":76,"x_max":725,"o":"m 76 0 m 192 83 l 192 817 l 76 840 l 76 900 l 713 900 l 713 672 l 644 672 l 615 824 l 447 824 l 311 815 l 311 497 l 531 497 l 551 579 l 610 579 l 610 342 l 551 342 l 531 424 l 311 424 l 311 93 q 379 83 338 88 q 460 79 421 79 l 626 79 l 657 228 l 725 228 l 725 0 l 76 0 l 76 60 l 192 83 m 404 940 q 397 965 397 957 q 410 993 397 981 q 450 1015 422 1006 q 488 1036 476 1025 q 499 1063 499 1047 q 431 1090 499 1090 q 343 1079 390 1090 q 331 1124 331 1103 q 347 1155 331 1144 q 414 1165 363 1165 q 545 1140 497 1165 q 593 1068 593 1115 q 513 976 593 1001 q 482 961 489 969 q 475 940 475 953 l 404 940 z "},"Ȇ":{"ha":794,"x_min":76,"x_max":725,"o":"m 76 0 m 192 83 l 192 817 l 76 840 l 76 900 l 713 900 l 713 672 l 644 672 l 615 824 l 447 824 l 311 815 l 311 497 l 531 497 l 551 579 l 610 579 l 610 342 l 551 342 l 531 424 l 311 424 l 311 93 q 379 83 338 88 q 460 79 421 79 l 626 79 l 657 228 l 725 228 l 725 0 l 76 0 l 76 60 l 192 83 m 554 961 q 542 990 554 967 q 504 1035 531 1014 q 438 1056 478 1056 q 357 1035 389 1056 q 309 990 325 1014 q 293 961 293 965 l 250 972 q 268 1024 250 982 q 329 1103 286 1065 q 442 1140 372 1140 q 565 1104 522 1140 q 623 1031 608 1068 q 638 979 638 993 l 554 961 z "},"Ē":{"ha":794,"x_min":76,"x_max":725,"o":"m 201 1085 l 663 1085 l 649 1004 l 188 1004 l 201 1085 m 192 83 l 192 817 l 76 840 l 76 900 l 713 900 l 713 672 l 644 672 l 615 824 l 447 824 l 311 815 l 311 497 l 531 497 l 551 579 l 610 579 l 610 342 l 551 342 l 531 424 l 311 424 l 311 93 q 379 83 338 88 q 460 79 421 79 l 626 79 l 657 228 l 725 228 l 725 0 l 76 0 l 76 60 l 192 83 z "},"Ę":{"ha":794,"x_min":76,"x_max":824,"o":"m 192 83 l 192 817 l 76 840 l 76 900 l 713 900 l 713 672 l 644 672 l 615 824 l 447 824 l 311 815 l 311 497 l 531 497 l 551 579 l 610 579 l 610 342 l 551 342 l 531 424 l 311 424 l 311 93 q 460 79 383 79 l 626 79 l 675 228 l 743 228 l 725 22 l 724 21 q 660 -115 660 -54 q 719 -176 660 -176 q 799 -147 749 -176 l 824 -189 q 802 -209 824 -190 q 749 -244 781 -228 q 683 -260 718 -260 q 600 -233 632 -260 q 568 -157 568 -207 q 640 0 568 -81 l 76 0 l 76 60 l 192 83 z "},"Ẽ":{"ha":794,"x_min":76,"x_max":725,"o":"m 76 0 m 192 83 l 192 817 l 76 840 l 76 900 l 713 900 l 713 672 l 644 672 l 615 824 l 447 824 l 311 815 l 311 497 l 531 497 l 551 579 l 610 579 l 610 342 l 551 342 l 531 424 l 311 424 l 311 93 q 379 83 338 88 q 460 79 421 79 l 626 79 l 657 228 l 725 228 l 725 0 l 76 0 l 76 60 l 192 83 m 551 969 q 454 990 519 969 l 344 1025 l 233 975 l 201 1011 l 253 1079 q 338 1119 282 1119 q 435 1099 369 1119 l 544 1064 l 656 1114 l 688 1078 l 636 1010 q 551 969 607 969 z "},"F":{"ha":718,"x_min":76,"x_max":718,"o":"m 76 60 l 192 83 l 192 817 l 76 840 l 76 900 l 718 900 l 718 672 l 649 672 l 619 824 l 447 824 l 311 815 l 311 469 l 543 469 l 563 553 l 621 553 l 621 314 l 563 314 l 543 396 l 311 396 l 311 88 l 469 68 l 469 0 l 76 0 l 76 60 z "},"G":{"ha":896,"x_min":63,"x_max":847,"o":"m 574 386 l 574 446 l 847 446 l 847 376 l 790 365 l 790 0 l 733 0 l 689 38 l 669 38 q 457 -15 590 -15 q 163 95 263 -15 q 63 439 63 206 q 115 677 63 568 q 265 851 167 786 q 499 917 364 917 q 674 903 599 917 q 775 875 750 890 l 775 658 l 708 658 l 668 811 q 640 818 663 813 q 575 829 617 824 q 481 835 533 835 q 266 741 329 835 q 203 453 203 647 q 270 160 203 257 q 492 63 338 63 q 591 73 554 63 q 674 107 628 83 l 674 361 l 574 386 z "},"Ǵ":{"ha":896,"x_min":63,"x_max":847,"o":"m 63 0 m 574 386 l 574 446 l 847 446 l 847 376 l 790 365 l 790 0 l 733 0 l 689 38 l 669 38 q 457 -15 590 -15 q 163 95 263 -15 q 63 439 63 206 q 115 677 63 568 q 265 851 167 786 q 499 917 364 917 q 674 903 599 917 q 775 875 750 890 l 775 658 l 708 658 l 668 811 q 640 818 663 813 q 575 829 617 824 q 481 835 533 835 q 266 741 329 835 q 203 453 203 647 q 270 160 203 257 q 492 63 338 63 q 591 73 554 63 q 674 107 628 83 l 674 361 l 574 386 m 399 994 l 581 1131 q 613 1152 597 1143 q 639 1161 629 1161 q 676 1136 660 1161 q 697 1065 693 1111 l 429 946 l 399 994 z "},"Ğ":{"ha":896,"x_min":63,"x_max":847,"o":"m 364 1140 q 376 1111 364 1135 q 414 1067 388 1088 q 481 1046 440 1046 q 561 1067 529 1046 q 609 1112 593 1088 q 625 1140 625 1136 l 668 1129 q 650 1078 668 1119 q 589 999 632 1036 q 476 961 546 961 q 353 997 396 961 q 295 1071 310 1033 q 281 1122 281 1108 l 364 1140 m 574 386 l 574 446 l 847 446 l 847 376 l 790 365 l 790 0 l 733 0 l 689 38 l 669 38 q 457 -15 590 -15 q 163 95 263 -15 q 63 439 63 206 q 115 677 63 568 q 265 851 167 786 q 499 917 364 917 q 674 903 599 917 q 775 875 750 890 l 775 658 l 708 658 l 668 811 q 640 818 663 813 q 575 829 617 824 q 481 835 533 835 q 266 741 329 835 q 203 453 203 647 q 270 160 203 257 q 492 63 338 63 q 591 73 554 63 q 674 107 628 83 l 674 361 l 574 386 z "},"Ǧ":{"ha":896,"x_min":63,"x_max":847,"o":"m 63 0 m 574 386 l 574 446 l 847 446 l 847 376 l 790 365 l 790 0 l 733 0 l 689 38 l 669 38 q 457 -15 590 -15 q 163 95 263 -15 q 63 439 63 206 q 115 677 63 568 q 265 851 167 786 q 499 917 364 917 q 674 903 599 917 q 775 875 750 890 l 775 658 l 708 658 l 668 811 q 640 818 663 813 q 575 829 617 824 q 481 835 533 835 q 266 741 329 835 q 203 453 203 647 q 270 160 203 257 q 492 63 338 63 q 591 73 554 63 q 674 107 628 83 l 674 361 l 574 386 m 482 1068 l 657 1156 l 692 1106 l 582 1017 l 542 985 q 503 953 519 965 q 476 942 486 942 q 449 952 464 942 q 400 992 433 963 q 369 1017 389 1000 l 267 1101 l 313 1158 l 482 1068 z "},"Ĝ":{"ha":896,"x_min":63,"x_max":847,"o":"m 63 0 m 574 386 l 574 446 l 847 446 l 847 376 l 790 365 l 790 0 l 733 0 l 689 38 l 669 38 q 457 -15 590 -15 q 163 95 263 -15 q 63 439 63 206 q 115 677 63 568 q 265 851 167 786 q 499 917 364 917 q 674 903 599 917 q 775 875 750 890 l 775 658 l 708 658 l 668 811 q 640 818 663 813 q 575 829 617 824 q 481 835 533 835 q 266 741 329 835 q 203 453 203 647 q 270 160 203 257 q 492 63 338 63 q 591 73 554 63 q 674 107 628 83 l 674 361 l 574 386 m 376 1083 l 417 1115 q 456 1147 439 1135 q 482 1158 472 1158 q 510 1148 494 1158 q 558 1108 525 1138 q 589 1083 569 1100 l 692 999 l 646 942 l 476 1032 l 301 944 l 267 994 l 376 1083 z "},"Ģ":{"ha":896,"x_min":63,"x_max":847,"o":"m 574 386 l 574 446 l 847 446 l 847 376 l 790 365 l 790 0 l 733 0 l 689 38 l 669 38 q 457 -15 590 -15 q 163 95 263 -15 q 63 439 63 206 q 115 677 63 568 q 265 851 167 786 q 499 917 364 917 q 674 903 599 917 q 775 875 750 890 l 775 658 l 708 658 l 668 811 q 640 818 663 813 q 575 829 617 824 q 481 835 533 835 q 266 741 329 835 q 203 453 203 647 q 270 160 203 257 q 492 63 338 63 q 591 73 554 63 q 674 107 628 83 l 674 361 l 574 386 m 451 -260 q 469 -200 464 -224 q 475 -150 475 -176 q 439 -71 475 -104 q 469 -48 453 -56 q 501 -40 486 -40 q 551 -62 535 -40 q 568 -112 568 -83 q 551 -187 568 -154 q 515 -241 535 -219 q 494 -260 494 -262 l 451 -260 z "},"Ġ":{"ha":896,"x_min":63,"x_max":847,"o":"m 63 0 m 574 386 l 574 446 l 847 446 l 847 376 l 790 365 l 790 0 l 733 0 l 689 38 l 669 38 q 457 -15 590 -15 q 163 95 263 -15 q 63 439 63 206 q 115 677 63 568 q 265 851 167 786 q 499 917 364 917 q 674 903 599 917 q 775 875 750 890 l 775 658 l 708 658 l 668 811 q 640 818 663 813 q 575 829 617 824 q 481 835 533 835 q 266 741 329 835 q 203 453 203 647 q 270 160 203 257 q 492 63 338 63 q 591 73 554 63 q 674 107 628 83 l 674 361 l 574 386 m 475 964 q 419 988 440 964 q 397 1050 397 1011 q 422 1115 397 1088 q 482 1142 446 1142 q 539 1119 518 1142 q 560 1058 560 1097 q 537 992 560 1019 q 475 964 514 964 z "},"H":{"ha":1046,"x_min":76,"x_max":969,"o":"m 76 61 l 192 82 l 192 818 l 76 839 l 76 900 l 426 900 l 426 839 l 311 818 l 311 500 l 735 500 l 735 818 l 621 839 l 621 900 l 969 900 l 969 839 l 856 818 l 856 82 l 969 61 l 969 0 l 621 0 l 621 61 l 735 82 l 735 424 l 311 424 l 311 82 l 426 61 l 426 0 l 76 0 l 76 61 z "},"Ħ":{"ha":1046,"x_min":76,"x_max":969,"o":"m 76 0 l 76 61 l 192 82 l 192 610 l 83 610 l 83 686 l 192 686 l 192 818 l 76 839 l 76 900 l 426 900 l 426 839 l 311 818 l 311 686 l 735 686 l 735 818 l 621 839 l 621 900 l 969 900 l 969 839 l 856 818 l 856 686 l 969 686 l 969 610 l 856 610 l 856 82 l 969 61 l 969 0 l 621 0 l 621 61 l 735 82 l 735 396 l 311 396 l 311 82 l 426 61 l 426 0 l 76 0 m 311 472 l 735 472 l 735 610 l 311 610 l 311 472 z "},"Ĥ":{"ha":1046,"x_min":76,"x_max":969,"o":"m 76 0 m 76 61 l 192 82 l 192 818 l 76 839 l 76 900 l 426 900 l 426 839 l 311 818 l 311 500 l 735 500 l 735 818 l 621 839 l 621 900 l 969 900 l 969 839 l 856 818 l 856 82 l 969 61 l 969 0 l 621 0 l 621 61 l 735 82 l 735 424 l 311 424 l 311 82 l 426 61 l 426 0 l 76 0 l 76 61 m 421 1083 l 461 1115 q 500 1147 483 1135 q 526 1158 517 1158 q 554 1148 539 1158 q 603 1108 569 1138 q 633 1083 614 1100 l 736 999 l 690 942 l 521 1032 l 346 944 l 311 994 l 421 1083 z "},"Ḥ":{"ha":1046,"x_min":76,"x_max":969,"o":"m 76 0 m 76 61 l 192 82 l 192 818 l 76 839 l 76 900 l 426 900 l 426 839 l 311 818 l 311 500 l 735 500 l 735 818 l 621 839 l 621 900 l 969 900 l 969 839 l 856 818 l 856 82 l 969 61 l 969 0 l 621 0 l 621 61 l 735 82 l 735 424 l 311 424 l 311 82 l 426 61 l 426 0 l 76 0 l 76 61 m 519 -239 q 463 -215 485 -239 q 442 -153 442 -192 q 466 -88 442 -115 q 526 -61 490 -61 q 583 -83 563 -61 q 604 -144 604 -106 q 581 -211 604 -183 q 519 -239 558 -239 z "},"I":{"ha":513,"x_min":82,"x_max":431,"o":"m 82 61 l 196 82 l 196 818 l 82 839 l 82 900 l 431 900 l 431 839 l 317 818 l 317 82 l 431 61 l 431 0 l 82 0 l 82 61 z "},"Ĳ":{"ha":1068,"x_min":82,"x_max":1006,"o":"m 82 0 m 82 61 l 196 82 l 196 818 l 82 839 l 82 900 l 431 900 l 431 839 l 317 818 l 317 82 l 431 61 l 431 0 l 82 0 l 82 61 m 593 218 l 633 65 q 658 57 639 63 q 703 51 678 51 q 783 138 783 51 l 783 815 l 651 839 l 651 900 l 1006 900 l 1006 839 l 904 818 l 904 154 q 852 22 904 63 q 700 -19 800 -19 q 616 -11 654 -19 q 555 6 578 -3 q 526 18 532 15 l 526 218 l 593 218 z "},"Í":{"ha":513,"x_min":82,"x_max":431,"o":"m 299 1131 q 331 1152 315 1143 q 357 1161 347 1161 q 394 1136 378 1161 q 415 1065 411 1111 l 147 946 l 117 994 l 299 1131 m 82 61 l 196 82 l 196 818 l 82 839 l 82 900 l 431 900 l 431 839 l 317 818 l 317 82 l 431 61 l 431 0 l 82 0 l 82 61 z "},"Ĭ":{"ha":513,"x_min":63,"x_max":450,"o":"m 63 0 m 82 61 l 196 82 l 196 818 l 82 839 l 82 900 l 431 900 l 431 839 l 317 818 l 317 82 l 431 61 l 431 0 l 82 0 l 82 61 m 146 1140 q 158 1111 146 1135 q 196 1067 169 1088 q 263 1046 222 1046 q 343 1067 311 1046 q 391 1112 375 1088 q 407 1140 407 1136 l 450 1129 q 432 1078 450 1119 q 371 999 414 1036 q 258 961 328 961 q 135 997 178 961 q 77 1071 92 1033 q 63 1122 63 1108 l 146 1140 z "},"Ǐ":{"ha":513,"x_min":44,"x_max":469,"o":"m 44 0 m 82 61 l 196 82 l 196 818 l 82 839 l 82 900 l 431 900 l 431 839 l 317 818 l 317 82 l 431 61 l 431 0 l 82 0 l 82 61 m 260 1068 l 435 1156 l 469 1106 l 360 1017 l 319 985 q 281 953 297 965 q 254 942 264 942 q 226 952 242 942 q 178 992 211 963 q 147 1017 167 1000 l 44 1101 l 90 1158 l 260 1068 z "},"Î":{"ha":513,"x_min":38,"x_max":463,"o":"m 147 1083 l 188 1115 q 226 1147 210 1135 q 253 1158 243 1158 q 281 1148 265 1158 q 329 1108 296 1138 q 360 1083 340 1100 l 463 999 l 417 942 l 247 1032 l 72 944 l 38 994 l 147 1083 m 82 61 l 196 82 l 196 818 l 82 839 l 82 900 l 431 900 l 431 839 l 317 818 l 317 82 l 431 61 l 431 0 l 82 0 l 82 61 z "},"Ȉ":{"ha":513,"x_min":-74,"x_max":431,"o":"m 0 0 m 82 61 l 196 82 l 196 818 l 82 839 l 82 900 l 431 900 l 431 839 l 317 818 l 317 82 l 431 61 l 431 0 l 82 0 l 82 61 m -74 1081 q -47 1142 -64 1121 q -10 1164 -29 1164 q 22 1155 7 1164 q 56 1119 36 1146 l 165 976 l 126 939 l -74 1081 m 182 1081 q 209 1142 192 1121 q 246 1164 226 1164 q 277 1155 263 1164 q 311 1119 292 1146 l 421 976 l 382 939 l 182 1081 z "},"Ï":{"ha":513,"x_min":36,"x_max":476,"o":"m 107 963 q 56 984 75 963 q 36 1040 36 1006 q 58 1099 36 1075 q 113 1124 79 1124 q 164 1103 144 1124 q 183 1049 183 1083 q 163 988 183 1013 q 107 963 142 963 m 400 963 q 349 984 368 963 q 329 1040 329 1006 q 351 1099 329 1075 q 406 1124 372 1124 q 457 1103 438 1124 q 476 1049 476 1083 q 456 988 476 1013 q 400 963 435 963 m 82 0 l 82 61 l 196 82 l 196 818 l 82 839 l 82 900 l 431 900 l 431 839 l 317 818 l 317 82 l 431 61 l 431 0 l 82 0 z "},"İ":{"ha":513,"x_min":82,"x_max":431,"o":"m 253 964 q 197 988 218 964 q 175 1050 175 1011 q 199 1115 175 1088 q 260 1142 224 1142 q 317 1119 296 1142 q 338 1058 338 1097 q 315 992 338 1019 q 253 964 292 964 m 82 61 l 196 82 l 196 818 l 82 839 l 82 900 l 431 900 l 431 839 l 317 818 l 317 82 l 431 61 l 431 0 l 82 0 l 82 61 z "},"Ị":{"ha":513,"x_min":82,"x_max":431,"o":"m 82 0 m 82 61 l 196 82 l 196 818 l 82 839 l 82 900 l 431 900 l 431 839 l 317 818 l 317 82 l 431 61 l 431 0 l 82 0 l 82 61 m 253 -239 q 197 -215 218 -239 q 175 -153 175 -192 q 199 -88 175 -115 q 260 -61 224 -61 q 317 -83 296 -61 q 338 -144 338 -106 q 315 -211 338 -183 q 253 -239 292 -239 z "},"Ì":{"ha":513,"x_min":82,"x_max":431,"o":"m 104 1065 q 125 1136 108 1111 q 163 1161 142 1161 q 188 1152 172 1161 q 221 1131 204 1143 l 403 994 l 372 946 l 104 1065 m 82 61 l 196 82 l 196 818 l 82 839 l 82 900 l 431 900 l 431 839 l 317 818 l 317 82 l 431 61 l 431 0 l 82 0 l 82 61 z "},"Ỉ":{"ha":513,"x_min":82,"x_max":431,"o":"m 82 0 m 82 61 l 196 82 l 196 818 l 82 839 l 82 900 l 431 900 l 431 839 l 317 818 l 317 82 l 431 61 l 431 0 l 82 0 l 82 61 m 217 940 q 210 965 210 957 q 222 993 210 981 q 263 1015 235 1006 q 300 1036 289 1025 q 311 1063 311 1047 q 243 1090 311 1090 q 156 1079 203 1090 q 143 1124 143 1103 q 159 1155 143 1144 q 226 1165 175 1165 q 358 1140 310 1165 q 406 1068 406 1115 q 325 976 406 1001 q 294 961 301 969 q 288 940 288 953 l 217 940 z "},"Ȋ":{"ha":513,"x_min":63,"x_max":450,"o":"m 63 0 m 82 61 l 196 82 l 196 818 l 82 839 l 82 900 l 431 900 l 431 839 l 317 818 l 317 82 l 431 61 l 431 0 l 82 0 l 82 61 m 367 961 q 355 990 367 967 q 317 1035 343 1014 q 250 1056 290 1056 q 169 1035 201 1056 q 122 990 138 1014 q 106 961 106 965 l 63 972 q 81 1024 63 982 q 142 1103 99 1065 q 254 1140 185 1140 q 378 1104 335 1140 q 435 1031 421 1068 q 450 979 450 993 l 367 961 z "},"Ī":{"ha":513,"x_min":46,"x_max":465,"o":"m 46 1004 l 60 1085 l 465 1085 l 451 1004 l 46 1004 m 82 0 l 82 61 l 196 82 l 196 818 l 82 839 l 82 900 l 431 900 l 431 839 l 317 818 l 317 82 l 431 61 l 431 0 l 82 0 z "},"Į":{"ha":513,"x_min":82,"x_max":474,"o":"m 196 82 l 196 818 l 82 839 l 82 900 l 431 900 l 431 839 l 317 818 l 317 82 l 431 61 l 431 0 l 388 0 q 310 -115 310 -61 q 369 -176 310 -176 q 449 -147 399 -176 l 474 -189 q 452 -209 474 -190 q 399 -244 431 -228 q 333 -260 368 -260 q 250 -233 282 -260 q 218 -157 218 -207 q 247 -67 218 -107 q 322 0 276 -28 l 82 0 l 82 61 l 196 82 z "},"Ĩ":{"ha":513,"x_min":14,"x_max":500,"o":"m 14 0 m 82 61 l 196 82 l 196 818 l 82 839 l 82 900 l 431 900 l 431 839 l 317 818 l 317 82 l 431 61 l 431 0 l 82 0 l 82 61 m 364 969 q 267 990 332 969 l 157 1025 l 46 975 l 14 1011 l 65 1079 q 150 1119 94 1119 q 247 1099 182 1119 l 357 1064 l 468 1114 l 500 1078 l 449 1010 q 364 969 419 969 z "},"J":{"ha":556,"x_min":14,"x_max":493,"o":"m 81 218 l 121 65 q 146 57 126 63 q 190 51 165 51 q 271 138 271 51 l 271 815 l 139 839 l 139 900 l 493 900 l 493 839 l 392 818 l 392 154 q 340 22 392 63 q 188 -19 288 -19 q 103 -11 142 -19 q 42 6 65 -3 q 14 18 19 15 l 14 218 l 81 218 z "},"Ĵ":{"ha":556,"x_min":14,"x_max":544,"o":"m 14 0 m 81 218 l 121 65 q 146 57 126 63 q 190 51 165 51 q 271 138 271 51 l 271 815 l 139 839 l 139 900 l 493 900 l 493 839 l 392 818 l 392 154 q 340 22 392 63 q 188 -19 288 -19 q 103 -11 142 -19 q 42 6 65 -3 q 14 18 19 15 l 14 218 l 81 218 m 229 1083 l 269 1115 q 308 1147 292 1135 q 335 1158 325 1158 q 363 1148 347 1158 q 411 1108 378 1138 q 442 1083 422 1100 l 544 999 l 499 942 l 329 1032 l 154 944 l 119 994 l 229 1083 z "},"K":{"ha":833,"x_min":76,"x_max":840,"o":"m 192 82 l 192 818 l 76 839 l 76 900 l 426 900 l 426 839 l 311 818 l 311 499 l 354 499 l 610 808 l 610 824 l 529 840 l 529 900 l 813 900 l 813 839 l 733 822 l 461 497 l 751 83 l 840 63 l 840 0 l 710 0 q 658 8 675 0 q 625 40 642 15 l 357 433 l 311 433 l 311 82 l 426 61 l 426 0 l 76 0 l 76 61 l 192 82 z "},"Ķ":{"ha":833,"x_min":76,"x_max":840,"o":"m 76 61 l 192 82 l 192 818 l 76 839 l 76 900 l 426 900 l 426 839 l 311 818 l 311 499 l 354 499 l 610 808 l 610 824 l 529 840 l 529 900 l 813 900 l 813 839 l 733 822 l 461 497 l 751 83 l 840 63 l 840 0 l 710 0 q 658 8 675 0 q 625 40 642 15 l 357 433 l 311 433 l 311 82 l 426 61 l 426 0 l 76 0 l 76 61 m 428 -260 q 446 -200 440 -224 q 451 -150 451 -176 q 415 -71 451 -104 q 446 -48 429 -56 q 478 -40 463 -40 q 528 -62 511 -40 q 544 -112 544 -83 q 528 -187 544 -154 q 491 -241 511 -219 q 471 -260 471 -262 l 428 -260 z "},"L":{"ha":726,"x_min":76,"x_max":703,"o":"m 76 60 l 192 83 l 192 817 l 76 840 l 76 900 l 438 900 l 438 835 l 311 814 l 311 88 l 447 76 l 604 76 l 635 225 l 703 225 l 703 0 l 76 0 l 76 60 z "},"Ǉ":{"ha":1282,"x_min":76,"x_max":1219,"o":"m 76 60 l 192 83 l 192 817 l 76 840 l 76 900 l 438 900 l 438 835 l 311 814 l 311 88 l 447 76 l 576 76 l 607 225 l 675 225 l 675 0 l 76 0 l 76 60 m 807 218 l 847 65 q 873 57 853 63 q 917 51 893 51 q 997 138 997 51 l 997 815 l 865 839 l 865 900 l 1219 900 l 1219 839 l 1118 818 l 1118 154 q 1066 22 1118 63 q 914 -19 1014 -19 q 830 -11 868 -19 q 769 6 792 -3 q 740 18 746 15 l 740 218 l 807 218 z "},"Ĺ":{"ha":726,"x_min":76,"x_max":703,"o":"m 181 994 l 363 1131 q 395 1152 379 1143 q 421 1161 411 1161 q 458 1136 442 1161 q 479 1065 475 1111 l 211 946 l 181 994 m 76 0 l 76 60 l 192 83 l 192 817 l 76 840 l 76 900 l 438 900 l 438 835 l 311 814 l 311 88 l 447 76 l 604 76 l 635 225 l 703 225 l 703 0 l 76 0 z "},"Ľ":{"ha":732,"x_min":82,"x_max":708,"o":"m 532 668 q 548 734 542 697 q 554 800 554 771 q 519 882 554 840 q 582 914 542 914 q 634 892 617 914 q 651 839 651 871 q 635 773 651 811 q 600 706 618 735 q 576 668 582 676 l 532 668 m 82 0 l 82 60 l 197 83 l 197 817 l 82 840 l 82 900 l 443 900 l 443 835 l 317 814 l 317 88 l 453 76 l 610 76 l 640 225 l 708 225 l 708 0 l 82 0 z "},"Ļ":{"ha":732,"x_min":82,"x_max":708,"o":"m 82 0 l 82 60 l 197 83 l 197 817 l 82 840 l 82 900 l 443 900 l 443 835 l 317 814 l 317 88 l 453 76 l 610 76 l 640 225 l 708 225 l 708 0 l 82 0 m 364 -260 q 382 -200 376 -224 q 388 -150 388 -176 q 351 -71 388 -104 q 382 -48 365 -56 q 414 -40 399 -40 q 464 -62 447 -40 q 481 -112 481 -83 q 464 -187 481 -154 q 427 -241 447 -219 q 407 -260 407 -262 l 364 -260 z "},"Ŀ":{"ha":726,"x_min":76,"x_max":703,"o":"m 76 0 m 76 60 l 192 83 l 192 817 l 76 840 l 76 900 l 438 900 l 438 835 l 311 814 l 311 88 l 447 76 l 604 76 l 635 225 l 703 225 l 703 0 l 76 0 l 76 60 m 519 410 q 462 434 483 410 q 440 497 440 458 q 465 563 440 536 q 526 590 489 590 q 584 567 563 590 q 606 506 606 544 q 583 438 606 465 q 519 410 560 410 z "},"ǈ":{"ha":1086,"x_min":76,"x_max":981,"o":"m 76 0 m 76 60 l 192 83 l 192 817 l 76 840 l 76 900 l 438 900 l 438 835 l 311 814 l 311 88 l 447 76 l 604 76 l 635 225 l 703 225 l 703 0 l 76 0 l 76 60 m 896 789 q 840 813 861 789 q 818 875 818 836 q 842 940 818 913 q 903 967 867 967 q 960 944 939 967 q 981 883 981 922 q 958 817 981 844 q 896 789 935 789 m 824 -229 q 745 -223 782 -229 q 708 -215 708 -217 l 708 -162 l 858 -126 l 858 571 l 747 590 l 747 647 l 940 686 l 972 674 l 972 -115 q 934 -199 972 -169 q 824 -229 896 -229 z "},"Ł":{"ha":726,"x_min":76,"x_max":703,"o":"m 76 60 l 192 83 l 192 376 l 96 343 l 96 425 l 192 460 l 192 817 l 76 840 l 76 900 l 438 900 l 438 835 l 311 814 l 311 503 l 499 572 l 499 485 l 311 418 l 311 88 l 447 76 l 604 76 l 635 225 l 703 225 l 703 0 l 76 0 l 76 60 z "},"M":{"ha":1229,"x_min":76,"x_max":1147,"o":"m 76 0 l 76 58 l 178 81 l 178 822 l 89 839 l 89 900 l 374 900 l 588 264 l 608 186 l 629 264 l 839 900 l 1147 900 l 1147 839 l 1032 818 l 1032 82 l 1147 61 l 1147 0 l 797 0 l 797 61 l 911 82 l 911 807 l 890 807 l 879 774 l 618 0 l 551 0 l 279 807 l 263 807 l 263 81 l 364 58 l 364 0 l 76 0 z "},"N":{"ha":1010,"x_min":76,"x_max":944,"o":"m 76 0 l 76 58 l 174 81 l 174 819 l 83 839 l 83 900 l 296 900 l 733 207 l 751 179 l 764 179 l 764 819 l 668 842 l 668 900 l 944 900 l 944 842 l 849 819 l 849 0 l 721 0 l 269 717 l 257 717 l 257 81 l 354 58 l 354 0 l 76 0 z "},"Ǌ":{"ha":1565,"x_min":76,"x_max":1503,"o":"m 76 0 m 76 0 l 76 58 l 174 81 l 174 819 l 83 839 l 83 900 l 296 900 l 733 207 l 751 179 l 764 179 l 764 819 l 668 842 l 668 900 l 944 900 l 944 842 l 849 819 l 849 0 l 721 0 l 269 717 l 257 717 l 257 81 l 354 58 l 354 0 l 76 0 m 1090 218 l 1131 65 q 1156 57 1136 63 q 1200 51 1175 51 q 1281 138 1281 51 l 1281 815 l 1149 839 l 1149 900 l 1503 900 l 1503 839 l 1401 818 l 1401 154 q 1349 22 1401 63 q 1197 -19 1297 -19 q 1113 -11 1151 -19 q 1052 6 1075 -3 q 1024 18 1029 15 l 1024 218 l 1090 218 z "},"Ń":{"ha":1010,"x_min":76,"x_max":944,"o":"m 381 994 l 563 1131 q 595 1152 579 1143 q 621 1161 611 1161 q 658 1136 642 1161 q 679 1065 675 1111 l 411 946 l 381 994 m 76 0 l 76 58 l 174 81 l 174 819 l 83 839 l 83 900 l 296 900 l 732 210 l 751 179 l 764 179 l 764 819 l 668 842 l 668 900 l 944 900 l 944 842 l 849 819 l 849 0 l 721 0 l 285 693 l 269 717 l 257 717 l 257 81 l 354 58 l 354 0 l 76 0 z "},"Ň":{"ha":1010,"x_min":76,"x_max":944,"o":"m 507 942 q 479 952 494 942 q 431 992 464 963 q 400 1017 419 1000 l 297 1101 l 343 1158 l 513 1068 l 688 1156 l 722 1106 l 613 1017 l 572 985 q 533 953 550 965 q 507 942 517 942 m 76 0 l 76 58 l 174 81 l 174 819 l 83 839 l 83 900 l 296 900 l 732 211 l 751 179 l 764 179 l 764 819 l 668 842 l 668 900 l 944 900 l 944 842 l 849 819 l 849 0 l 721 0 l 283 694 l 269 717 l 257 717 l 257 81 l 354 58 l 354 0 l 76 0 z "},"Ņ":{"ha":1010,"x_min":76,"x_max":944,"o":"m 76 0 l 76 58 l 174 81 l 174 819 l 83 839 l 83 900 l 296 900 l 733 208 l 751 179 l 764 179 l 764 819 l 668 842 l 668 900 l 944 900 l 944 842 l 849 819 l 849 0 l 721 0 l 283 694 l 269 717 l 257 717 l 257 81 l 354 58 l 354 0 l 76 0 m 468 -260 q 486 -200 481 -224 q 492 -150 492 -176 q 456 -71 492 -104 q 486 -48 469 -56 q 518 -40 503 -40 q 568 -62 551 -40 q 585 -112 585 -83 q 568 -187 585 -154 q 531 -241 551 -219 q 511 -260 511 -262 l 468 -260 z "},"Ṅ":{"ha":1010,"x_min":76,"x_max":944,"o":"m 76 0 m 76 0 l 76 58 l 174 81 l 174 819 l 83 839 l 83 900 l 296 900 l 733 207 l 751 179 l 764 179 l 764 819 l 668 842 l 668 900 l 944 900 l 944 842 l 849 819 l 849 0 l 721 0 l 269 717 l 257 717 l 257 81 l 354 58 l 354 0 l 76 0 m 501 964 q 445 988 467 964 q 424 1050 424 1011 q 448 1115 424 1088 q 508 1142 472 1142 q 565 1119 544 1142 q 586 1058 586 1097 q 563 992 586 1019 q 501 964 540 964 z "},"Ŋ":{"ha":1010,"x_min":76,"x_max":944,"o":"m 944 900 l 944 842 l 849 819 l 849 -115 q 810 -199 849 -169 q 700 -229 772 -229 q 622 -223 658 -229 q 585 -215 585 -217 l 585 -162 l 719 -131 l 719 3 l 269 717 l 257 717 l 257 81 l 354 58 l 354 0 l 76 0 l 76 58 l 174 81 l 174 819 l 83 839 l 83 900 l 296 900 l 733 207 l 751 179 l 764 179 l 764 819 l 668 842 l 668 900 l 944 900 z "},"Ɲ":{"ha":1010,"x_min":24,"x_max":944,"o":"m 124 -229 q 56 -223 88 -229 q 24 -215 24 -217 l 24 -162 l 174 -126 l 174 819 l 83 839 l 83 900 l 296 900 l 731 211 l 751 179 l 764 179 l 764 819 l 668 842 l 668 900 l 944 900 l 944 842 l 849 819 l 849 0 l 721 0 l 282 696 l 269 717 l 257 717 l 257 -115 q 223 -199 257 -169 q 124 -229 189 -229 z "},"ǋ":{"ha":1369,"x_min":76,"x_max":1264,"o":"m 76 0 m 76 0 l 76 58 l 174 81 l 174 819 l 83 839 l 83 900 l 296 900 l 733 207 l 751 179 l 764 179 l 764 819 l 668 842 l 668 900 l 944 900 l 944 842 l 849 819 l 849 0 l 721 0 l 269 717 l 257 717 l 257 81 l 354 58 l 354 0 l 76 0 m 1179 789 q 1123 813 1144 789 q 1101 875 1101 836 q 1126 940 1101 913 q 1186 967 1150 967 q 1243 944 1222 967 q 1264 883 1264 922 q 1241 817 1264 844 q 1179 789 1218 789 m 1107 -229 q 1028 -223 1065 -229 q 992 -215 992 -217 l 992 -162 l 1142 -126 l 1142 571 l 1031 590 l 1031 647 l 1224 686 l 1256 674 l 1256 -115 q 1217 -199 1256 -169 q 1107 -229 1179 -229 z "},"Ñ":{"ha":1010,"x_min":76,"x_max":944,"o":"m 622 969 q 525 990 590 969 l 415 1025 l 304 975 l 272 1011 l 324 1079 q 408 1119 353 1119 q 506 1099 440 1119 l 615 1064 l 726 1114 l 758 1078 l 707 1010 q 622 969 678 969 m 76 0 l 76 58 l 174 81 l 174 819 l 83 839 l 83 900 l 296 900 l 732 210 l 751 179 l 764 179 l 764 819 l 668 842 l 668 900 l 944 900 l 944 842 l 849 819 l 849 0 l 721 0 l 281 699 l 269 717 l 257 717 l 257 81 l 354 58 l 354 0 l 76 0 z "},"O":{"ha":967,"x_min":63,"x_max":904,"o":"m 478 -18 q 169 102 276 -18 q 63 435 63 222 q 115 679 63 569 q 269 853 168 789 q 508 917 369 917 q 721 861 632 917 q 857 705 810 806 q 904 469 904 604 q 859 219 904 329 q 718 46 814 110 q 478 -18 622 -18 m 506 61 q 702 159 640 61 q 764 443 764 257 q 730 684 764 599 q 636 801 696 769 q 489 833 576 833 q 336 808 396 833 q 240 697 276 782 q 203 443 203 613 q 278 150 203 239 q 506 61 353 61 z "},"Ó":{"ha":967,"x_min":63,"x_max":904,"o":"m 347 994 l 529 1131 q 562 1152 546 1143 q 588 1161 578 1161 q 625 1136 608 1161 q 646 1065 642 1111 l 378 946 l 347 994 m 478 -18 q 169 102 276 -18 q 63 435 63 222 q 115 679 63 569 q 269 853 168 789 q 508 917 369 917 q 721 861 632 917 q 857 705 810 806 q 904 469 904 604 q 859 219 904 329 q 718 46 814 110 q 478 -18 622 -18 m 506 61 q 702 159 640 61 q 764 443 764 257 q 730 684 764 599 q 636 801 696 769 q 489 833 576 833 q 336 808 396 833 q 240 697 276 782 q 203 443 203 613 q 278 150 203 239 q 506 61 353 61 z "},"Ŏ":{"ha":967,"x_min":63,"x_max":904,"o":"m 63 0 m 478 -18 q 169 102 276 -18 q 63 435 63 222 q 115 679 63 569 q 269 853 168 789 q 508 917 369 917 q 721 861 632 917 q 857 705 810 806 q 904 469 904 604 q 859 219 904 329 q 718 46 814 110 q 478 -18 622 -18 m 506 61 q 702 159 640 61 q 764 443 764 257 q 730 684 764 599 q 636 801 696 769 q 489 833 576 833 q 336 808 396 833 q 240 697 276 782 q 203 443 203 613 q 278 150 203 239 q 506 61 353 61 m 372 1140 q 384 1111 372 1135 q 422 1067 396 1088 q 489 1046 449 1046 q 569 1067 538 1046 q 617 1112 601 1088 q 633 1140 633 1136 l 676 1129 q 658 1078 676 1119 q 597 999 640 1036 q 485 961 554 961 q 361 997 404 961 q 303 1071 318 1033 q 289 1122 289 1108 l 372 1140 z "},"Ǒ":{"ha":967,"x_min":63,"x_max":904,"o":"m 63 0 m 478 -18 q 169 102 276 -18 q 63 435 63 222 q 115 679 63 569 q 269 853 168 789 q 508 917 369 917 q 721 861 632 917 q 857 705 810 806 q 904 469 904 604 q 859 219 904 329 q 718 46 814 110 q 478 -18 622 -18 m 506 61 q 702 159 640 61 q 764 443 764 257 q 730 684 764 599 q 636 801 696 769 q 489 833 576 833 q 336 808 396 833 q 240 697 276 782 q 203 443 203 613 q 278 150 203 239 q 506 61 353 61 m 486 1068 l 661 1156 l 696 1106 l 586 1017 l 546 985 q 507 953 524 965 q 481 942 490 942 q 453 952 468 942 q 404 992 438 963 q 374 1017 393 1000 l 271 1101 l 317 1158 l 486 1068 z "},"Ô":{"ha":967,"x_min":63,"x_max":904,"o":"m 383 1083 l 424 1115 q 463 1147 446 1135 q 489 1158 479 1158 q 517 1148 501 1158 q 565 1108 532 1138 q 596 1083 576 1100 l 699 999 l 653 942 l 483 1032 l 308 944 l 274 994 l 383 1083 m 478 -18 q 169 102 276 -18 q 63 435 63 222 q 115 679 63 569 q 269 853 168 789 q 508 917 369 917 q 721 861 632 917 q 857 705 810 806 q 904 469 904 604 q 859 219 904 329 q 718 46 814 110 q 478 -18 622 -18 m 506 61 q 702 159 640 61 q 764 443 764 257 q 730 684 764 599 q 636 801 696 769 q 489 833 576 833 q 336 808 396 833 q 240 697 276 782 q 203 443 203 613 q 278 150 203 239 q 506 61 353 61 z "},"Ố":{"ha":967,"x_min":63,"x_max":904,"o":"m 63 0 m 478 -18 q 169 102 276 -18 q 63 435 63 222 q 115 679 63 569 q 269 853 168 789 q 508 917 369 917 q 721 861 632 917 q 857 705 810 806 q 904 469 904 604 q 859 219 904 329 q 718 46 814 110 q 478 -18 622 -18 m 506 61 q 702 159 640 61 q 764 443 764 257 q 730 684 764 599 q 636 801 696 769 q 489 833 576 833 q 336 808 396 833 q 240 697 276 782 q 203 443 203 613 q 278 150 203 239 q 506 61 353 61 m 376 1083 l 417 1115 q 456 1147 439 1135 q 482 1158 472 1158 q 510 1148 494 1158 q 558 1108 525 1138 q 589 1083 569 1100 l 692 999 l 646 942 l 476 1032 l 301 944 l 267 994 l 376 1083 m 539 1172 l 721 1308 q 753 1330 738 1321 q 779 1339 769 1339 q 817 1314 800 1339 q 838 1243 833 1289 l 569 1124 l 539 1172 z "},"Ộ":{"ha":967,"x_min":63,"x_max":904,"o":"m 63 0 m 478 -18 q 169 102 276 -18 q 63 435 63 222 q 115 679 63 569 q 269 853 168 789 q 508 917 369 917 q 721 861 632 917 q 857 705 810 806 q 904 469 904 604 q 859 219 904 329 q 718 46 814 110 q 478 -18 622 -18 m 506 61 q 702 159 640 61 q 764 443 764 257 q 730 684 764 599 q 636 801 696 769 q 489 833 576 833 q 336 808 396 833 q 240 697 276 782 q 203 443 203 613 q 278 150 203 239 q 506 61 353 61 m 479 -239 q 423 -215 444 -239 q 401 -153 401 -192 q 426 -88 401 -115 q 486 -61 450 -61 q 543 -83 522 -61 q 564 -144 564 -106 q 541 -211 564 -183 q 479 -239 518 -239 m 381 1083 l 421 1115 q 460 1147 443 1135 q 486 1158 476 1158 q 514 1148 499 1158 q 563 1108 529 1138 q 593 1083 574 1100 l 696 999 l 650 942 l 481 1032 l 306 944 l 271 994 l 381 1083 z "},"Ồ":{"ha":967,"x_min":63,"x_max":904,"o":"m 63 0 m 478 -18 q 169 102 276 -18 q 63 435 63 222 q 115 679 63 569 q 269 853 168 789 q 508 917 369 917 q 721 861 632 917 q 857 705 810 806 q 904 469 904 604 q 859 219 904 329 q 718 46 814 110 q 478 -18 622 -18 m 506 61 q 702 159 640 61 q 764 443 764 257 q 730 684 764 599 q 636 801 696 769 q 489 833 576 833 q 336 808 396 833 q 240 697 276 782 q 203 443 203 613 q 278 150 203 239 q 506 61 353 61 m 379 1083 l 419 1115 q 458 1147 442 1135 q 485 1158 475 1158 q 513 1148 497 1158 q 561 1108 528 1138 q 592 1083 572 1100 l 694 999 l 649 942 l 479 1032 l 304 944 l 269 994 l 379 1083 m 472 1243 q 493 1314 476 1289 q 531 1339 510 1339 q 556 1330 540 1339 q 589 1308 572 1321 l 771 1172 l 740 1124 l 472 1243 z "},"Ổ":{"ha":967,"x_min":63,"x_max":904,"o":"m 63 0 m 478 -18 q 169 102 276 -18 q 63 435 63 222 q 115 679 63 569 q 269 853 168 789 q 508 917 369 917 q 721 861 632 917 q 857 705 810 806 q 904 469 904 604 q 859 219 904 329 q 718 46 814 110 q 478 -18 622 -18 m 506 61 q 702 159 640 61 q 764 443 764 257 q 730 684 764 599 q 636 801 696 769 q 489 833 576 833 q 336 808 396 833 q 240 697 276 782 q 203 443 203 613 q 278 150 203 239 q 506 61 353 61 m 368 1083 l 408 1115 q 447 1147 431 1135 q 474 1158 464 1158 q 501 1148 486 1158 q 550 1108 517 1138 q 581 1083 561 1100 l 683 999 l 638 942 l 468 1032 l 293 944 l 258 994 l 368 1083 m 601 1103 q 594 1128 594 1119 q 607 1156 594 1143 q 647 1178 619 1168 q 685 1199 674 1188 q 696 1225 696 1210 q 628 1253 696 1253 q 540 1242 588 1253 q 528 1286 528 1265 q 544 1317 528 1307 q 611 1328 560 1328 q 742 1303 694 1328 q 790 1231 790 1278 q 710 1139 790 1164 q 679 1124 686 1132 q 672 1103 672 1115 l 601 1103 z "},"Ỗ":{"ha":967,"x_min":63,"x_max":904,"o":"m 63 0 m 478 -18 q 169 102 276 -18 q 63 435 63 222 q 115 679 63 569 q 269 853 168 789 q 508 917 369 917 q 721 861 632 917 q 857 705 810 806 q 904 469 904 604 q 859 219 904 329 q 718 46 814 110 q 478 -18 622 -18 m 506 61 q 702 159 640 61 q 764 443 764 257 q 730 684 764 599 q 636 801 696 769 q 489 833 576 833 q 336 808 396 833 q 240 697 276 782 q 203 443 203 613 q 278 150 203 239 q 506 61 353 61 m 378 1083 l 418 1115 q 457 1147 440 1135 q 483 1158 474 1158 q 511 1148 496 1158 q 560 1108 526 1138 q 590 1083 571 1100 l 693 999 l 647 942 l 478 1032 l 303 944 l 268 994 l 378 1083 m 590 1186 q 493 1207 558 1186 l 383 1242 l 272 1192 l 240 1228 l 292 1296 q 376 1336 321 1336 q 474 1315 408 1336 l 583 1281 l 694 1331 l 726 1294 l 675 1226 q 590 1186 646 1186 z "},"Ȍ":{"ha":967,"x_min":63,"x_max":904,"o":"m 63 0 m 478 -18 q 169 102 276 -18 q 63 435 63 222 q 115 679 63 569 q 269 853 168 789 q 508 917 369 917 q 721 861 632 917 q 857 705 810 806 q 904 469 904 604 q 859 219 904 329 q 718 46 814 110 q 478 -18 622 -18 m 506 61 q 702 159 640 61 q 764 443 764 257 q 730 684 764 599 q 636 801 696 769 q 489 833 576 833 q 336 808 396 833 q 240 697 276 782 q 203 443 203 613 q 278 150 203 239 q 506 61 353 61 m 153 1081 q 180 1142 163 1121 q 217 1164 197 1164 q 248 1155 233 1164 q 282 1119 263 1146 l 392 976 l 353 939 l 153 1081 m 408 1081 q 435 1142 418 1121 q 472 1164 453 1164 q 503 1155 489 1164 q 538 1119 518 1146 l 647 976 l 608 939 l 408 1081 z "},"Ö":{"ha":967,"x_min":63,"x_max":904,"o":"m 342 963 q 290 984 310 963 q 271 1040 271 1006 q 292 1099 271 1075 q 347 1124 314 1124 q 399 1103 379 1124 q 418 1049 418 1083 q 397 988 418 1013 q 342 963 376 963 m 635 963 q 583 984 603 963 q 564 1040 564 1006 q 585 1099 564 1075 q 640 1124 607 1124 q 692 1103 672 1124 q 711 1049 711 1083 q 690 988 711 1013 q 635 963 669 963 m 478 -18 q 169 102 276 -18 q 63 435 63 222 q 115 679 63 569 q 269 853 168 789 q 508 917 369 917 q 721 861 632 917 q 857 705 810 806 q 904 469 904 604 q 859 219 904 329 q 718 46 814 110 q 478 -18 622 -18 m 506 61 q 702 159 640 61 q 764 443 764 257 q 730 684 764 599 q 636 801 696 769 q 489 833 576 833 q 336 808 396 833 q 240 697 276 782 q 203 443 203 613 q 278 150 203 239 q 506 61 353 61 z "},"Ọ":{"ha":967,"x_min":63,"x_max":904,"o":"m 63 0 m 478 -18 q 169 102 276 -18 q 63 435 63 222 q 115 679 63 569 q 269 853 168 789 q 508 917 369 917 q 721 861 632 917 q 857 705 810 806 q 904 469 904 604 q 859 219 904 329 q 718 46 814 110 q 478 -18 622 -18 m 506 61 q 702 159 640 61 q 764 443 764 257 q 730 684 764 599 q 636 801 696 769 q 489 833 576 833 q 336 808 396 833 q 240 697 276 782 q 203 443 203 613 q 278 150 203 239 q 506 61 353 61 m 479 -239 q 423 -215 444 -239 q 401 -153 401 -192 q 426 -88 401 -115 q 486 -61 450 -61 q 543 -83 522 -61 q 564 -144 564 -106 q 541 -211 564 -183 q 479 -239 518 -239 z "},"Ò":{"ha":967,"x_min":63,"x_max":904,"o":"m 331 1065 q 351 1136 335 1111 q 389 1161 368 1161 q 415 1152 399 1161 q 447 1131 431 1143 l 629 994 l 599 946 l 331 1065 m 478 -18 q 169 102 276 -18 q 63 435 63 222 q 115 679 63 569 q 269 853 168 789 q 508 917 369 917 q 721 861 632 917 q 857 705 810 806 q 904 469 904 604 q 859 219 904 329 q 718 46 814 110 q 478 -18 622 -18 m 506 61 q 702 159 640 61 q 764 443 764 257 q 730 684 764 599 q 636 801 696 769 q 489 833 576 833 q 336 808 396 833 q 240 697 276 782 q 203 443 203 613 q 278 150 203 239 q 506 61 353 61 z "},"Ỏ":{"ha":967,"x_min":63,"x_max":904,"o":"m 63 0 m 478 -18 q 169 102 276 -18 q 63 435 63 222 q 115 679 63 569 q 269 853 168 789 q 508 917 369 917 q 721 861 632 917 q 857 705 810 806 q 904 469 904 604 q 859 219 904 329 q 718 46 814 110 q 478 -18 622 -18 m 506 61 q 702 159 640 61 q 764 443 764 257 q 730 684 764 599 q 636 801 696 769 q 489 833 576 833 q 336 808 396 833 q 240 697 276 782 q 203 443 203 613 q 278 150 203 239 q 506 61 353 61 m 443 940 q 436 965 436 957 q 449 993 436 981 q 489 1015 461 1006 q 526 1036 515 1025 q 538 1063 538 1047 q 469 1090 538 1090 q 382 1079 429 1090 q 369 1124 369 1103 q 385 1155 369 1144 q 453 1165 401 1165 q 584 1140 536 1165 q 632 1068 632 1115 q 551 976 632 1001 q 521 961 528 969 q 514 940 514 953 l 443 940 z "},"Ơ":{"ha":967,"x_min":63,"x_max":1013,"o":"m 1013 908 q 976 814 1013 867 q 857 704 939 761 q 904 469 904 601 q 859 219 904 329 q 718 46 814 110 q 478 -18 622 -18 q 169 102 276 -18 q 63 435 63 222 q 115 679 63 569 q 269 853 168 789 q 508 917 369 917 q 703 871 619 917 q 838 742 788 825 q 921 872 921 810 q 914 899 921 889 q 892 919 907 908 l 892 940 l 968 994 q 1001 962 990 978 q 1013 908 1013 946 m 506 61 q 702 159 640 61 q 764 443 764 257 q 730 684 764 599 q 636 801 696 769 q 489 833 576 833 q 336 808 396 833 q 240 697 276 782 q 203 443 203 613 q 278 150 203 239 q 506 61 353 61 z "},"Ớ":{"ha":967,"x_min":63,"x_max":1013,"o":"m 63 0 m 1013 908 q 976 814 1013 867 q 857 704 939 761 q 904 469 904 601 q 859 219 904 329 q 718 46 814 110 q 478 -18 622 -18 q 169 102 276 -18 q 63 435 63 222 q 115 679 63 569 q 269 853 168 789 q 508 917 369 917 q 703 871 619 917 q 838 742 788 825 q 921 872 921 810 q 914 899 921 889 q 892 919 907 908 l 892 940 l 968 994 q 1001 962 990 978 q 1013 908 1013 946 m 506 61 q 702 159 640 61 q 764 443 764 257 q 730 684 764 599 q 636 801 696 769 q 489 833 576 833 q 336 808 396 833 q 240 697 276 782 q 203 443 203 613 q 278 150 203 239 q 506 61 353 61 m 403 994 l 585 1131 q 617 1152 601 1143 q 643 1161 633 1161 q 681 1136 664 1161 q 701 1065 697 1111 l 433 946 l 403 994 z "},"Ợ":{"ha":967,"x_min":63,"x_max":1013,"o":"m 63 0 m 1013 908 q 976 814 1013 867 q 857 704 939 761 q 904 469 904 601 q 859 219 904 329 q 718 46 814 110 q 478 -18 622 -18 q 169 102 276 -18 q 63 435 63 222 q 115 679 63 569 q 269 853 168 789 q 508 917 369 917 q 703 871 619 917 q 838 742 788 825 q 921 872 921 810 q 914 899 921 889 q 892 919 907 908 l 892 940 l 968 994 q 1001 962 990 978 q 1013 908 1013 946 m 506 61 q 702 159 640 61 q 764 443 764 257 q 730 684 764 599 q 636 801 696 769 q 489 833 576 833 q 336 808 396 833 q 240 697 276 782 q 203 443 203 613 q 278 150 203 239 q 506 61 353 61 m 479 -239 q 423 -215 444 -239 q 401 -153 401 -192 q 426 -88 401 -115 q 486 -61 450 -61 q 543 -83 522 -61 q 564 -144 564 -106 q 541 -211 564 -183 q 479 -239 518 -239 z "},"Ờ":{"ha":967,"x_min":63,"x_max":1013,"o":"m 63 0 m 1013 908 q 976 814 1013 867 q 857 704 939 761 q 904 469 904 601 q 859 219 904 329 q 718 46 814 110 q 478 -18 622 -18 q 169 102 276 -18 q 63 435 63 222 q 115 679 63 569 q 269 853 168 789 q 508 917 369 917 q 703 871 619 917 q 838 742 788 825 q 921 872 921 810 q 914 899 921 889 q 892 919 907 908 l 892 940 l 968 994 q 1001 962 990 978 q 1013 908 1013 946 m 506 61 q 702 159 640 61 q 764 443 764 257 q 730 684 764 599 q 636 801 696 769 q 489 833 576 833 q 336 808 396 833 q 240 697 276 782 q 203 443 203 613 q 278 150 203 239 q 506 61 353 61 m 285 1065 q 306 1136 289 1111 q 343 1161 322 1161 q 369 1152 353 1161 q 401 1131 385 1143 l 583 994 l 553 946 l 285 1065 z "},"Ở":{"ha":967,"x_min":63,"x_max":1013,"o":"m 63 0 m 1013 908 q 976 814 1013 867 q 857 704 939 761 q 904 469 904 601 q 859 219 904 329 q 718 46 814 110 q 478 -18 622 -18 q 169 102 276 -18 q 63 435 63 222 q 115 679 63 569 q 269 853 168 789 q 508 917 369 917 q 703 871 619 917 q 838 742 788 825 q 921 872 921 810 q 914 899 921 889 q 892 919 907 908 l 892 940 l 968 994 q 1001 962 990 978 q 1013 908 1013 946 m 506 61 q 702 159 640 61 q 764 443 764 257 q 730 684 764 599 q 636 801 696 769 q 489 833 576 833 q 336 808 396 833 q 240 697 276 782 q 203 443 203 613 q 278 150 203 239 q 506 61 353 61 m 443 940 q 436 965 436 957 q 449 993 436 981 q 489 1015 461 1006 q 526 1036 515 1025 q 538 1063 538 1047 q 469 1090 538 1090 q 382 1079 429 1090 q 369 1124 369 1103 q 385 1155 369 1144 q 453 1165 401 1165 q 584 1140 536 1165 q 632 1068 632 1115 q 551 976 632 1001 q 521 961 528 969 q 514 940 514 953 l 443 940 z "},"Ỡ":{"ha":967,"x_min":63,"x_max":1013,"o":"m 63 0 m 1013 908 q 976 814 1013 867 q 857 704 939 761 q 904 469 904 601 q 859 219 904 329 q 718 46 814 110 q 478 -18 622 -18 q 169 102 276 -18 q 63 435 63 222 q 115 679 63 569 q 269 853 168 789 q 508 917 369 917 q 703 871 619 917 q 838 742 788 825 q 921 872 921 810 q 914 899 921 889 q 892 919 907 908 l 892 940 l 968 994 q 1001 962 990 978 q 1013 908 1013 946 m 506 61 q 702 159 640 61 q 764 443 764 257 q 730 684 764 599 q 636 801 696 769 q 489 833 576 833 q 336 808 396 833 q 240 697 276 782 q 203 443 203 613 q 278 150 203 239 q 506 61 353 61 m 590 969 q 493 990 558 969 l 383 1025 l 272 975 l 240 1011 l 292 1079 q 376 1119 321 1119 q 474 1099 408 1119 l 583 1064 l 694 1114 l 726 1078 l 675 1010 q 590 969 646 969 z "},"Ő":{"ha":967,"x_min":63,"x_max":904,"o":"m 267 976 l 376 1119 q 410 1155 396 1146 q 442 1164 425 1164 q 478 1142 461 1164 q 506 1081 496 1121 l 306 939 l 267 976 m 522 976 l 632 1119 q 666 1155 651 1146 q 697 1164 681 1164 q 734 1142 717 1164 q 761 1081 751 1121 l 561 939 l 522 976 m 478 -18 q 169 102 276 -18 q 63 435 63 222 q 115 679 63 569 q 269 853 168 789 q 508 917 369 917 q 721 861 632 917 q 857 705 810 806 q 904 469 904 604 q 859 219 904 329 q 718 46 814 110 q 478 -18 622 -18 m 506 61 q 702 159 640 61 q 764 443 764 257 q 730 684 764 599 q 636 801 696 769 q 489 833 576 833 q 336 808 396 833 q 240 697 276 782 q 203 443 203 613 q 278 150 203 239 q 506 61 353 61 z "},"Ȏ":{"ha":967,"x_min":63,"x_max":904,"o":"m 63 0 m 478 -18 q 169 102 276 -18 q 63 435 63 222 q 115 679 63 569 q 269 853 168 789 q 508 917 369 917 q 721 861 632 917 q 857 705 810 806 q 904 469 904 604 q 859 219 904 329 q 718 46 814 110 q 478 -18 622 -18 m 506 61 q 702 159 640 61 q 764 443 764 257 q 730 684 764 599 q 636 801 696 769 q 489 833 576 833 q 336 808 396 833 q 240 697 276 782 q 203 443 203 613 q 278 150 203 239 q 506 61 353 61 m 593 961 q 581 990 593 967 q 543 1035 569 1014 q 476 1056 517 1056 q 396 1035 428 1056 q 348 990 364 1014 q 332 961 332 965 l 289 972 q 307 1024 289 982 q 368 1103 325 1065 q 481 1140 411 1140 q 604 1104 561 1140 q 662 1031 647 1068 q 676 979 676 993 l 593 961 z "},"Ō":{"ha":981,"x_min":69,"x_max":911,"o":"m 267 1004 l 281 1085 l 742 1085 l 728 1004 l 267 1004 m 485 -18 q 176 102 283 -18 q 69 435 69 222 q 122 679 69 569 q 276 853 175 789 q 515 917 376 917 q 728 861 639 917 q 864 705 817 806 q 911 469 911 604 q 866 219 911 329 q 725 46 821 110 q 485 -18 629 -18 m 513 61 q 709 159 647 61 q 771 443 771 257 q 737 684 771 599 q 643 801 703 769 q 496 833 583 833 q 343 808 403 833 q 247 697 283 782 q 210 443 210 613 q 285 150 210 239 q 513 61 360 61 z "},"Ǫ":{"ha":967,"x_min":63,"x_max":904,"o":"m 674 21 q 604 -37 642 1 q 567 -115 567 -75 q 626 -176 567 -176 q 706 -147 656 -176 l 731 -189 q 709 -209 731 -190 q 656 -244 688 -228 q 590 -260 625 -260 q 507 -233 539 -260 q 475 -157 475 -207 q 561 -12 475 -75 q 478 -18 508 -18 q 169 102 276 -18 q 63 435 63 222 q 115 679 63 569 q 269 853 168 789 q 508 917 369 917 q 721 861 632 917 q 857 705 810 806 q 904 469 904 604 q 847 193 904 311 q 674 21 789 75 m 203 443 q 278 150 203 239 q 506 61 353 61 q 702 159 640 61 q 764 443 764 257 q 730 684 764 599 q 636 801 696 769 q 489 833 576 833 q 336 808 396 833 q 240 697 276 782 q 203 443 203 613 z "},"Ø":{"ha":967,"x_min":63,"x_max":904,"o":"m 249 38 q 110 193 157 92 q 63 435 63 294 q 115 679 63 569 q 269 853 168 789 q 508 917 369 917 q 621 903 563 917 l 664 1000 l 747 963 l 707 869 q 853 713 801 817 q 904 469 904 608 q 859 219 904 329 q 718 46 814 110 q 478 -18 622 -18 q 335 0 404 -18 l 292 -100 l 206 -62 l 249 38 m 586 822 q 489 833 547 833 q 336 808 396 833 q 240 697 276 782 q 203 443 203 613 q 290 136 203 228 l 586 822 m 369 83 q 506 61 426 61 q 702 159 640 61 q 764 443 764 257 q 740 656 764 575 q 668 778 715 736 l 369 83 z "},"Ǿ":{"ha":967,"x_min":63,"x_max":904,"o":"m 63 0 m 249 38 q 110 193 157 92 q 63 435 63 294 q 115 679 63 569 q 269 853 168 789 q 508 917 369 917 q 621 903 563 917 l 664 1000 l 747 963 l 707 869 q 853 713 801 817 q 904 469 904 608 q 859 219 904 329 q 718 46 814 110 q 478 -18 622 -18 q 335 0 404 -18 l 292 -100 l 206 -62 l 249 38 m 586 822 q 489 833 547 833 q 336 808 396 833 q 240 697 276 782 q 203 443 203 613 q 290 136 203 228 l 586 822 m 369 83 q 506 61 426 61 q 702 159 640 61 q 764 443 764 257 q 740 656 764 575 q 668 778 715 736 l 369 83 m 354 994 l 536 1131 q 569 1152 553 1143 q 594 1161 585 1161 q 632 1136 615 1161 q 653 1065 649 1111 l 385 946 l 354 994 z "},"Õ":{"ha":967,"x_min":63,"x_max":904,"o":"m 603 969 q 506 990 571 969 l 396 1025 l 285 975 l 253 1011 l 304 1079 q 389 1119 333 1119 q 486 1099 421 1119 l 596 1064 l 707 1114 l 739 1078 l 688 1010 q 603 969 658 969 m 478 -18 q 169 102 276 -18 q 63 435 63 222 q 115 679 63 569 q 269 853 168 789 q 508 917 369 917 q 721 861 632 917 q 857 705 810 806 q 904 469 904 604 q 859 219 904 329 q 718 46 814 110 q 478 -18 622 -18 m 506 61 q 702 159 640 61 q 764 443 764 257 q 730 684 764 599 q 636 801 696 769 q 489 833 576 833 q 336 808 396 833 q 240 697 276 782 q 203 443 203 613 q 278 150 203 239 q 506 61 353 61 z "},"Œ":{"ha":1238,"x_min":63,"x_max":1168,"o":"m 500 0 q 178 101 293 0 q 63 435 63 203 q 117 674 63 568 q 275 840 172 779 q 518 900 378 900 l 1156 900 l 1156 672 l 1088 672 l 1058 824 l 890 824 l 754 815 l 754 497 l 974 497 l 994 579 l 1053 579 l 1053 342 l 994 342 l 974 424 l 754 424 l 754 93 q 822 83 781 88 q 903 79 864 79 l 1069 79 l 1100 228 l 1168 228 l 1168 0 l 500 0 m 519 69 q 635 97 593 69 l 635 803 q 581 819 613 813 q 519 825 550 825 q 358 799 425 825 q 247 689 290 772 q 203 443 203 606 q 284 158 203 247 q 519 69 365 69 z "},"P":{"ha":785,"x_min":76,"x_max":760,"o":"m 76 60 l 192 83 l 192 817 l 76 840 l 76 900 l 422 900 q 760 672 760 900 q 671 441 760 521 q 429 361 582 361 q 379 364 396 361 l 372 418 q 565 467 499 418 q 632 631 632 517 q 421 821 632 821 q 353 818 386 821 q 311 814 321 815 l 311 88 l 465 64 l 465 0 l 76 0 l 76 60 z "},"Þ":{"ha":779,"x_min":82,"x_max":744,"o":"m 82 61 l 196 82 l 196 818 l 82 839 l 82 900 l 431 900 l 431 839 l 317 818 l 317 708 l 440 708 q 670 661 596 708 q 744 496 744 614 q 665 283 744 350 q 425 217 585 217 l 317 217 l 317 82 l 431 61 l 431 0 l 82 0 l 82 61 m 400 286 q 566 326 515 286 q 617 467 617 367 q 572 593 617 557 q 432 629 526 629 l 317 629 l 317 286 l 400 286 z "},"Q":{"ha":975,"x_min":63,"x_max":967,"o":"m 542 -60 q 493 -31 518 -43 q 426 -12 468 -19 q 157 117 251 -4 q 63 442 63 238 q 119 677 63 568 q 276 851 175 786 q 508 917 378 917 q 721 863 632 917 q 857 709 810 808 q 904 476 904 610 q 878 293 904 386 q 787 122 851 200 q 615 10 722 44 l 821 -119 l 967 -119 l 967 -168 q 939 -183 961 -172 q 884 -206 917 -194 q 821 -217 851 -217 q 721 -187 765 -217 l 542 -60 m 514 63 q 702 164 640 63 q 764 450 764 265 q 729 690 764 606 q 635 804 694 774 q 489 835 575 835 q 338 809 397 835 q 240 699 278 783 q 203 450 203 615 q 283 159 203 256 q 514 63 364 63 z "},"R":{"ha":849,"x_min":76,"x_max":842,"o":"m 76 60 l 192 83 l 192 817 l 76 840 l 76 900 l 471 900 q 671 844 594 900 q 747 678 747 789 q 719 543 747 596 q 649 461 690 490 q 551 407 608 432 l 747 86 l 842 60 l 842 0 l 697 0 q 653 10 674 0 q 621 42 632 21 l 431 379 l 311 379 l 311 83 l 426 60 l 426 0 l 76 0 l 76 60 m 399 456 q 556 510 494 456 q 617 653 617 565 q 562 788 617 754 q 424 821 507 821 q 311 814 367 821 l 311 456 l 399 456 z "},"Ŕ":{"ha":849,"x_min":76,"x_max":842,"o":"m 276 994 l 458 1131 q 491 1152 475 1143 q 517 1161 507 1161 q 554 1136 538 1161 q 575 1065 571 1111 l 307 946 l 276 994 m 76 60 l 192 83 l 192 817 l 76 840 l 76 900 l 471 900 q 671 844 594 900 q 747 678 747 789 q 719 543 747 596 q 649 461 690 490 q 551 407 608 432 l 747 86 l 842 60 l 842 0 l 697 0 q 653 10 674 0 q 621 42 632 21 l 431 379 l 311 379 l 311 83 l 426 60 l 426 0 l 76 0 l 76 60 m 399 456 q 556 510 494 456 q 617 653 617 565 q 562 788 617 754 q 424 821 507 821 q 311 814 367 821 l 311 456 l 399 456 z "},"Ř":{"ha":849,"x_min":76,"x_max":842,"o":"m 418 942 q 390 952 406 942 q 342 992 375 963 q 311 1017 331 1000 l 208 1101 l 254 1158 l 424 1068 l 599 1156 l 633 1106 l 524 1017 l 483 985 q 444 953 461 965 q 418 942 428 942 m 76 60 l 192 83 l 192 817 l 76 840 l 76 900 l 471 900 q 671 844 594 900 q 747 678 747 789 q 719 543 747 596 q 649 461 690 490 q 551 407 608 432 l 747 86 l 842 60 l 842 0 l 697 0 q 653 10 674 0 q 621 42 632 21 l 431 379 l 311 379 l 311 83 l 426 60 l 426 0 l 76 0 l 76 60 m 399 456 q 556 510 494 456 q 617 653 617 565 q 562 788 617 754 q 424 821 507 821 q 311 814 367 821 l 311 456 l 399 456 z "},"Ŗ":{"ha":849,"x_min":76,"x_max":842,"o":"m 76 60 l 192 83 l 192 817 l 76 840 l 76 900 l 471 900 q 671 844 594 900 q 747 678 747 789 q 719 543 747 596 q 649 461 690 490 q 551 407 608 432 l 747 86 l 842 60 l 842 0 l 697 0 q 653 10 674 0 q 621 42 632 21 l 431 379 l 311 379 l 311 83 l 426 60 l 426 0 l 76 0 l 76 60 m 399 456 q 556 510 494 456 q 617 653 617 565 q 562 788 617 754 q 424 821 507 821 q 311 814 367 821 l 311 456 l 399 456 m 401 -260 q 419 -200 414 -224 q 425 -150 425 -176 q 389 -71 425 -104 q 419 -48 403 -56 q 451 -40 436 -40 q 501 -62 485 -40 q 518 -112 518 -83 q 501 -187 518 -154 q 465 -241 485 -219 q 444 -260 444 -262 l 401 -260 z "},"Ȑ":{"ha":849,"x_min":76,"x_max":842,"o":"m 76 0 m 76 60 l 192 83 l 192 817 l 76 840 l 76 900 l 471 900 q 671 844 594 900 q 747 678 747 789 q 719 543 747 596 q 649 461 690 490 q 551 407 608 432 l 747 86 l 842 60 l 842 0 l 697 0 q 653 10 674 0 q 621 42 632 21 l 431 379 l 311 379 l 311 83 l 426 60 l 426 0 l 76 0 l 76 60 m 399 456 q 556 510 494 456 q 617 653 617 565 q 562 788 617 754 q 424 821 507 821 q 311 814 367 821 l 311 456 l 399 456 m 94 1081 q 122 1142 104 1121 q 158 1164 139 1164 q 190 1155 175 1164 q 224 1119 204 1146 l 333 976 l 294 939 l 94 1081 m 350 1081 q 377 1142 360 1121 q 414 1164 394 1164 q 445 1155 431 1164 q 479 1119 460 1146 l 589 976 l 550 939 l 350 1081 z "},"Ṛ":{"ha":849,"x_min":76,"x_max":842,"o":"m 76 0 m 76 60 l 192 83 l 192 817 l 76 840 l 76 900 l 471 900 q 671 844 594 900 q 747 678 747 789 q 719 543 747 596 q 649 461 690 490 q 551 407 608 432 l 747 86 l 842 60 l 842 0 l 697 0 q 653 10 674 0 q 621 42 632 21 l 431 379 l 311 379 l 311 83 l 426 60 l 426 0 l 76 0 l 76 60 m 399 456 q 556 510 494 456 q 617 653 617 565 q 562 788 617 754 q 424 821 507 821 q 311 814 367 821 l 311 456 l 399 456 m 465 -239 q 409 -215 431 -239 q 388 -153 388 -192 q 412 -88 388 -115 q 472 -61 436 -61 q 529 -83 508 -61 q 550 -144 550 -106 q 527 -211 550 -183 q 465 -239 504 -239 z "},"Ȓ":{"ha":849,"x_min":76,"x_max":842,"o":"m 76 0 m 76 60 l 192 83 l 192 817 l 76 840 l 76 900 l 471 900 q 671 844 594 900 q 747 678 747 789 q 719 543 747 596 q 649 461 690 490 q 551 407 608 432 l 747 86 l 842 60 l 842 0 l 697 0 q 653 10 674 0 q 621 42 632 21 l 431 379 l 311 379 l 311 83 l 426 60 l 426 0 l 76 0 l 76 60 m 399 456 q 556 510 494 456 q 617 653 617 565 q 562 788 617 754 q 424 821 507 821 q 311 814 367 821 l 311 456 l 399 456 m 535 961 q 523 990 535 967 q 485 1035 511 1014 q 418 1056 458 1056 q 338 1035 369 1056 q 290 990 306 1014 q 274 961 274 965 l 231 972 q 249 1024 231 982 q 310 1103 267 1065 q 422 1140 353 1140 q 546 1104 503 1140 q 603 1031 589 1068 q 618 979 618 993 l 535 961 z "},"S":{"ha":714,"x_min":81,"x_max":651,"o":"m 347 -14 q 191 9 268 -14 q 81 61 114 32 l 81 260 l 156 260 l 176 121 q 253 83 207 99 q 339 67 300 67 q 488 101 443 67 q 532 225 532 136 q 507 306 532 274 q 444 360 482 339 q 344 403 406 381 q 205 460 254 435 q 119 533 156 485 q 82 663 82 582 q 163 847 82 778 q 379 917 243 917 q 515 905 443 917 q 614 882 588 893 l 614 672 l 546 672 l 519 803 q 496 813 515 806 q 444 828 476 821 q 375 835 413 835 q 240 800 276 835 q 203 701 203 765 q 233 615 203 649 q 301 564 263 582 q 424 514 340 546 q 542 459 494 488 q 620 381 589 431 q 651 256 651 331 q 607 102 651 163 q 493 14 563 42 q 347 -14 424 -14 z "},"Ś":{"ha":714,"x_min":81,"x_max":651,"o":"m 246 994 l 428 1131 q 460 1152 444 1143 q 486 1161 476 1161 q 524 1136 507 1161 q 544 1065 540 1111 l 276 946 l 246 994 m 347 -14 q 191 9 268 -14 q 81 61 114 32 l 81 260 l 156 260 l 176 121 q 253 83 207 99 q 339 67 300 67 q 488 101 443 67 q 532 225 532 136 q 507 306 532 274 q 444 360 482 339 q 344 403 406 381 q 205 460 254 435 q 119 533 156 485 q 82 663 82 582 q 163 847 82 778 q 379 917 243 917 q 515 905 443 917 q 614 882 588 893 l 614 672 l 546 672 l 519 803 q 496 813 515 806 q 444 828 476 821 q 375 835 413 835 q 240 800 276 835 q 203 701 203 765 q 233 615 203 649 q 301 564 263 582 q 424 514 340 546 q 542 459 494 488 q 620 381 589 431 q 651 256 651 331 q 607 102 651 163 q 493 14 563 42 q 347 -14 424 -14 z "},"Ꞌ":{"ha":175,"x_min":26,"x_max":149,"o":"m 26 493 m 26 897 q 100 915 68 915 q 140 900 131 915 q 149 863 149 885 q 132 738 149 819 l 82 493 l 26 493 l 26 897 z "},"Š":{"ha":714,"x_min":81,"x_max":651,"o":"m 360 942 q 332 952 347 942 q 283 992 317 963 q 253 1017 272 1000 l 150 1101 l 196 1158 l 365 1068 l 540 1156 l 575 1106 l 465 1017 l 425 985 q 386 953 403 965 q 360 942 369 942 m 347 -14 q 191 9 268 -14 q 81 61 114 32 l 81 260 l 156 260 l 176 121 q 253 83 207 99 q 339 67 300 67 q 488 101 443 67 q 532 225 532 136 q 507 306 532 274 q 444 360 482 339 q 344 403 406 381 q 205 460 254 435 q 119 533 156 485 q 82 663 82 582 q 163 847 82 778 q 379 917 243 917 q 515 905 443 917 q 614 882 588 893 l 614 672 l 546 672 l 519 803 q 496 813 515 806 q 444 828 476 821 q 375 835 413 835 q 240 800 276 835 q 203 701 203 765 q 233 615 203 649 q 301 564 263 582 q 424 514 340 546 q 542 459 494 488 q 620 381 589 431 q 651 256 651 331 q 607 102 651 163 q 493 14 563 42 q 347 -14 424 -14 z "},"Ş":{"ha":714,"x_min":81,"x_max":651,"o":"m 335 -260 q 281 -254 304 -260 q 232 -237 258 -249 l 254 -186 q 329 -201 293 -201 q 411 -160 411 -201 q 401 -131 411 -139 q 368 -119 392 -124 l 317 -108 l 290 -82 l 319 -12 q 177 13 244 -8 q 81 61 110 35 l 81 260 l 156 260 l 176 121 q 253 83 207 99 q 339 67 300 67 q 486 101 440 67 q 532 225 532 135 q 486 331 532 294 q 353 400 440 368 q 206 459 254 436 q 120 531 158 482 q 82 663 82 581 q 163 847 82 778 q 379 917 243 917 q 515 905 443 917 q 614 882 588 893 l 614 672 l 546 672 l 519 803 q 453 826 494 817 q 375 835 413 835 q 240 800 276 835 q 203 701 203 765 q 230 619 203 651 q 297 567 257 586 q 408 521 336 547 q 534 464 485 492 q 617 385 583 436 q 651 256 651 335 q 573 64 651 131 q 382 -12 494 -3 l 382 -40 l 406 -46 q 481 -75 456 -58 q 506 -133 506 -92 q 456 -230 506 -200 q 335 -260 407 -260 z "},"Ŝ":{"ha":714,"x_min":81,"x_max":651,"o":"m 81 0 m 347 -14 q 191 9 268 -14 q 81 61 114 32 l 81 260 l 156 260 l 176 121 q 253 83 207 99 q 339 67 300 67 q 488 101 443 67 q 532 225 532 136 q 507 306 532 274 q 444 360 482 339 q 344 403 406 381 q 205 460 254 435 q 119 533 156 485 q 82 663 82 582 q 163 847 82 778 q 379 917 243 917 q 515 905 443 917 q 614 882 588 893 l 614 672 l 546 672 l 519 803 q 496 813 515 806 q 444 828 476 821 q 375 835 413 835 q 240 800 276 835 q 203 701 203 765 q 233 615 203 649 q 301 564 263 582 q 424 514 340 546 q 542 459 494 488 q 620 381 589 431 q 651 256 651 331 q 607 102 651 163 q 493 14 563 42 q 347 -14 424 -14 m 254 1083 l 294 1115 q 333 1147 317 1135 q 360 1158 350 1158 q 388 1148 372 1158 q 436 1108 403 1138 q 467 1083 447 1100 l 569 999 l 524 942 l 354 1032 l 179 944 l 144 994 l 254 1083 z "},"Ș":{"ha":714,"x_min":81,"x_max":651,"o":"m 347 -14 q 191 9 268 -14 q 81 61 114 32 l 81 260 l 156 260 l 176 121 q 253 83 207 99 q 339 67 300 67 q 488 101 443 67 q 532 225 532 136 q 485 333 532 296 q 347 401 439 369 q 205 460 253 436 q 119 533 157 483 q 82 663 82 582 q 163 847 82 778 q 379 917 243 917 q 515 905 443 917 q 614 882 588 893 l 614 672 l 546 672 l 519 803 q 453 826 494 817 q 375 835 413 835 q 240 800 276 835 q 203 701 203 765 q 231 618 203 651 q 298 565 258 585 q 411 518 338 546 q 536 461 488 489 q 618 383 585 433 q 651 256 651 333 q 607 102 651 163 q 493 14 563 42 q 347 -14 424 -14 m 313 -260 q 331 -200 325 -224 q 336 -150 336 -176 q 300 -71 336 -104 q 331 -48 314 -56 q 363 -40 347 -40 q 413 -62 396 -40 q 429 -112 429 -83 q 413 -187 429 -154 q 376 -241 396 -219 q 356 -260 356 -262 l 313 -260 z "},"Ṣ":{"ha":714,"x_min":81,"x_max":651,"o":"m 81 0 m 347 -14 q 191 9 268 -14 q 81 61 114 32 l 81 260 l 156 260 l 176 121 q 253 83 207 99 q 339 67 300 67 q 488 101 443 67 q 532 225 532 136 q 507 306 532 274 q 444 360 482 339 q 344 403 406 381 q 205 460 254 435 q 119 533 156 485 q 82 663 82 582 q 163 847 82 778 q 379 917 243 917 q 515 905 443 917 q 614 882 588 893 l 614 672 l 546 672 l 519 803 q 496 813 515 806 q 444 828 476 821 q 375 835 413 835 q 240 800 276 835 q 203 701 203 765 q 233 615 203 649 q 301 564 263 582 q 424 514 340 546 q 542 459 494 488 q 620 381 589 431 q 651 256 651 331 q 607 102 651 163 q 493 14 563 42 q 347 -14 424 -14 m 353 -239 q 297 -215 318 -239 q 275 -153 275 -192 q 299 -88 275 -115 q 360 -61 324 -61 q 417 -83 396 -61 q 438 -144 438 -106 q 415 -211 438 -183 q 353 -239 392 -239 z "},"ẞ":{"ha":1022,"x_min":63,"x_max":960,"o":"m 701 -14 q 586 5 647 -14 q 500 47 525 24 l 500 246 l 575 246 l 596 107 q 642 79 613 92 q 711 67 671 67 q 808 106 776 67 q 840 214 840 146 q 597 403 840 403 l 531 403 l 531 485 l 738 789 l 738 813 q 569 835 653 835 q 358 753 419 835 q 296 514 296 671 l 296 82 l 411 61 l 411 0 l 63 0 l 63 61 l 176 82 l 176 475 q 281 799 176 682 q 597 917 386 917 q 738 907 658 917 q 890 878 818 897 l 890 792 l 683 501 l 683 488 q 881 425 803 483 q 960 246 960 367 q 923 106 960 164 q 826 17 886 47 q 701 -14 767 -14 z "},"Ə":{"ha":924,"x_min":63,"x_max":861,"o":"m 456 -18 q 165 102 267 -18 q 63 431 63 222 q 65 500 63 458 l 719 500 q 636 747 711 656 q 435 839 561 839 q 331 828 374 839 q 265 803 288 817 q 242 788 242 790 l 214 646 l 146 646 l 146 857 q 275 901 210 885 q 451 917 340 917 q 861 463 861 917 q 818 218 861 326 q 684 46 775 110 q 456 -18 593 -18 m 471 61 q 660 149 601 61 q 721 424 718 238 l 203 424 q 274 149 206 236 q 471 61 343 61 z "},"T":{"ha":751,"x_min":21,"x_max":731,"o":"m 201 61 l 315 82 l 315 819 l 118 819 l 89 672 l 21 672 l 21 900 l 731 900 l 731 672 l 663 672 l 635 819 l 436 819 l 436 82 l 550 61 l 550 0 l 201 0 l 201 61 z "},"Ŧ":{"ha":751,"x_min":21,"x_max":731,"o":"m 635 819 l 436 819 l 436 503 l 682 503 l 682 424 l 436 424 l 436 82 l 550 61 l 550 0 l 201 0 l 201 61 l 315 82 l 315 424 l 69 424 l 69 503 l 315 503 l 315 819 l 118 819 l 89 672 l 21 672 l 21 900 l 731 900 l 731 672 l 663 672 l 635 819 z "},"Ť":{"ha":751,"x_min":21,"x_max":731,"o":"m 375 1068 l 550 1156 l 585 1106 l 475 1017 l 435 985 q 396 953 413 965 q 369 942 379 942 q 342 952 357 942 q 293 992 326 963 q 263 1017 282 1000 l 160 1101 l 206 1158 l 375 1068 m 201 61 l 315 82 l 315 819 l 118 819 l 89 672 l 21 672 l 21 900 l 731 900 l 731 672 l 663 672 l 635 819 l 436 819 l 436 82 l 550 61 l 550 0 l 201 0 l 201 61 z "},"Ţ":{"ha":751,"x_min":21,"x_max":731,"o":"m 360 -260 q 306 -254 329 -260 q 257 -237 283 -249 l 279 -186 q 354 -201 318 -201 q 436 -160 436 -201 q 426 -131 436 -139 q 393 -119 417 -124 l 342 -108 l 315 -82 l 350 0 l 201 0 l 201 61 l 315 82 l 315 819 l 118 819 l 89 672 l 21 672 l 21 900 l 731 900 l 731 672 l 663 672 l 635 819 l 436 819 l 436 82 l 550 61 l 550 0 l 407 0 l 407 -40 l 431 -46 q 506 -75 481 -58 q 531 -133 531 -92 q 481 -230 531 -200 q 360 -260 432 -260 z "},"Ț":{"ha":751,"x_min":21,"x_max":731,"o":"m 201 0 l 201 61 l 315 82 l 315 819 l 118 819 l 89 672 l 21 672 l 21 900 l 731 900 l 731 672 l 663 672 l 635 819 l 436 819 l 436 82 l 550 61 l 550 0 l 201 0 m 325 -260 q 343 -200 338 -224 q 349 -150 349 -176 q 313 -71 349 -104 q 343 -48 326 -56 q 375 -40 360 -40 q 425 -62 408 -40 q 442 -112 442 -83 q 425 -187 442 -154 q 388 -241 408 -219 q 368 -260 368 -262 l 325 -260 z "},"Ṭ":{"ha":751,"x_min":21,"x_max":731,"o":"m 21 0 m 201 61 l 315 82 l 315 819 l 118 819 l 89 672 l 21 672 l 21 900 l 731 900 l 731 672 l 663 672 l 635 819 l 436 819 l 436 82 l 550 61 l 550 0 l 201 0 l 201 61 m 372 -239 q 316 -215 338 -239 q 294 -153 294 -192 q 319 -88 294 -115 q 379 -61 343 -61 q 436 -83 415 -61 q 457 -144 457 -106 q 434 -211 457 -183 q 372 -239 411 -239 z "},"U":{"ha":1017,"x_min":63,"x_max":968,"o":"m 63 839 l 63 900 l 411 900 l 411 839 l 297 818 l 297 386 q 317 194 297 260 q 390 101 338 128 q 542 74 442 74 q 715 149 667 74 q 764 386 764 225 l 764 815 l 650 838 l 650 900 l 968 900 l 968 838 l 854 815 l 854 386 q 824 159 854 246 q 717 27 794 72 q 499 -18 640 -18 q 300 26 369 -18 q 203 157 231 71 q 176 386 176 243 l 176 818 l 63 839 z "},"Ú":{"ha":1017,"x_min":63,"x_max":968,"o":"m 413 994 l 594 1131 q 627 1152 611 1143 q 653 1161 643 1161 q 690 1136 674 1161 q 711 1065 707 1111 l 443 946 l 413 994 m 499 -18 q 300 26 369 -18 q 203 157 231 71 q 176 386 176 243 l 176 818 l 63 839 l 63 900 l 411 900 l 411 839 l 297 818 l 297 386 q 317 194 297 260 q 390 101 338 128 q 542 74 442 74 q 715 149 667 74 q 764 386 764 225 l 764 815 l 650 838 l 650 900 l 968 900 l 968 838 l 854 815 l 854 386 q 824 159 854 246 q 717 27 794 72 q 499 -18 640 -18 z "},"Ŭ":{"ha":1017,"x_min":63,"x_max":968,"o":"m 63 0 m 63 839 l 63 900 l 411 900 l 411 839 l 297 818 l 297 386 q 317 194 297 260 q 390 101 338 128 q 542 74 442 74 q 715 149 667 74 q 764 386 764 225 l 764 815 l 650 838 l 650 900 l 968 900 l 968 838 l 854 815 l 854 386 q 824 159 854 246 q 717 27 794 72 q 499 -18 640 -18 q 300 26 369 -18 q 203 157 231 71 q 176 386 176 243 l 176 818 l 63 839 m 397 1140 q 409 1111 397 1135 q 447 1067 421 1088 q 514 1046 474 1046 q 594 1067 563 1046 q 642 1112 626 1088 q 658 1140 658 1136 l 701 1129 q 683 1078 701 1119 q 622 999 665 1036 q 510 961 579 961 q 386 997 429 961 q 328 1071 343 1033 q 314 1122 314 1108 l 397 1140 z "},"Ǔ":{"ha":1017,"x_min":63,"x_max":968,"o":"m 63 0 m 63 839 l 63 900 l 411 900 l 411 839 l 297 818 l 297 386 q 317 194 297 260 q 390 101 338 128 q 542 74 442 74 q 715 149 667 74 q 764 386 764 225 l 764 815 l 650 838 l 650 900 l 968 900 l 968 838 l 854 815 l 854 386 q 824 159 854 246 q 717 27 794 72 q 499 -18 640 -18 q 300 26 369 -18 q 203 157 231 71 q 176 386 176 243 l 176 818 l 63 839 m 511 1068 l 686 1156 l 721 1106 l 611 1017 l 571 985 q 532 953 549 965 q 506 942 515 942 q 478 952 493 942 q 429 992 463 963 q 399 1017 418 1000 l 296 1101 l 342 1158 l 511 1068 z "},"Û":{"ha":1017,"x_min":63,"x_max":968,"o":"m 424 1083 l 464 1115 q 503 1147 486 1135 q 529 1158 519 1158 q 557 1148 542 1158 q 606 1108 572 1138 q 636 1083 617 1100 l 739 999 l 693 942 l 524 1032 l 349 944 l 314 994 l 424 1083 m 63 839 l 63 900 l 411 900 l 411 839 l 297 818 l 297 386 q 317 194 297 260 q 390 101 338 128 q 542 74 442 74 q 715 149 667 74 q 764 386 764 225 l 764 815 l 650 838 l 650 900 l 968 900 l 968 838 l 854 815 l 854 386 q 824 159 854 246 q 717 27 794 72 q 499 -18 640 -18 q 300 26 369 -18 q 203 157 231 71 q 176 386 176 243 l 176 818 l 63 839 z "},"Ȕ":{"ha":1017,"x_min":63,"x_max":968,"o":"m 63 0 m 63 839 l 63 900 l 411 900 l 411 839 l 297 818 l 297 386 q 317 194 297 260 q 390 101 338 128 q 542 74 442 74 q 715 149 667 74 q 764 386 764 225 l 764 815 l 650 838 l 650 900 l 968 900 l 968 838 l 854 815 l 854 386 q 824 159 854 246 q 717 27 794 72 q 499 -18 640 -18 q 300 26 369 -18 q 203 157 231 71 q 176 386 176 243 l 176 818 l 63 839 m 178 1081 q 205 1142 188 1121 q 242 1164 222 1164 q 273 1155 258 1164 q 307 1119 288 1146 l 417 976 l 378 939 l 178 1081 m 433 1081 q 460 1142 443 1121 q 497 1164 478 1164 q 528 1155 514 1164 q 563 1119 543 1146 l 672 976 l 633 939 l 433 1081 z "},"Ü":{"ha":1017,"x_min":63,"x_max":968,"o":"m 383 976 q 332 998 351 976 q 313 1054 313 1019 q 334 1113 313 1089 q 389 1138 356 1138 q 440 1117 421 1138 q 460 1063 460 1097 q 439 1001 460 1026 q 383 976 418 976 m 676 976 q 625 998 644 976 q 606 1054 606 1019 q 627 1113 606 1089 q 682 1138 649 1138 q 733 1117 714 1138 q 753 1063 753 1097 q 732 1001 753 1026 q 676 976 711 976 m 499 -18 q 300 26 369 -18 q 203 157 231 71 q 176 386 176 243 l 176 818 l 63 839 l 63 900 l 411 900 l 411 839 l 297 818 l 297 386 q 317 194 297 260 q 390 101 338 128 q 542 74 442 74 q 715 149 667 74 q 764 386 764 225 l 764 815 l 650 838 l 650 900 l 968 900 l 968 838 l 854 815 l 854 386 q 824 159 854 246 q 717 27 794 72 q 499 -18 640 -18 z "},"Ǘ":{"ha":1017,"x_min":63,"x_max":968,"o":"m 63 0 m 63 839 l 63 900 l 411 900 l 411 839 l 297 818 l 297 386 q 317 194 297 260 q 390 101 338 128 q 542 74 442 74 q 715 149 667 74 q 764 386 764 225 l 764 815 l 650 838 l 650 900 l 968 900 l 968 838 l 854 815 l 854 386 q 824 159 854 246 q 717 27 794 72 q 499 -18 640 -18 q 300 26 369 -18 q 203 157 231 71 q 176 386 176 243 l 176 818 l 63 839 m 358 953 q 307 974 326 953 q 288 1031 288 996 q 309 1090 288 1065 q 364 1114 331 1114 q 415 1094 396 1114 q 435 1039 435 1074 q 414 978 435 1003 q 358 953 393 953 m 651 953 q 600 974 619 953 q 581 1031 581 996 q 602 1090 581 1065 q 657 1114 624 1114 q 708 1094 689 1114 q 728 1039 728 1074 q 707 978 728 1003 q 651 953 686 953 m 431 1208 l 613 1344 q 645 1366 629 1357 q 671 1375 661 1375 q 708 1350 692 1375 q 729 1279 725 1325 l 461 1160 l 431 1208 z "},"Ǚ":{"ha":1017,"x_min":63,"x_max":968,"o":"m 63 0 m 63 839 l 63 900 l 411 900 l 411 839 l 297 818 l 297 386 q 317 194 297 260 q 390 101 338 128 q 542 74 442 74 q 715 149 667 74 q 764 386 764 225 l 764 815 l 650 838 l 650 900 l 968 900 l 968 838 l 854 815 l 854 386 q 824 159 854 246 q 717 27 794 72 q 499 -18 640 -18 q 300 26 369 -18 q 203 157 231 71 q 176 386 176 243 l 176 818 l 63 839 m 358 953 q 307 974 326 953 q 288 1031 288 996 q 309 1090 288 1065 q 364 1114 331 1114 q 415 1094 396 1114 q 435 1039 435 1074 q 414 978 435 1003 q 358 953 393 953 m 651 953 q 600 974 619 953 q 581 1031 581 996 q 602 1090 581 1065 q 657 1114 624 1114 q 708 1094 689 1114 q 728 1039 728 1074 q 707 978 728 1003 q 651 953 686 953 m 514 1282 l 689 1369 l 724 1319 l 614 1231 l 574 1199 q 535 1167 551 1179 q 508 1156 518 1156 q 481 1166 496 1156 q 432 1206 465 1176 q 401 1231 421 1214 l 299 1315 l 344 1372 l 514 1282 z "},"Ǜ":{"ha":1017,"x_min":63,"x_max":968,"o":"m 63 0 m 63 839 l 63 900 l 411 900 l 411 839 l 297 818 l 297 386 q 317 194 297 260 q 390 101 338 128 q 542 74 442 74 q 715 149 667 74 q 764 386 764 225 l 764 815 l 650 838 l 650 900 l 968 900 l 968 838 l 854 815 l 854 386 q 824 159 854 246 q 717 27 794 72 q 499 -18 640 -18 q 300 26 369 -18 q 203 157 231 71 q 176 386 176 243 l 176 818 l 63 839 m 358 953 q 307 974 326 953 q 288 1031 288 996 q 309 1090 288 1065 q 364 1114 331 1114 q 415 1094 396 1114 q 435 1039 435 1074 q 414 978 435 1003 q 358 953 393 953 m 651 953 q 600 974 619 953 q 581 1031 581 996 q 602 1090 581 1065 q 657 1114 624 1114 q 708 1094 689 1114 q 728 1039 728 1074 q 707 978 728 1003 q 651 953 686 953 m 313 1279 q 333 1350 317 1325 q 371 1375 350 1375 q 397 1366 381 1375 q 429 1344 413 1357 l 611 1208 l 581 1160 l 313 1279 z "},"Ǖ":{"ha":1017,"x_min":63,"x_max":968,"o":"m 63 0 m 63 839 l 63 900 l 411 900 l 411 839 l 297 818 l 297 386 q 317 194 297 260 q 390 101 338 128 q 542 74 442 74 q 715 149 667 74 q 764 386 764 225 l 764 815 l 650 838 l 650 900 l 968 900 l 968 838 l 854 815 l 854 386 q 824 159 854 246 q 717 27 794 72 q 499 -18 640 -18 q 300 26 369 -18 q 203 157 231 71 q 176 386 176 243 l 176 818 l 63 839 m 358 953 q 307 974 326 953 q 288 1031 288 996 q 309 1090 288 1065 q 364 1114 331 1114 q 415 1094 396 1114 q 435 1039 435 1074 q 414 978 435 1003 q 358 953 393 953 m 651 953 q 600 974 619 953 q 581 1031 581 996 q 602 1090 581 1065 q 657 1114 624 1114 q 708 1094 689 1114 q 728 1039 728 1074 q 707 978 728 1003 q 651 953 686 953 m 288 1299 l 749 1299 l 735 1218 l 274 1218 l 288 1299 z "},"Ụ":{"ha":1017,"x_min":63,"x_max":968,"o":"m 63 0 m 63 839 l 63 900 l 411 900 l 411 839 l 297 818 l 297 386 q 317 194 297 260 q 390 101 338 128 q 542 74 442 74 q 715 149 667 74 q 764 386 764 225 l 764 815 l 650 838 l 650 900 l 968 900 l 968 838 l 854 815 l 854 386 q 824 159 854 246 q 717 27 794 72 q 499 -18 640 -18 q 300 26 369 -18 q 203 157 231 71 q 176 386 176 243 l 176 818 l 63 839 m 504 -239 q 448 -215 469 -239 q 426 -153 426 -192 q 451 -88 426 -115 q 511 -61 475 -61 q 568 -83 547 -61 q 589 -144 589 -106 q 566 -211 589 -183 q 504 -239 543 -239 z "},"Ù":{"ha":1017,"x_min":63,"x_max":968,"o":"m 340 1065 q 361 1136 344 1111 q 399 1161 378 1161 q 424 1152 408 1161 q 457 1131 440 1143 l 639 994 l 608 946 l 340 1065 m 499 -18 q 300 26 369 -18 q 203 157 231 71 q 176 386 176 243 l 176 818 l 63 839 l 63 900 l 411 900 l 411 839 l 297 818 l 297 386 q 317 194 297 260 q 390 101 338 128 q 542 74 442 74 q 715 149 667 74 q 764 386 764 225 l 764 815 l 650 838 l 650 900 l 968 900 l 968 838 l 854 815 l 854 386 q 824 159 854 246 q 717 27 794 72 q 499 -18 640 -18 z "},"Ủ":{"ha":1017,"x_min":63,"x_max":968,"o":"m 63 0 m 63 839 l 63 900 l 411 900 l 411 839 l 297 818 l 297 386 q 317 194 297 260 q 390 101 338 128 q 542 74 442 74 q 715 149 667 74 q 764 386 764 225 l 764 815 l 650 838 l 650 900 l 968 900 l 968 838 l 854 815 l 854 386 q 824 159 854 246 q 717 27 794 72 q 499 -18 640 -18 q 300 26 369 -18 q 203 157 231 71 q 176 386 176 243 l 176 818 l 63 839 m 468 940 q 461 965 461 957 q 474 993 461 981 q 514 1015 486 1006 q 551 1036 540 1025 q 563 1063 563 1047 q 494 1090 563 1090 q 407 1079 454 1090 q 394 1124 394 1103 q 410 1155 394 1144 q 478 1165 426 1165 q 609 1140 561 1165 q 657 1068 657 1115 q 576 976 657 1001 q 546 961 553 969 q 539 940 539 953 l 468 940 z "},"Ư":{"ha":1017,"x_min":63,"x_max":1097,"o":"m 499 -18 q 300 26 369 -18 q 203 157 231 71 q 176 386 176 243 l 176 818 l 63 839 l 63 900 l 411 900 l 411 839 l 297 818 l 297 386 q 317 194 297 260 q 390 101 338 128 q 542 74 442 74 q 715 149 667 74 q 764 386 764 225 l 764 815 l 650 838 l 650 900 l 918 900 q 985 912 964 900 q 1006 956 1006 924 q 999 982 1006 972 q 976 1003 992 992 l 976 1024 l 1053 1078 q 1086 1045 1075 1061 q 1097 992 1097 1029 q 1076 933 1097 967 q 1000 867 1054 900 q 854 811 946 833 l 854 386 q 824 159 854 246 q 717 27 794 72 q 499 -18 640 -18 z "},"Ứ":{"ha":1017,"x_min":63,"x_max":1097,"o":"m 63 0 m 499 -18 q 300 26 369 -18 q 203 157 231 71 q 176 386 176 243 l 176 818 l 63 839 l 63 900 l 411 900 l 411 839 l 297 818 l 297 386 q 317 194 297 260 q 390 101 338 128 q 542 74 442 74 q 715 149 667 74 q 764 386 764 225 l 764 815 l 650 838 l 650 900 l 918 900 q 985 912 964 900 q 1006 956 1006 924 q 999 982 1006 972 q 976 1003 992 992 l 976 1024 l 1053 1078 q 1086 1045 1075 1061 q 1097 992 1097 1029 q 1076 933 1097 967 q 1000 867 1054 900 q 854 811 946 833 l 854 386 q 824 159 854 246 q 717 27 794 72 q 499 -18 640 -18 m 428 994 l 610 1131 q 642 1152 626 1143 q 668 1161 658 1161 q 706 1136 689 1161 q 726 1065 722 1111 l 458 946 l 428 994 z "},"Ự":{"ha":1017,"x_min":63,"x_max":1097,"o":"m 63 0 m 499 -18 q 300 26 369 -18 q 203 157 231 71 q 176 386 176 243 l 176 818 l 63 839 l 63 900 l 411 900 l 411 839 l 297 818 l 297 386 q 317 194 297 260 q 390 101 338 128 q 542 74 442 74 q 715 149 667 74 q 764 386 764 225 l 764 815 l 650 838 l 650 900 l 918 900 q 985 912 964 900 q 1006 956 1006 924 q 999 982 1006 972 q 976 1003 992 992 l 976 1024 l 1053 1078 q 1086 1045 1075 1061 q 1097 992 1097 1029 q 1076 933 1097 967 q 1000 867 1054 900 q 854 811 946 833 l 854 386 q 824 159 854 246 q 717 27 794 72 q 499 -18 640 -18 m 504 -239 q 448 -215 469 -239 q 426 -153 426 -192 q 451 -88 426 -115 q 511 -61 475 -61 q 568 -83 547 -61 q 589 -144 589 -106 q 566 -211 589 -183 q 504 -239 543 -239 z "},"Ừ":{"ha":1017,"x_min":63,"x_max":1097,"o":"m 63 0 m 499 -18 q 300 26 369 -18 q 203 157 231 71 q 176 386 176 243 l 176 818 l 63 839 l 63 900 l 411 900 l 411 839 l 297 818 l 297 386 q 317 194 297 260 q 390 101 338 128 q 542 74 442 74 q 715 149 667 74 q 764 386 764 225 l 764 815 l 650 838 l 650 900 l 918 900 q 985 912 964 900 q 1006 956 1006 924 q 999 982 1006 972 q 976 1003 992 992 l 976 1024 l 1053 1078 q 1086 1045 1075 1061 q 1097 992 1097 1029 q 1076 933 1097 967 q 1000 867 1054 900 q 854 811 946 833 l 854 386 q 824 159 854 246 q 717 27 794 72 q 499 -18 640 -18 m 310 1065 q 331 1136 314 1111 q 368 1161 347 1161 q 394 1152 378 1161 q 426 1131 410 1143 l 608 994 l 578 946 l 310 1065 z "},"Ử":{"ha":1017,"x_min":63,"x_max":1097,"o":"m 63 0 m 499 -18 q 300 26 369 -18 q 203 157 231 71 q 176 386 176 243 l 176 818 l 63 839 l 63 900 l 411 900 l 411 839 l 297 818 l 297 386 q 317 194 297 260 q 390 101 338 128 q 542 74 442 74 q 715 149 667 74 q 764 386 764 225 l 764 815 l 650 838 l 650 900 l 918 900 q 985 912 964 900 q 1006 956 1006 924 q 999 982 1006 972 q 976 1003 992 992 l 976 1024 l 1053 1078 q 1086 1045 1075 1061 q 1097 992 1097 1029 q 1076 933 1097 967 q 1000 867 1054 900 q 854 811 946 833 l 854 386 q 824 159 854 246 q 717 27 794 72 q 499 -18 640 -18 m 468 940 q 461 965 461 957 q 474 993 461 981 q 514 1015 486 1006 q 551 1036 540 1025 q 563 1063 563 1047 q 494 1090 563 1090 q 407 1079 454 1090 q 394 1124 394 1103 q 410 1155 394 1144 q 478 1165 426 1165 q 609 1140 561 1165 q 657 1068 657 1115 q 576 976 657 1001 q 546 961 553 969 q 539 940 539 953 l 468 940 z "},"Ữ":{"ha":1017,"x_min":63,"x_max":1097,"o":"m 63 0 m 499 -18 q 300 26 369 -18 q 203 157 231 71 q 176 386 176 243 l 176 818 l 63 839 l 63 900 l 411 900 l 411 839 l 297 818 l 297 386 q 317 194 297 260 q 390 101 338 128 q 542 74 442 74 q 715 149 667 74 q 764 386 764 225 l 764 815 l 650 838 l 650 900 l 918 900 q 985 912 964 900 q 1006 956 1006 924 q 999 982 1006 972 q 976 1003 992 992 l 976 1024 l 1053 1078 q 1086 1045 1075 1061 q 1097 992 1097 1029 q 1076 933 1097 967 q 1000 867 1054 900 q 854 811 946 833 l 854 386 q 824 159 854 246 q 717 27 794 72 q 499 -18 640 -18 m 615 969 q 518 990 583 969 l 408 1025 l 297 975 l 265 1011 l 317 1079 q 401 1119 346 1119 q 499 1099 433 1119 l 608 1064 l 719 1114 l 751 1078 l 700 1010 q 615 969 671 969 z "},"Ű":{"ha":1017,"x_min":63,"x_max":968,"o":"m 308 976 l 418 1119 q 452 1155 438 1146 q 483 1164 467 1164 q 520 1142 503 1164 q 547 1081 538 1121 l 347 939 l 308 976 m 564 976 l 674 1119 q 708 1155 693 1146 q 739 1164 722 1164 q 776 1142 758 1164 q 803 1081 793 1121 l 603 939 l 564 976 m 499 -18 q 300 26 369 -18 q 203 157 231 71 q 176 386 176 243 l 176 818 l 63 839 l 63 900 l 411 900 l 411 839 l 297 818 l 297 386 q 317 194 297 260 q 390 101 338 128 q 542 74 442 74 q 715 149 667 74 q 764 386 764 225 l 764 815 l 650 838 l 650 900 l 968 900 l 968 838 l 854 815 l 854 386 q 824 159 854 246 q 717 27 794 72 q 499 -18 640 -18 z "},"Ȗ":{"ha":1017,"x_min":63,"x_max":968,"o":"m 63 0 m 63 839 l 63 900 l 411 900 l 411 839 l 297 818 l 297 386 q 317 194 297 260 q 390 101 338 128 q 542 74 442 74 q 715 149 667 74 q 764 386 764 225 l 764 815 l 650 838 l 650 900 l 968 900 l 968 838 l 854 815 l 854 386 q 824 159 854 246 q 717 27 794 72 q 499 -18 640 -18 q 300 26 369 -18 q 203 157 231 71 q 176 386 176 243 l 176 818 l 63 839 m 618 961 q 606 990 618 967 q 568 1035 594 1014 q 501 1056 542 1056 q 421 1035 453 1056 q 373 990 389 1014 q 357 961 357 965 l 314 972 q 332 1024 314 982 q 393 1103 350 1065 q 506 1140 436 1140 q 629 1104 586 1140 q 687 1031 672 1068 q 701 979 701 993 l 618 961 z "},"Ū":{"ha":1017,"x_min":63,"x_max":968,"o":"m 303 1085 l 764 1085 l 750 1004 l 289 1004 l 303 1085 m 63 839 l 63 900 l 411 900 l 411 839 l 297 818 l 297 386 q 317 194 297 260 q 390 101 338 128 q 542 74 442 74 q 715 149 667 74 q 764 386 764 225 l 764 815 l 650 838 l 650 900 l 968 900 l 968 838 l 854 815 l 854 386 q 824 159 854 246 q 717 27 794 72 q 499 -18 640 -18 q 300 26 369 -18 q 203 157 231 71 q 176 386 176 243 l 176 818 l 63 839 z "},"Ų":{"ha":1017,"x_min":63,"x_max":968,"o":"m 622 -260 q 539 -233 571 -260 q 507 -157 507 -207 q 593 -12 507 -74 q 499 -18 554 -18 q 300 26 369 -18 q 203 157 231 71 q 176 386 176 243 l 176 818 l 63 839 l 63 900 l 411 900 l 411 839 l 297 818 l 297 386 q 317 194 297 260 q 390 101 338 128 q 542 74 442 74 q 715 149 667 74 q 764 386 764 225 l 764 815 l 650 838 l 650 900 l 968 900 l 968 838 l 854 815 l 854 386 q 820 148 854 238 q 700 18 786 58 q 599 -115 599 -54 q 658 -176 599 -176 q 738 -147 688 -176 l 763 -189 q 701 -238 739 -217 q 622 -260 663 -260 z "},"Ů":{"ha":1017,"x_min":63,"x_max":968,"o":"m 408 1018 q 444 1111 408 1079 q 538 1143 481 1143 q 627 1115 593 1143 q 661 1028 661 1088 q 624 933 661 965 q 529 901 586 901 q 440 929 472 901 q 408 1018 408 957 m 536 961 q 582 974 569 961 q 594 1021 594 988 q 583 1069 594 1054 q 536 1083 572 1083 q 489 1070 503 1083 q 475 1024 475 1057 q 487 976 475 990 q 536 961 499 961 m 63 839 l 63 900 l 411 900 l 411 839 l 297 818 l 297 386 q 317 194 297 260 q 390 101 338 128 q 542 74 442 74 q 715 149 667 74 q 764 386 764 225 l 764 815 l 650 838 l 650 900 l 968 900 l 968 838 l 854 815 l 854 386 q 824 159 854 246 q 717 27 794 72 q 499 -18 640 -18 q 300 26 369 -18 q 203 157 231 71 q 176 386 176 243 l 176 818 l 63 839 z "},"Ũ":{"ha":1017,"x_min":63,"x_max":968,"o":"m 63 0 m 63 839 l 63 900 l 411 900 l 411 839 l 297 818 l 297 386 q 317 194 297 260 q 390 101 338 128 q 542 74 442 74 q 715 149 667 74 q 764 386 764 225 l 764 815 l 650 838 l 650 900 l 968 900 l 968 838 l 854 815 l 854 386 q 824 159 854 246 q 717 27 794 72 q 499 -18 640 -18 q 300 26 369 -18 q 203 157 231 71 q 176 386 176 243 l 176 818 l 63 839 m 615 969 q 518 990 583 969 l 408 1025 l 297 975 l 265 1011 l 317 1079 q 401 1119 346 1119 q 499 1099 433 1119 l 608 1064 l 719 1114 l 751 1078 l 700 1010 q 615 969 671 969 z "},"V":{"ha":836,"x_min":-12,"x_max":849,"o":"m 393 -7 l 72 821 l -12 843 l -12 900 l 321 900 l 321 843 l 217 821 l 217 800 l 428 215 l 444 168 l 464 221 l 667 796 l 667 821 l 556 843 l 556 900 l 849 900 l 849 843 l 767 821 l 461 -7 l 393 -7 z "},"W":{"ha":1313,"x_min":0,"x_max":1313,"o":"m 356 -7 l 85 821 l 0 843 l 0 900 l 333 900 l 333 843 l 229 821 l 229 796 l 404 211 l 418 167 l 422 167 l 438 213 l 614 715 l 575 821 l 472 843 l 472 900 l 824 900 l 824 843 l 719 821 l 719 796 l 931 213 l 946 169 l 953 169 l 965 213 l 1131 796 l 1131 821 l 1019 843 l 1019 900 l 1313 900 l 1313 843 l 1231 821 l 975 -7 l 893 -7 l 671 563 l 663 585 l 653 585 l 643 558 l 438 -7 l 356 -7 z "},"Ẃ":{"ha":1313,"x_min":0,"x_max":1313,"o":"m 0 0 m 356 -7 l 85 821 l 0 843 l 0 900 l 333 900 l 333 843 l 229 821 l 229 796 l 404 211 l 418 167 l 422 167 l 438 213 l 614 715 l 575 821 l 472 843 l 472 900 l 824 900 l 824 843 l 719 821 l 719 796 l 931 213 l 946 169 l 953 169 l 965 213 l 1131 796 l 1131 821 l 1019 843 l 1019 900 l 1313 900 l 1313 843 l 1231 821 l 975 -7 l 893 -7 l 671 563 l 663 585 l 653 585 l 643 558 l 438 -7 l 356 -7 m 576 994 l 758 1131 q 791 1152 775 1143 q 817 1161 807 1161 q 854 1136 838 1161 q 875 1065 871 1111 l 607 946 l 576 994 z "},"Ŵ":{"ha":1313,"x_min":0,"x_max":1313,"o":"m 0 0 m 356 -7 l 85 821 l 0 843 l 0 900 l 333 900 l 333 843 l 229 821 l 229 796 l 404 211 l 418 167 l 422 167 l 438 213 l 614 715 l 575 821 l 472 843 l 472 900 l 824 900 l 824 843 l 719 821 l 719 796 l 931 213 l 946 169 l 953 169 l 965 213 l 1131 796 l 1131 821 l 1019 843 l 1019 900 l 1313 900 l 1313 843 l 1231 821 l 975 -7 l 893 -7 l 671 563 l 663 585 l 653 585 l 643 558 l 438 -7 l 356 -7 m 554 1083 l 594 1115 q 633 1147 617 1135 q 660 1158 650 1158 q 688 1148 672 1158 q 736 1108 703 1138 q 767 1083 747 1100 l 869 999 l 824 942 l 654 1032 l 479 944 l 444 994 l 554 1083 z "},"Ẅ":{"ha":1313,"x_min":0,"x_max":1313,"o":"m 0 0 m 356 -7 l 85 821 l 0 843 l 0 900 l 333 900 l 333 843 l 229 821 l 229 796 l 404 211 l 418 167 l 422 167 l 438 213 l 614 715 l 575 821 l 472 843 l 472 900 l 824 900 l 824 843 l 719 821 l 719 796 l 931 213 l 946 169 l 953 169 l 965 213 l 1131 796 l 1131 821 l 1019 843 l 1019 900 l 1313 900 l 1313 843 l 1231 821 l 975 -7 l 893 -7 l 671 563 l 663 585 l 653 585 l 643 558 l 438 -7 l 356 -7 m 507 953 q 456 974 475 953 q 436 1031 436 996 q 458 1090 436 1065 q 513 1114 479 1114 q 564 1094 544 1114 q 583 1039 583 1074 q 563 978 583 1003 q 507 953 542 953 m 800 953 q 749 974 768 953 q 729 1031 729 996 q 751 1090 729 1065 q 806 1114 772 1114 q 857 1094 838 1114 q 876 1039 876 1074 q 856 978 876 1003 q 800 953 835 953 z "},"Ẁ":{"ha":1313,"x_min":0,"x_max":1313,"o":"m 0 0 m 356 -7 l 85 821 l 0 843 l 0 900 l 333 900 l 333 843 l 229 821 l 229 796 l 404 211 l 418 167 l 422 167 l 438 213 l 614 715 l 575 821 l 472 843 l 472 900 l 824 900 l 824 843 l 719 821 l 719 796 l 931 213 l 946 169 l 953 169 l 965 213 l 1131 796 l 1131 821 l 1019 843 l 1019 900 l 1313 900 l 1313 843 l 1231 821 l 975 -7 l 893 -7 l 671 563 l 663 585 l 653 585 l 643 558 l 438 -7 l 356 -7 m 458 1065 q 479 1136 463 1111 q 517 1161 496 1161 q 542 1152 526 1161 q 575 1131 558 1143 l 757 994 l 726 946 l 458 1065 z "},"X":{"ha":824,"x_min":7,"x_max":844,"o":"m 7 63 l 94 81 l 349 449 l 99 808 l 11 838 l 11 900 l 347 900 l 347 838 l 264 819 l 264 793 l 433 547 l 611 797 l 611 822 l 515 840 l 515 900 l 822 900 l 822 842 l 731 822 l 481 475 l 746 82 l 844 63 l 844 0 l 494 0 l 494 63 l 592 82 l 592 99 l 397 378 l 206 103 l 206 78 l 296 60 l 296 0 l 7 0 l 7 63 z "},"Y":{"ha":811,"x_min":-1,"x_max":831,"o":"m 249 61 l 363 82 l 363 322 l 85 821 l -1 843 l -1 900 l 333 900 l 333 843 l 229 821 l 229 796 l 431 415 l 450 415 l 647 796 l 647 821 l 538 843 l 538 900 l 831 900 l 831 843 l 747 821 l 483 339 l 483 82 l 597 61 l 597 0 l 249 0 l 249 61 z "},"Ý":{"ha":811,"x_min":-7,"x_max":825,"o":"m 308 994 l 490 1131 q 523 1152 507 1143 q 549 1161 539 1161 q 586 1136 569 1161 q 607 1065 603 1111 l 339 946 l 308 994 m 243 0 l 243 61 l 357 82 l 357 322 l 79 821 l -7 843 l -7 900 l 328 900 l 328 843 l 224 821 l 224 796 l 425 415 l 444 415 l 642 796 l 642 821 l 532 843 l 532 900 l 825 900 l 825 843 l 742 821 l 478 339 l 478 82 l 592 61 l 592 0 l 243 0 z "},"Ŷ":{"ha":811,"x_min":-1,"x_max":831,"o":"m 0 0 m 249 61 l 363 82 l 363 322 l 85 821 l -1 843 l -1 900 l 333 900 l 333 843 l 229 821 l 229 796 l 431 415 l 450 415 l 647 796 l 647 821 l 538 843 l 538 900 l 831 900 l 831 843 l 747 821 l 483 339 l 483 82 l 597 61 l 597 0 l 249 0 l 249 61 m 333 1083 l 374 1115 q 413 1147 396 1135 q 439 1158 429 1158 q 467 1148 451 1158 q 515 1108 482 1138 q 546 1083 526 1100 l 649 999 l 603 942 l 433 1032 l 258 944 l 224 994 l 333 1083 z "},"Ÿ":{"ha":811,"x_min":-7,"x_max":825,"o":"m 281 964 q 229 985 249 964 q 210 1042 210 1007 q 231 1101 210 1076 q 286 1125 253 1125 q 338 1105 318 1125 q 357 1050 357 1085 q 336 989 357 1014 q 281 964 315 964 m 574 964 q 522 985 542 964 q 503 1042 503 1007 q 524 1101 503 1076 q 579 1125 546 1125 q 631 1105 611 1125 q 650 1050 650 1085 q 629 989 650 1014 q 574 964 608 964 m 243 61 l 357 82 l 357 322 l 79 821 l -7 843 l -7 900 l 328 900 l 328 843 l 224 821 l 224 796 l 425 415 l 444 415 l 642 796 l 642 821 l 532 843 l 532 900 l 825 900 l 825 843 l 742 821 l 478 339 l 478 82 l 592 61 l 592 0 l 243 0 l 243 61 z "},"Ỵ":{"ha":811,"x_min":-1,"x_max":831,"o":"m 0 0 m 249 61 l 363 82 l 363 322 l 85 821 l -1 843 l -1 900 l 333 900 l 333 843 l 229 821 l 229 796 l 431 415 l 450 415 l 647 796 l 647 821 l 538 843 l 538 900 l 831 900 l 831 843 l 747 821 l 483 339 l 483 82 l 597 61 l 597 0 l 249 0 l 249 61 m 419 -239 q 363 -215 385 -239 q 342 -153 342 -192 q 366 -88 342 -115 q 426 -61 390 -61 q 483 -83 463 -61 q 504 -144 504 -106 q 481 -211 504 -183 q 419 -239 458 -239 z "},"Ỳ":{"ha":811,"x_min":-1,"x_max":831,"o":"m 0 0 m 249 61 l 363 82 l 363 322 l 85 821 l -1 843 l -1 900 l 333 900 l 333 843 l 229 821 l 229 796 l 431 415 l 450 415 l 647 796 l 647 821 l 538 843 l 538 900 l 831 900 l 831 843 l 747 821 l 483 339 l 483 82 l 597 61 l 597 0 l 249 0 l 249 61 m 238 1065 q 258 1136 242 1111 q 296 1161 275 1161 q 322 1152 306 1161 q 354 1131 338 1143 l 536 994 l 506 946 l 238 1065 z "},"Ỷ":{"ha":811,"x_min":-1,"x_max":831,"o":"m 0 0 m 249 61 l 363 82 l 363 322 l 85 821 l -1 843 l -1 900 l 333 900 l 333 843 l 229 821 l 229 796 l 431 415 l 450 415 l 647 796 l 647 821 l 538 843 l 538 900 l 831 900 l 831 843 l 747 821 l 483 339 l 483 82 l 597 61 l 597 0 l 249 0 l 249 61 m 396 940 q 389 965 389 957 q 401 993 389 981 q 442 1015 414 1006 q 479 1036 468 1025 q 490 1063 490 1047 q 422 1090 490 1090 q 335 1079 382 1090 q 322 1124 322 1103 q 338 1155 322 1144 q 406 1165 354 1165 q 537 1140 489 1165 q 585 1068 585 1115 q 504 976 585 1001 q 474 961 481 969 q 467 940 467 953 l 396 940 z "},"Ȳ":{"ha":811,"x_min":-1,"x_max":831,"o":"m 0 0 m 249 61 l 363 82 l 363 322 l 85 821 l -1 843 l -1 900 l 333 900 l 333 843 l 229 821 l 229 796 l 431 415 l 450 415 l 647 796 l 647 821 l 538 843 l 538 900 l 831 900 l 831 843 l 747 821 l 483 339 l 483 82 l 597 61 l 597 0 l 249 0 l 249 61 m 213 1085 l 674 1085 l 660 1004 l 199 1004 l 213 1085 z "},"Ỹ":{"ha":811,"x_min":-1,"x_max":831,"o":"m 0 0 m 249 61 l 363 82 l 363 322 l 85 821 l -1 843 l -1 900 l 333 900 l 333 843 l 229 821 l 229 796 l 431 415 l 450 415 l 647 796 l 647 821 l 538 843 l 538 900 l 831 900 l 831 843 l 747 821 l 483 339 l 483 82 l 597 61 l 597 0 l 249 0 l 249 61 m 543 969 q 446 990 511 969 l 336 1025 l 225 975 l 193 1011 l 244 1079 q 329 1119 274 1119 q 426 1099 361 1119 l 536 1064 l 647 1114 l 679 1078 l 628 1010 q 543 969 599 969 z "},"Z":{"ha":776,"x_min":49,"x_max":728,"o":"m 49 82 l 549 792 l 549 818 l 171 818 l 131 674 l 63 674 l 63 900 l 715 900 l 715 808 l 201 99 l 201 82 l 619 82 l 660 226 l 728 226 l 728 0 l 49 0 l 49 82 z "},"Ź":{"ha":776,"x_min":49,"x_max":728,"o":"m 269 994 l 451 1131 q 484 1152 468 1143 q 510 1161 500 1161 q 547 1136 531 1161 q 568 1065 564 1111 l 300 946 l 269 994 m 49 0 l 49 82 l 549 792 l 549 818 l 171 818 l 131 674 l 63 674 l 63 900 l 715 900 l 715 808 l 201 99 l 201 82 l 619 82 l 660 226 l 728 226 l 728 0 l 49 0 z "},"Ž":{"ha":776,"x_min":49,"x_max":728,"o":"m 392 1068 l 567 1156 l 601 1106 l 492 1017 l 451 985 q 413 953 429 965 q 386 942 396 942 q 358 952 374 942 q 310 992 343 963 q 279 1017 299 1000 l 176 1101 l 222 1158 l 392 1068 m 49 82 l 549 792 l 549 818 l 171 818 l 131 674 l 63 674 l 63 900 l 715 900 l 715 808 l 201 99 l 201 82 l 619 82 l 660 226 l 728 226 l 728 0 l 49 0 l 49 82 z "},"Ż":{"ha":776,"x_min":49,"x_max":728,"o":"m 378 954 q 322 978 343 954 q 300 1040 300 1001 q 324 1105 300 1078 q 385 1132 349 1132 q 442 1110 421 1132 q 463 1049 463 1088 q 440 982 463 1010 q 378 954 417 954 m 49 82 l 549 792 l 549 818 l 171 818 l 131 674 l 63 674 l 63 900 l 715 900 l 715 808 l 201 99 l 201 82 l 619 82 l 660 226 l 728 226 l 728 0 l 49 0 l 49 82 z "},"Ẓ":{"ha":776,"x_min":49,"x_max":728,"o":"m 49 0 m 49 82 l 549 792 l 549 818 l 171 818 l 131 674 l 63 674 l 63 900 l 715 900 l 715 808 l 201 99 l 201 82 l 619 82 l 660 226 l 728 226 l 728 0 l 49 0 l 49 82 m 385 -239 q 328 -215 350 -239 q 307 -153 307 -192 q 331 -88 307 -115 q 392 -61 356 -61 q 449 -83 428 -61 q 469 -144 469 -106 q 447 -211 469 -183 q 385 -239 424 -239 z "},"a":{"ha":667,"x_min":53,"x_max":639,"o":"m 250 -10 q 101 39 150 -10 q 53 163 53 88 q 301 372 53 338 l 426 390 l 426 494 q 290 611 426 611 q 235 606 260 611 q 204 600 211 601 l 183 472 q 171 467 183 471 q 139 463 158 463 q 94 481 114 463 q 75 526 75 499 q 126 619 75 579 q 247 679 178 658 q 358 700 315 700 q 493 655 446 700 q 540 540 540 610 l 540 94 l 639 75 l 639 22 q 614 13 633 19 q 564 1 594 7 q 500 -6 533 -6 q 433 58 439 -6 l 428 58 q 359 15 410 39 q 250 -10 308 -10 m 303 78 q 361 83 333 78 q 406 95 389 89 q 426 103 422 101 l 426 324 q 235 281 294 314 q 175 183 175 249 q 209 108 175 139 q 303 78 243 78 z "},"á":{"ha":660,"x_min":46,"x_max":632,"o":"m 192 785 l 343 953 q 376 985 364 975 q 401 996 388 996 q 440 973 421 996 q 472 910 460 950 l 231 743 l 192 785 m 243 -10 q 94 39 143 -10 q 46 163 46 88 q 294 372 46 338 l 419 390 l 419 494 q 283 611 419 611 q 228 606 253 611 q 197 600 204 601 l 176 472 q 164 467 176 471 q 132 463 151 463 q 88 481 107 463 q 68 526 68 499 q 119 619 68 579 q 240 679 171 658 q 351 700 308 700 q 486 655 439 700 q 533 540 533 610 l 533 94 l 632 75 l 632 22 q 607 13 626 19 q 557 1 588 7 q 493 -6 526 -6 q 426 58 432 -6 l 421 58 q 352 15 403 39 q 243 -10 301 -10 m 296 78 q 354 83 326 78 q 399 95 382 89 q 419 103 415 101 l 419 324 q 228 281 288 314 q 168 183 168 249 q 202 108 168 139 q 296 78 236 78 z "},"ă":{"ha":660,"x_min":46,"x_max":632,"o":"m 310 768 q 174 811 221 768 q 112 900 126 854 q 97 963 97 946 l 168 981 q 179 942 168 971 q 224 885 190 913 q 319 858 257 858 q 414 886 381 858 q 458 944 447 914 q 469 983 469 974 l 517 972 q 503 906 517 953 q 444 813 490 858 q 310 768 399 768 m 243 -10 q 94 39 143 -10 q 46 163 46 88 q 294 372 46 338 l 419 390 l 419 494 q 283 611 419 611 q 228 606 253 611 q 197 600 204 601 l 176 472 q 164 467 176 471 q 132 463 151 463 q 88 481 107 463 q 68 526 68 499 q 119 619 68 579 q 240 679 171 658 q 351 700 308 700 q 486 655 439 700 q 533 540 533 610 l 533 94 l 632 75 l 632 22 q 607 13 626 19 q 557 1 588 7 q 493 -6 526 -6 q 426 58 432 -6 l 421 58 q 352 15 403 39 q 243 -10 301 -10 m 296 78 q 354 83 326 78 q 399 95 382 89 q 419 103 415 101 l 419 324 q 228 281 288 314 q 168 183 168 249 q 202 108 168 139 q 296 78 236 78 z "},"ắ":{"ha":667,"x_min":53,"x_max":639,"o":"m 53 0 m 250 -10 q 101 39 150 -10 q 53 163 53 88 q 301 372 53 338 l 426 390 l 426 494 q 290 611 426 611 q 235 606 260 611 q 204 600 211 601 l 183 472 q 171 467 183 471 q 139 463 158 463 q 94 481 114 463 q 75 526 75 499 q 126 619 75 579 q 247 679 178 658 q 358 700 315 700 q 493 655 446 700 q 540 540 540 610 l 540 94 l 639 75 l 639 22 q 614 13 633 19 q 564 1 594 7 q 500 -6 533 -6 q 433 58 439 -6 l 428 58 q 359 15 410 39 q 250 -10 308 -10 m 303 78 q 361 83 333 78 q 406 95 389 89 q 426 103 422 101 l 426 324 q 235 281 294 314 q 175 183 175 249 q 209 108 175 139 q 303 78 243 78 m 193 981 q 204 942 193 971 q 249 885 215 913 q 344 858 282 858 q 439 886 406 858 q 483 944 472 914 q 494 983 494 974 l 542 972 q 528 906 542 953 q 469 813 515 858 q 335 768 424 768 q 199 811 246 768 q 137 900 151 854 q 122 963 122 946 l 193 981 m 415 1153 q 448 1185 436 1175 q 474 1196 460 1196 q 513 1173 493 1196 q 544 1110 532 1150 l 303 943 l 264 985 l 415 1153 z "},"ặ":{"ha":667,"x_min":53,"x_max":639,"o":"m 53 0 m 250 -10 q 101 39 150 -10 q 53 163 53 88 q 301 372 53 338 l 426 390 l 426 494 q 290 611 426 611 q 235 606 260 611 q 204 600 211 601 l 183 472 q 171 467 183 471 q 139 463 158 463 q 94 481 114 463 q 75 526 75 499 q 126 619 75 579 q 247 679 178 658 q 358 700 315 700 q 493 655 446 700 q 540 540 540 610 l 540 94 l 639 75 l 639 22 q 614 13 633 19 q 564 1 594 7 q 500 -6 533 -6 q 433 58 439 -6 l 428 58 q 359 15 410 39 q 250 -10 308 -10 m 303 78 q 361 83 333 78 q 406 95 389 89 q 426 103 422 101 l 426 324 q 235 281 294 314 q 175 183 175 249 q 209 108 175 139 q 303 78 243 78 m 329 -239 q 273 -215 294 -239 q 251 -153 251 -192 q 276 -88 251 -115 q 336 -61 300 -61 q 393 -83 372 -61 q 414 -144 414 -106 q 391 -211 414 -183 q 329 -239 368 -239 m 194 981 q 206 942 194 971 q 250 885 217 913 q 346 858 283 858 q 440 886 407 858 q 485 944 474 914 q 496 983 496 974 l 543 972 q 530 906 543 953 q 471 813 517 858 q 336 768 425 768 q 200 811 247 768 q 138 900 153 854 q 124 963 124 946 l 194 981 z "},"ằ":{"ha":667,"x_min":53,"x_max":639,"o":"m 53 0 m 250 -10 q 101 39 150 -10 q 53 163 53 88 q 301 372 53 338 l 426 390 l 426 494 q 290 611 426 611 q 235 606 260 611 q 204 600 211 601 l 183 472 q 171 467 183 471 q 139 463 158 463 q 94 481 114 463 q 75 526 75 499 q 126 619 75 579 q 247 679 178 658 q 358 700 315 700 q 493 655 446 700 q 540 540 540 610 l 540 94 l 639 75 l 639 22 q 614 13 633 19 q 564 1 594 7 q 500 -6 533 -6 q 433 58 439 -6 l 428 58 q 359 15 410 39 q 250 -10 308 -10 m 303 78 q 361 83 333 78 q 406 95 389 89 q 426 103 422 101 l 426 324 q 235 281 294 314 q 175 183 175 249 q 209 108 175 139 q 303 78 243 78 m 194 981 q 206 942 194 971 q 250 885 217 913 q 346 858 283 858 q 440 886 407 858 q 485 944 474 914 q 496 983 496 974 l 543 972 q 530 906 543 953 q 471 813 517 858 q 336 768 425 768 q 200 811 247 768 q 138 900 153 854 q 124 963 124 946 l 194 981 m 140 1110 q 172 1173 153 1150 q 211 1196 192 1196 q 237 1185 225 1196 q 269 1153 249 1175 l 421 985 l 382 943 l 140 1110 z "},"ẳ":{"ha":667,"x_min":53,"x_max":639,"o":"m 53 0 m 250 -10 q 101 39 150 -10 q 53 163 53 88 q 301 372 53 338 l 426 390 l 426 494 q 290 611 426 611 q 235 606 260 611 q 204 600 211 601 l 183 472 q 171 467 183 471 q 139 463 158 463 q 94 481 114 463 q 75 526 75 499 q 126 619 75 579 q 247 679 178 658 q 358 700 315 700 q 493 655 446 700 q 540 540 540 610 l 540 94 l 639 75 l 639 22 q 614 13 633 19 q 564 1 594 7 q 500 -6 533 -6 q 433 58 439 -6 l 428 58 q 359 15 410 39 q 250 -10 308 -10 m 303 78 q 361 83 333 78 q 406 95 389 89 q 426 103 422 101 l 426 324 q 235 281 294 314 q 175 183 175 249 q 209 108 175 139 q 303 78 243 78 m 194 981 q 206 942 194 971 q 250 885 217 913 q 346 858 283 858 q 440 886 407 858 q 485 944 474 914 q 496 983 496 974 l 543 972 q 530 906 543 953 q 471 813 517 858 q 336 768 425 768 q 200 811 247 768 q 138 900 153 854 q 124 963 124 946 l 194 981 m 301 944 q 289 989 289 972 q 301 1019 289 1007 q 342 1044 314 1032 q 380 1069 369 1058 q 390 1094 390 1079 q 322 1131 390 1131 q 235 1119 282 1131 q 222 1164 222 1143 q 238 1195 222 1185 q 306 1206 254 1206 q 437 1176 389 1206 q 485 1092 485 1147 q 465 1041 485 1061 q 404 1003 444 1021 q 373 983 379 992 q 367 960 367 975 l 367 953 l 301 944 z "},"ẵ":{"ha":667,"x_min":53,"x_max":639,"o":"m 53 0 m 250 -10 q 101 39 150 -10 q 53 163 53 88 q 301 372 53 338 l 426 390 l 426 494 q 290 611 426 611 q 235 606 260 611 q 204 600 211 601 l 183 472 q 171 467 183 471 q 139 463 158 463 q 94 481 114 463 q 75 526 75 499 q 126 619 75 579 q 247 679 178 658 q 358 700 315 700 q 493 655 446 700 q 540 540 540 610 l 540 94 l 639 75 l 639 22 q 614 13 633 19 q 564 1 594 7 q 500 -6 533 -6 q 433 58 439 -6 l 428 58 q 359 15 410 39 q 250 -10 308 -10 m 303 78 q 361 83 333 78 q 406 95 389 89 q 426 103 422 101 l 426 324 q 235 281 294 314 q 175 183 175 249 q 209 108 175 139 q 303 78 243 78 m 192 981 q 203 942 192 971 q 247 885 214 913 q 343 858 281 858 q 438 886 404 858 q 482 944 471 914 q 493 983 493 974 l 540 972 q 527 906 540 953 q 468 813 514 858 q 333 768 422 768 q 197 811 244 768 q 135 900 150 854 q 121 963 121 946 l 192 981 m 139 1113 q 176 1149 153 1136 q 226 1163 200 1163 q 285 1153 251 1163 q 325 1142 319 1143 l 442 1107 l 536 1154 l 567 1126 l 528 1061 q 490 1024 514 1038 q 440 1011 467 1011 q 381 1021 415 1011 q 342 1032 347 1031 l 225 1067 l 131 1019 l 100 1047 l 139 1113 z "},"ǎ":{"ha":667,"x_min":53,"x_max":639,"o":"m 53 0 m 250 -10 q 101 39 150 -10 q 53 163 53 88 q 301 372 53 338 l 426 390 l 426 494 q 290 611 426 611 q 235 606 260 611 q 204 600 211 601 l 183 472 q 171 467 183 471 q 139 463 158 463 q 94 481 114 463 q 75 526 75 499 q 126 619 75 579 q 247 679 178 658 q 358 700 315 700 q 493 655 446 700 q 540 540 540 610 l 540 94 l 639 75 l 639 22 q 614 13 633 19 q 564 1 594 7 q 500 -6 533 -6 q 433 58 439 -6 l 428 58 q 359 15 410 39 q 250 -10 308 -10 m 303 78 q 361 83 333 78 q 406 95 389 89 q 426 103 422 101 l 426 324 q 235 281 294 314 q 175 183 175 249 q 209 108 175 139 q 303 78 243 78 m 332 756 q 261 800 306 756 l 128 935 l 175 983 l 342 863 l 503 985 l 538 939 l 403 800 q 332 756 361 756 z "},"â":{"ha":660,"x_min":46,"x_max":632,"o":"m 307 872 l 147 757 l 108 801 l 256 949 q 319 986 293 986 q 372 957 343 986 l 519 804 l 471 756 l 307 872 m 243 -10 q 94 39 143 -10 q 46 163 46 88 q 294 372 46 338 l 419 390 l 419 494 q 283 611 419 611 q 228 606 253 611 q 197 600 204 601 l 176 472 q 164 467 176 471 q 132 463 151 463 q 88 481 107 463 q 68 526 68 499 q 119 619 68 579 q 240 679 171 658 q 351 700 308 700 q 486 655 439 700 q 533 540 533 610 l 533 94 l 632 75 l 632 22 q 607 13 626 19 q 557 1 588 7 q 493 -6 526 -6 q 426 58 432 -6 l 421 58 q 352 15 403 39 q 243 -10 301 -10 m 296 78 q 354 83 326 78 q 399 95 382 89 q 419 103 415 101 l 419 324 q 228 281 288 314 q 168 183 168 249 q 202 108 168 139 q 296 78 236 78 z "},"ấ":{"ha":667,"x_min":53,"x_max":689,"o":"m 53 0 m 250 -10 q 101 39 150 -10 q 53 163 53 88 q 301 372 53 338 l 426 390 l 426 494 q 290 611 426 611 q 235 606 260 611 q 204 600 211 601 l 183 472 q 171 467 183 471 q 139 463 158 463 q 94 481 114 463 q 75 526 75 499 q 126 619 75 579 q 247 679 178 658 q 358 700 315 700 q 493 655 446 700 q 540 540 540 610 l 540 94 l 639 75 l 639 22 q 614 13 633 19 q 564 1 594 7 q 500 -6 533 -6 q 433 58 439 -6 l 428 58 q 359 15 410 39 q 250 -10 308 -10 m 303 78 q 361 83 333 78 q 406 95 389 89 q 426 103 422 101 l 426 324 q 235 281 294 314 q 175 183 175 249 q 209 108 175 139 q 303 78 243 78 m 235 949 q 299 986 272 986 q 351 957 322 986 l 499 804 l 450 756 l 286 872 l 126 757 l 88 801 l 235 949 m 560 1124 q 592 1156 581 1146 q 618 1167 604 1167 q 657 1144 638 1167 q 689 1081 676 1121 l 447 914 l 408 956 l 560 1124 z "},"ậ":{"ha":667,"x_min":53,"x_max":639,"o":"m 53 0 m 250 -10 q 101 39 150 -10 q 53 163 53 88 q 301 372 53 338 l 426 390 l 426 494 q 290 611 426 611 q 235 606 260 611 q 204 600 211 601 l 183 472 q 171 467 183 471 q 139 463 158 463 q 94 481 114 463 q 75 526 75 499 q 126 619 75 579 q 247 679 178 658 q 358 700 315 700 q 493 655 446 700 q 540 540 540 610 l 540 94 l 639 75 l 639 22 q 614 13 633 19 q 564 1 594 7 q 500 -6 533 -6 q 433 58 439 -6 l 428 58 q 359 15 410 39 q 250 -10 308 -10 m 303 78 q 361 83 333 78 q 406 95 389 89 q 426 103 422 101 l 426 324 q 235 281 294 314 q 175 183 175 249 q 209 108 175 139 q 303 78 243 78 m 329 -239 q 273 -215 294 -239 q 251 -153 251 -192 q 276 -88 251 -115 q 336 -61 300 -61 q 393 -83 372 -61 q 414 -144 414 -106 q 391 -211 414 -183 q 329 -239 368 -239 m 275 949 q 339 986 313 986 q 392 957 363 986 l 539 804 l 490 756 l 326 872 l 167 757 l 128 801 l 275 949 z "},"ầ":{"ha":667,"x_min":53,"x_max":639,"o":"m 53 0 m 250 -10 q 101 39 150 -10 q 53 163 53 88 q 301 372 53 338 l 426 390 l 426 494 q 290 611 426 611 q 235 606 260 611 q 204 600 211 601 l 183 472 q 171 467 183 471 q 139 463 158 463 q 94 481 114 463 q 75 526 75 499 q 126 619 75 579 q 247 679 178 658 q 358 700 315 700 q 493 655 446 700 q 540 540 540 610 l 540 94 l 639 75 l 639 22 q 614 13 633 19 q 564 1 594 7 q 500 -6 533 -6 q 433 58 439 -6 l 428 58 q 359 15 410 39 q 250 -10 308 -10 m 303 78 q 361 83 333 78 q 406 95 389 89 q 426 103 422 101 l 426 324 q 235 281 294 314 q 175 183 175 249 q 209 108 175 139 q 303 78 243 78 m 257 949 q 321 986 294 986 q 374 957 344 986 l 521 804 l 472 756 l 308 872 l 149 757 l 110 801 l 257 949 m 275 1081 q 307 1144 288 1121 q 346 1167 326 1167 q 372 1156 360 1167 q 404 1124 383 1146 l 556 956 l 517 914 l 275 1081 z "},"ẩ":{"ha":667,"x_min":53,"x_max":639,"o":"m 53 0 m 250 -10 q 101 39 150 -10 q 53 163 53 88 q 301 372 53 338 l 426 390 l 426 494 q 290 611 426 611 q 235 606 260 611 q 204 600 211 601 l 183 472 q 171 467 183 471 q 139 463 158 463 q 94 481 114 463 q 75 526 75 499 q 126 619 75 579 q 247 679 178 658 q 358 700 315 700 q 493 655 446 700 q 540 540 540 610 l 540 94 l 639 75 l 639 22 q 614 13 633 19 q 564 1 594 7 q 500 -6 533 -6 q 433 58 439 -6 l 428 58 q 359 15 410 39 q 250 -10 308 -10 m 303 78 q 361 83 333 78 q 406 95 389 89 q 426 103 422 101 l 426 324 q 235 281 294 314 q 175 183 175 249 q 209 108 175 139 q 303 78 243 78 m 242 949 q 306 986 279 986 q 358 957 329 986 l 506 804 l 457 756 l 293 872 l 133 757 l 94 801 l 242 949 m 443 915 q 431 960 431 943 q 443 990 431 978 q 483 1015 456 1003 q 522 1040 511 1029 q 532 1065 532 1050 q 464 1101 532 1101 q 376 1090 424 1101 q 364 1135 364 1114 q 380 1166 364 1156 q 447 1176 396 1176 q 578 1147 531 1176 q 626 1063 626 1118 q 606 1012 626 1032 q 546 974 586 992 q 515 954 521 963 q 508 931 508 946 l 508 924 l 443 915 z "},"ẫ":{"ha":667,"x_min":53,"x_max":639,"o":"m 53 0 m 250 -10 q 101 39 150 -10 q 53 163 53 88 q 301 372 53 338 l 426 390 l 426 494 q 290 611 426 611 q 235 606 260 611 q 204 600 211 601 l 183 472 q 171 467 183 471 q 139 463 158 463 q 94 481 114 463 q 75 526 75 499 q 126 619 75 579 q 247 679 178 658 q 358 700 315 700 q 493 655 446 700 q 540 540 540 610 l 540 94 l 639 75 l 639 22 q 614 13 633 19 q 564 1 594 7 q 500 -6 533 -6 q 433 58 439 -6 l 428 58 q 359 15 410 39 q 250 -10 308 -10 m 303 78 q 361 83 333 78 q 406 95 389 89 q 426 103 422 101 l 426 324 q 235 281 294 314 q 175 183 175 249 q 209 108 175 139 q 303 78 243 78 m 272 949 q 336 986 310 986 q 389 957 360 986 l 536 804 l 488 756 l 324 872 l 164 757 l 125 801 l 272 949 m 139 1115 q 176 1152 153 1139 q 226 1165 200 1165 q 285 1156 251 1165 q 325 1144 319 1146 l 442 1110 l 536 1157 l 567 1129 l 528 1064 q 490 1027 514 1040 q 440 1014 467 1014 q 381 1024 415 1014 q 342 1035 347 1033 l 225 1069 l 131 1022 l 100 1050 l 139 1115 z "},"ȁ":{"ha":667,"x_min":53,"x_max":639,"o":"m 53 0 m 250 -10 q 101 39 150 -10 q 53 163 53 88 q 301 372 53 338 l 426 390 l 426 494 q 290 611 426 611 q 235 606 260 611 q 204 600 211 601 l 183 472 q 171 467 183 471 q 139 463 158 463 q 94 481 114 463 q 75 526 75 499 q 126 619 75 579 q 247 679 178 658 q 358 700 315 700 q 493 655 446 700 q 540 540 540 610 l 540 94 l 639 75 l 639 22 q 614 13 633 19 q 564 1 594 7 q 500 -6 533 -6 q 433 58 439 -6 l 428 58 q 359 15 410 39 q 250 -10 308 -10 m 303 78 q 361 83 333 78 q 406 95 389 89 q 426 103 422 101 l 426 324 q 235 281 294 314 q 175 183 175 249 q 209 108 175 139 q 303 78 243 78 m 275 775 l 233 744 l 56 935 q 94 984 75 968 q 128 1000 114 1000 q 160 986 149 1000 q 181 955 172 972 q 194 929 190 938 l 275 775 m 499 775 l 457 744 l 279 935 q 318 984 299 968 q 351 1000 338 1000 q 384 986 372 1000 q 405 955 396 972 q 418 929 414 938 l 499 775 z "},"ä":{"ha":660,"x_min":46,"x_max":632,"o":"m 150 799 q 99 820 118 799 q 79 876 79 842 q 101 935 79 911 q 156 960 122 960 q 207 940 188 960 q 226 885 226 919 q 206 824 226 849 q 150 799 185 799 m 443 799 q 392 820 411 799 q 372 876 372 842 q 394 935 372 911 q 449 960 415 960 q 500 940 481 960 q 519 885 519 919 q 499 824 519 849 q 443 799 478 799 m 243 -10 q 94 39 143 -10 q 46 163 46 88 q 294 372 46 338 l 419 390 l 419 494 q 283 611 419 611 q 228 606 253 611 q 197 600 204 601 l 176 472 q 164 467 176 471 q 132 463 151 463 q 88 481 107 463 q 68 526 68 499 q 119 619 68 579 q 240 679 171 658 q 351 700 308 700 q 486 655 439 700 q 533 540 533 610 l 533 94 l 632 75 l 632 22 q 607 13 626 19 q 557 1 588 7 q 493 -6 526 -6 q 426 58 432 -6 l 421 58 q 352 15 403 39 q 243 -10 301 -10 m 296 78 q 354 83 326 78 q 399 95 382 89 q 419 103 415 101 l 419 324 q 228 281 288 314 q 168 183 168 249 q 202 108 168 139 q 296 78 236 78 z "},"ạ":{"ha":667,"x_min":53,"x_max":639,"o":"m 53 0 m 250 -10 q 101 39 150 -10 q 53 163 53 88 q 301 372 53 338 l 426 390 l 426 494 q 290 611 426 611 q 235 606 260 611 q 204 600 211 601 l 183 472 q 171 467 183 471 q 139 463 158 463 q 94 481 114 463 q 75 526 75 499 q 126 619 75 579 q 247 679 178 658 q 358 700 315 700 q 493 655 446 700 q 540 540 540 610 l 540 94 l 639 75 l 639 22 q 614 13 633 19 q 564 1 594 7 q 500 -6 533 -6 q 433 58 439 -6 l 428 58 q 359 15 410 39 q 250 -10 308 -10 m 303 78 q 361 83 333 78 q 406 95 389 89 q 426 103 422 101 l 426 324 q 235 281 294 314 q 175 183 175 249 q 209 108 175 139 q 303 78 243 78 m 329 -239 q 273 -215 294 -239 q 251 -153 251 -192 q 276 -88 251 -115 q 336 -61 300 -61 q 393 -83 372 -61 q 414 -144 414 -106 q 391 -211 414 -183 q 329 -239 368 -239 z "},"à":{"ha":660,"x_min":46,"x_max":632,"o":"m 164 910 q 196 973 176 950 q 235 996 215 996 q 260 985 249 996 q 293 953 272 975 l 444 785 l 406 743 l 164 910 m 243 -10 q 94 39 143 -10 q 46 163 46 88 q 294 372 46 338 l 419 390 l 419 494 q 283 611 419 611 q 228 606 253 611 q 197 600 204 601 l 176 472 q 164 467 176 471 q 132 463 151 463 q 88 481 107 463 q 68 526 68 499 q 119 619 68 579 q 240 679 171 658 q 351 700 308 700 q 486 655 439 700 q 533 540 533 610 l 533 94 l 632 75 l 632 22 q 607 13 626 19 q 557 1 588 7 q 493 -6 526 -6 q 426 58 432 -6 l 421 58 q 352 15 403 39 q 243 -10 301 -10 m 296 78 q 354 83 326 78 q 399 95 382 89 q 419 103 415 101 l 419 324 q 228 281 288 314 q 168 183 168 249 q 202 108 168 139 q 296 78 236 78 z "},"ả":{"ha":667,"x_min":53,"x_max":639,"o":"m 53 0 m 250 -10 q 101 39 150 -10 q 53 163 53 88 q 301 372 53 338 l 426 390 l 426 494 q 290 611 426 611 q 235 606 260 611 q 204 600 211 601 l 183 472 q 171 467 183 471 q 139 463 158 463 q 94 481 114 463 q 75 526 75 499 q 126 619 75 579 q 247 679 178 658 q 358 700 315 700 q 493 655 446 700 q 540 540 540 610 l 540 94 l 639 75 l 639 22 q 614 13 633 19 q 564 1 594 7 q 500 -6 533 -6 q 433 58 439 -6 l 428 58 q 359 15 410 39 q 250 -10 308 -10 m 303 78 q 361 83 333 78 q 406 95 389 89 q 426 103 422 101 l 426 324 q 235 281 294 314 q 175 183 175 249 q 209 108 175 139 q 303 78 243 78 m 299 744 q 286 789 286 772 q 299 819 286 807 q 339 844 311 832 q 377 869 367 858 q 388 894 388 879 q 319 931 388 931 q 232 919 279 931 q 219 964 219 943 q 235 995 219 985 q 303 1006 251 1006 q 434 976 386 1006 q 482 892 482 947 q 462 841 482 861 q 401 803 442 821 q 370 783 376 792 q 364 760 364 775 l 364 753 l 299 744 z "},"ȃ":{"ha":667,"x_min":53,"x_max":639,"o":"m 53 0 m 250 -10 q 101 39 150 -10 q 53 163 53 88 q 301 372 53 338 l 426 390 l 426 494 q 290 611 426 611 q 235 606 260 611 q 204 600 211 601 l 183 472 q 171 467 183 471 q 139 463 158 463 q 94 481 114 463 q 75 526 75 499 q 126 619 75 579 q 247 679 178 658 q 358 700 315 700 q 493 655 446 700 q 540 540 540 610 l 540 94 l 639 75 l 639 22 q 614 13 633 19 q 564 1 594 7 q 500 -6 533 -6 q 433 58 439 -6 l 428 58 q 359 15 410 39 q 250 -10 308 -10 m 303 78 q 361 83 333 78 q 406 95 389 89 q 426 103 422 101 l 426 324 q 235 281 294 314 q 175 183 175 249 q 209 108 175 139 q 303 78 243 78 m 472 771 q 461 810 472 781 q 417 866 450 839 q 321 893 383 893 q 226 865 260 893 q 182 808 193 838 q 171 768 171 778 l 124 779 q 137 846 124 799 q 196 938 150 893 q 331 983 242 983 q 467 940 419 983 q 528 851 514 897 q 543 789 543 806 l 472 771 z "},"ā":{"ha":660,"x_min":46,"x_max":632,"o":"m 68 842 l 82 921 l 543 921 l 529 842 l 68 842 m 243 -10 q 94 39 143 -10 q 46 163 46 88 q 294 372 46 338 l 419 390 l 419 494 q 283 611 419 611 q 228 606 253 611 q 197 600 204 601 l 176 472 q 164 467 176 471 q 132 463 151 463 q 88 481 107 463 q 68 526 68 499 q 119 619 68 579 q 240 679 171 658 q 351 700 308 700 q 486 655 439 700 q 533 540 533 610 l 533 94 l 632 75 l 632 22 q 607 13 626 19 q 557 1 588 7 q 493 -6 526 -6 q 426 58 432 -6 l 421 58 q 352 15 403 39 q 243 -10 301 -10 m 296 78 q 354 83 326 78 q 399 95 382 89 q 419 103 415 101 l 419 324 q 228 281 288 314 q 168 183 168 249 q 202 108 168 139 q 296 78 236 78 z "},"ą":{"ha":660,"x_min":46,"x_max":632,"o":"m 482 -260 q 399 -233 431 -260 q 367 -157 367 -207 q 394 -70 367 -110 q 467 -1 422 -31 q 438 21 447 4 q 426 58 428 38 l 421 58 q 352 15 403 39 q 243 -10 301 -10 q 94 39 143 -10 q 46 163 46 88 q 294 372 46 338 l 419 390 l 419 494 q 283 611 419 611 q 228 606 253 611 q 197 600 204 601 l 176 472 q 164 467 176 471 q 132 463 151 463 q 88 481 107 463 q 68 526 68 499 q 119 619 68 579 q 240 679 171 658 q 351 700 308 700 q 486 655 439 700 q 533 540 533 610 l 533 94 l 632 75 l 632 22 q 599 10 632 21 q 532 -3 567 0 q 458 -115 458 -64 q 518 -176 458 -176 q 597 -147 547 -176 l 622 -189 q 601 -209 622 -190 q 548 -244 579 -228 q 482 -260 517 -260 m 296 78 q 354 83 326 78 q 399 95 382 89 q 419 103 415 101 l 419 324 q 228 281 288 314 q 168 183 168 249 q 202 108 168 139 q 296 78 236 78 z "},"å":{"ha":660,"x_min":46,"x_max":632,"o":"m 304 743 q 211 776 243 743 q 179 864 179 808 q 215 958 179 919 q 314 996 250 996 q 406 961 374 996 q 439 872 439 926 q 402 780 439 817 q 304 743 365 743 m 310 803 q 352 818 340 803 q 364 869 364 833 q 351 920 364 907 q 307 933 338 933 q 264 919 275 933 q 253 869 253 904 q 265 817 253 831 q 310 803 278 803 m 243 -10 q 94 39 143 -10 q 46 163 46 88 q 294 372 46 338 l 419 390 l 419 494 q 283 611 419 611 q 228 606 253 611 q 197 600 204 601 l 176 472 q 164 467 176 471 q 132 463 151 463 q 88 481 107 463 q 68 526 68 499 q 119 619 68 579 q 240 679 171 658 q 351 700 308 700 q 486 655 439 700 q 533 540 533 610 l 533 94 l 632 75 l 632 22 q 607 13 626 19 q 557 1 588 7 q 493 -6 526 -6 q 426 58 432 -6 l 421 58 q 352 15 403 39 q 243 -10 301 -10 m 296 78 q 354 83 326 78 q 399 95 382 89 q 419 103 415 101 l 419 324 q 228 281 288 314 q 168 183 168 249 q 202 108 168 139 q 296 78 236 78 z "},"ǻ":{"ha":667,"x_min":53,"x_max":639,"o":"m 53 0 m 250 -10 q 101 39 150 -10 q 53 163 53 88 q 301 372 53 338 l 426 390 l 426 494 q 290 611 426 611 q 235 606 260 611 q 204 600 211 601 l 183 472 q 171 467 183 471 q 139 463 158 463 q 94 481 114 463 q 75 526 75 499 q 126 619 75 579 q 247 679 178 658 q 358 700 315 700 q 493 655 446 700 q 540 540 540 610 l 540 94 l 639 75 l 639 22 q 614 13 633 19 q 564 1 594 7 q 500 -6 533 -6 q 433 58 439 -6 l 428 58 q 359 15 410 39 q 250 -10 308 -10 m 303 78 q 361 83 333 78 q 406 95 389 89 q 426 103 422 101 l 426 324 q 235 281 294 314 q 175 183 175 249 q 209 108 175 139 q 303 78 243 78 m 203 864 q 238 958 203 919 q 338 996 274 996 q 430 961 397 996 q 463 872 463 926 q 426 780 463 817 q 328 743 389 743 q 235 776 267 743 q 203 864 203 808 m 333 803 q 376 818 364 803 q 388 869 388 833 q 374 920 388 907 q 331 933 361 933 q 288 919 299 933 q 276 869 276 904 q 289 817 276 831 q 333 803 301 803 m 417 1263 q 449 1295 438 1285 q 475 1306 461 1306 q 514 1283 494 1306 q 546 1219 533 1260 l 304 1053 l 265 1094 l 417 1263 z "},"ã":{"ha":660,"x_min":46,"x_max":632,"o":"m 407 797 q 348 807 382 797 q 308 818 314 817 l 192 853 l 97 806 l 67 833 l 106 899 q 143 935 119 922 q 193 949 167 949 q 252 939 218 949 q 292 928 286 929 l 408 893 l 503 940 l 533 913 l 494 847 q 457 810 481 824 q 407 797 433 797 m 243 -10 q 94 39 143 -10 q 46 163 46 88 q 294 372 46 338 l 419 390 l 419 494 q 283 611 419 611 q 228 606 253 611 q 197 600 204 601 l 176 472 q 164 467 176 471 q 132 463 151 463 q 88 481 107 463 q 68 526 68 499 q 119 619 68 579 q 240 679 171 658 q 351 700 308 700 q 486 655 439 700 q 533 540 533 610 l 533 94 l 632 75 l 632 22 q 607 13 626 19 q 557 1 588 7 q 493 -6 526 -6 q 426 58 432 -6 l 421 58 q 352 15 403 39 q 243 -10 301 -10 m 296 78 q 354 83 326 78 q 399 95 382 89 q 419 103 415 101 l 419 324 q 228 281 288 314 q 168 183 168 249 q 202 108 168 139 q 296 78 236 78 z "},"æ":{"ha":1022,"x_min":63,"x_max":971,"o":"m 435 486 q 401 574 435 546 q 300 603 367 603 q 246 599 269 603 q 215 593 222 594 l 185 472 q 172 467 182 471 q 143 463 161 463 q 83 525 83 463 q 135 619 83 579 q 256 679 188 658 q 368 700 324 700 q 469 674 425 700 q 533 606 513 649 q 622 676 571 651 q 733 700 674 700 q 919 615 867 700 q 971 361 971 529 q 931 324 971 326 l 557 310 q 568 197 557 244 q 617 117 579 150 q 729 85 654 85 q 831 90 785 85 q 902 100 876 94 q 935 107 928 106 l 947 61 q 917 40 947 58 q 839 4 888 21 q 726 -12 790 -12 q 507 81 578 -12 q 402 15 461 39 q 260 -10 343 -10 q 111 39 160 -10 q 63 163 63 88 q 129 308 63 251 q 311 369 196 364 l 435 376 l 435 486 m 851 399 q 856 457 856 424 q 842 551 856 518 q 798 595 828 583 q 714 607 768 607 q 594 546 631 607 q 557 382 557 485 l 851 399 m 435 304 q 244 276 303 303 q 185 189 185 250 q 216 109 185 142 q 310 76 247 76 q 368 85 340 76 q 413 102 396 93 q 435 114 431 111 l 435 304 z "},"ǽ":{"ha":1022,"x_min":63,"x_max":971,"o":"m 63 0 m 435 486 q 401 574 435 546 q 300 603 367 603 q 246 599 269 603 q 215 593 222 594 l 185 472 q 172 467 182 471 q 143 463 161 463 q 83 525 83 463 q 135 619 83 579 q 256 679 188 658 q 368 700 324 700 q 469 674 425 700 q 533 606 513 649 q 622 676 571 651 q 733 700 674 700 q 919 615 867 700 q 971 361 971 529 q 931 324 971 326 l 557 310 q 568 197 557 244 q 617 117 579 150 q 729 85 654 85 q 831 90 785 85 q 902 100 876 94 q 935 107 928 106 l 947 61 q 917 40 947 58 q 839 4 888 21 q 726 -12 790 -12 q 507 81 578 -12 q 402 15 461 39 q 260 -10 343 -10 q 111 39 160 -10 q 63 163 63 88 q 129 308 63 251 q 311 369 196 364 l 435 376 l 435 486 m 851 399 q 856 457 856 424 q 842 551 856 518 q 798 595 828 583 q 714 607 768 607 q 594 546 631 607 q 557 382 557 485 l 851 399 m 435 304 q 244 276 303 303 q 185 189 185 250 q 216 109 185 142 q 310 76 247 76 q 368 85 340 76 q 413 102 396 93 q 435 114 431 111 l 435 304 m 592 953 q 624 985 613 975 q 650 996 636 996 q 689 973 669 996 q 721 910 708 950 l 479 743 l 440 785 l 592 953 z "},"b":{"ha":719,"x_min":-14,"x_max":664,"o":"m 371 -12 q 271 7 311 -12 q 207 49 231 26 l 196 49 l 157 -4 l 100 -4 l 100 861 l -14 879 l -14 933 l 176 971 l 214 951 l 214 628 q 290 677 242 654 q 407 700 339 700 q 594 622 524 700 q 664 383 664 543 q 624 168 664 257 q 518 33 585 79 q 371 -12 451 -12 m 354 68 q 492 133 444 68 q 539 344 539 197 q 497 542 539 481 q 357 603 456 603 q 214 582 289 603 l 214 96 q 276 77 238 86 q 354 68 315 68 z "},"c":{"ha":610,"x_min":35,"x_max":561,"o":"m 554 72 q 524 47 554 69 q 444 6 493 25 q 332 -12 394 -12 q 178 26 246 -12 q 73 142 111 65 q 35 325 35 218 q 71 512 35 426 q 178 649 107 597 q 349 700 250 700 q 505 649 449 700 q 561 526 561 599 q 543 483 561 503 q 497 463 525 463 q 464 467 475 463 q 453 472 453 471 l 431 603 q 417 608 428 604 q 385 616 406 613 q 340 619 365 619 q 198 553 239 619 q 157 342 157 486 q 213 144 157 204 q 381 85 268 85 q 454 91 419 85 q 510 104 489 97 q 536 114 531 111 l 554 72 z "},"ć":{"ha":631,"x_min":56,"x_max":582,"o":"m 378 953 q 410 985 399 975 q 436 996 422 996 q 475 973 456 996 q 507 910 494 950 l 265 743 l 226 785 l 378 953 m 575 72 q 544 47 575 69 q 465 6 514 25 q 353 -12 415 -12 q 199 26 267 -12 q 94 142 132 65 q 56 325 56 218 q 92 512 56 426 q 199 649 128 597 q 369 700 271 700 q 526 649 469 700 q 582 526 582 599 q 564 483 582 503 q 518 463 546 463 q 485 467 496 463 q 474 472 474 471 l 451 603 q 438 608 449 604 q 406 616 426 613 q 361 619 386 619 q 219 553 260 619 q 178 342 178 486 q 233 144 178 204 q 401 85 289 85 q 475 91 440 85 q 531 104 510 97 q 557 114 551 111 l 575 72 z "},"č":{"ha":631,"x_min":56,"x_max":582,"o":"m 343 756 q 272 800 317 756 l 139 935 l 186 983 l 353 863 l 514 985 l 549 939 l 414 800 q 343 756 372 756 m 353 -12 q 199 26 267 -12 q 94 142 132 65 q 56 325 56 218 q 92 512 56 426 q 199 649 128 597 q 369 700 271 700 q 526 649 469 700 q 582 526 582 599 q 564 483 582 503 q 518 463 546 463 q 485 467 496 463 q 474 472 474 471 l 451 603 q 438 608 449 604 q 406 616 426 613 q 361 619 386 619 q 219 553 260 619 q 178 342 178 486 q 233 144 178 204 q 401 85 289 85 q 475 91 440 85 q 531 104 510 97 q 557 114 551 111 l 575 72 q 544 47 575 69 q 465 6 514 25 q 353 -12 415 -12 z "},"ç":{"ha":631,"x_min":56,"x_max":582,"o":"m 325 -260 q 272 -254 294 -260 q 222 -237 249 -249 l 244 -186 q 319 -201 283 -201 q 401 -160 401 -201 q 392 -131 401 -139 q 358 -119 382 -124 l 307 -108 l 281 -82 l 311 -10 q 126 91 196 4 q 56 325 56 178 q 92 512 56 426 q 199 649 128 597 q 369 700 271 700 q 526 649 469 700 q 582 526 582 599 q 564 483 582 503 q 518 463 546 463 q 490 465 503 463 q 474 472 478 468 l 451 603 q 411 615 436 610 q 361 619 386 619 q 219 553 260 619 q 178 342 178 486 q 233 144 178 204 q 401 85 289 85 q 475 91 440 85 q 531 104 510 97 q 557 114 551 111 l 575 72 q 547 49 575 69 q 474 10 519 29 q 372 -11 429 -8 l 372 -40 l 396 -46 q 471 -75 446 -58 q 496 -133 496 -92 q 447 -230 496 -200 q 325 -260 397 -260 z "},"ĉ":{"ha":610,"x_min":35,"x_max":561,"o":"m 35 0 m 554 72 q 524 47 554 69 q 444 6 493 25 q 332 -12 394 -12 q 178 26 246 -12 q 73 142 111 65 q 35 325 35 218 q 71 512 35 426 q 178 649 107 597 q 349 700 250 700 q 505 649 449 700 q 561 526 561 599 q 543 483 561 503 q 497 463 525 463 q 464 467 475 463 q 453 472 453 471 l 431 603 q 417 608 428 604 q 385 616 406 613 q 340 619 365 619 q 198 553 239 619 q 157 342 157 486 q 213 144 157 204 q 381 85 268 85 q 454 91 419 85 q 510 104 489 97 q 536 114 531 111 l 554 72 m 274 949 q 338 986 311 986 q 390 957 361 986 l 538 804 l 489 756 l 325 872 l 165 757 l 126 801 l 274 949 z "},"ċ":{"ha":610,"x_min":35,"x_max":561,"o":"m 35 0 m 554 72 q 524 47 554 69 q 444 6 493 25 q 332 -12 394 -12 q 178 26 246 -12 q 73 142 111 65 q 35 325 35 218 q 71 512 35 426 q 178 649 107 597 q 349 700 250 700 q 505 649 449 700 q 561 526 561 599 q 543 483 561 503 q 497 463 525 463 q 464 467 475 463 q 453 472 453 471 l 431 603 q 417 608 428 604 q 385 616 406 613 q 340 619 365 619 q 198 553 239 619 q 157 342 157 486 q 213 144 157 204 q 381 85 268 85 q 454 91 419 85 q 510 104 489 97 q 536 114 531 111 l 554 72 m 328 789 q 272 813 293 789 q 250 875 250 836 q 274 940 250 913 q 335 967 299 967 q 392 944 371 967 q 413 883 413 922 q 390 817 413 844 q 328 789 367 789 z "},"d":{"ha":747,"x_min":56,"x_max":717,"o":"m 311 -12 q 128 66 201 -12 q 56 303 56 144 q 101 531 56 442 q 214 660 146 619 q 351 700 282 700 q 504 646 442 700 l 504 861 l 390 893 l 390 947 l 579 971 l 618 951 l 618 97 l 717 76 l 717 22 l 528 -6 l 510 67 l 504 68 q 426 13 476 39 q 311 -12 376 -12 m 354 85 q 436 96 396 85 q 504 121 476 107 l 504 590 q 447 606 482 599 q 374 613 411 613 q 230 553 281 613 q 179 349 179 494 q 218 148 179 211 q 354 85 257 85 z "},"ð":{"ha":729,"x_min":56,"x_max":674,"o":"m 358 -12 q 132 79 208 -12 q 56 331 56 171 q 144 570 56 481 q 385 660 232 660 q 532 621 454 660 q 415 829 504 765 l 274 738 l 236 792 l 349 865 q 163 890 282 890 l 163 946 q 193 951 163 947 q 271 956 224 956 q 435 921 360 956 l 561 1003 l 597 946 l 500 883 q 628 710 582 822 q 674 432 674 597 q 591 99 674 211 q 358 -12 508 -12 m 371 68 q 510 147 472 68 q 547 394 547 225 q 542 539 547 476 q 464 563 501 554 q 379 572 426 572 q 224 519 268 572 q 181 351 181 467 q 192 210 181 269 q 246 109 204 150 q 371 68 288 68 z "},"ď":{"ha":757,"x_min":57,"x_max":804,"o":"m 685 753 q 701 819 694 782 q 707 885 707 856 q 672 967 707 925 q 735 999 694 999 q 787 977 769 999 q 804 924 804 956 q 788 858 804 896 q 753 790 771 819 q 729 753 735 761 l 685 753 m 313 -12 q 130 66 203 -12 q 57 303 57 144 q 102 531 57 442 q 215 660 147 619 q 353 700 283 700 q 506 646 443 700 l 506 861 l 392 893 l 392 947 l 581 971 l 619 951 l 619 97 l 718 76 l 718 22 l 529 -6 l 511 67 l 506 68 q 428 13 478 39 q 313 -12 378 -12 m 356 85 q 438 96 397 85 q 506 121 478 107 l 506 590 q 448 606 483 599 q 375 613 413 613 q 231 553 282 613 q 181 349 181 494 q 219 148 181 211 q 356 85 258 85 z "},"đ":{"ha":757,"x_min":57,"x_max":718,"o":"m 313 -12 q 130 66 203 -12 q 57 303 57 144 q 102 531 57 442 q 215 660 147 619 q 353 700 283 700 q 506 646 443 700 l 506 767 l 254 767 l 254 833 l 506 833 l 506 875 l 392 893 l 392 947 l 581 971 l 619 951 l 619 833 l 672 833 l 672 767 l 619 767 l 619 97 l 718 76 l 718 22 l 529 -6 l 511 67 l 506 68 q 428 13 478 39 q 313 -12 378 -12 m 356 85 q 438 96 397 85 q 506 121 478 107 l 506 590 q 448 606 483 599 q 375 613 413 613 q 231 553 282 613 q 181 349 181 494 q 219 148 181 211 q 356 85 258 85 z "},"ḍ":{"ha":747,"x_min":56,"x_max":717,"o":"m 56 0 m 311 -12 q 128 66 201 -12 q 56 303 56 144 q 101 531 56 442 q 214 660 146 619 q 351 700 282 700 q 504 646 442 700 l 504 861 l 390 893 l 390 947 l 579 971 l 618 951 l 618 97 l 717 76 l 717 22 l 528 -6 l 510 67 l 504 68 q 426 13 476 39 q 311 -12 376 -12 m 354 85 q 436 96 396 85 q 504 121 476 107 l 504 590 q 447 606 482 599 q 374 613 411 613 q 230 553 281 613 q 179 349 179 494 q 218 148 179 211 q 354 85 257 85 m 369 -239 q 313 -215 335 -239 q 292 -153 292 -192 q 316 -88 292 -115 q 376 -61 340 -61 q 433 -83 413 -61 q 454 -144 454 -106 q 431 -211 454 -183 q 369 -239 408 -239 z "},"ǳ":{"ha":1350,"x_min":56,"x_max":1318,"o":"m 56 0 m 311 -12 q 128 66 201 -12 q 56 303 56 144 q 101 531 56 442 q 214 660 146 619 q 351 700 282 700 q 504 646 442 700 l 504 861 l 390 893 l 390 947 l 579 971 l 618 951 l 618 97 l 717 76 l 717 22 l 528 -6 l 510 67 l 504 68 q 426 13 476 39 q 311 -12 376 -12 m 354 85 q 436 96 396 85 q 504 121 476 107 l 504 590 q 447 606 482 599 q 374 613 411 613 q 230 553 281 613 q 179 349 179 494 q 218 148 179 211 q 354 85 257 85 m 774 0 l 774 69 l 1154 594 l 1154 613 l 883 613 l 864 497 l 807 497 l 788 686 l 1288 686 l 1288 583 l 932 94 l 932 72 l 1222 72 l 1242 190 l 1299 190 l 1318 0 l 774 0 z "},"ǆ":{"ha":1350,"x_min":56,"x_max":1318,"o":"m 56 0 m 311 -12 q 128 66 201 -12 q 56 303 56 144 q 101 531 56 442 q 214 660 146 619 q 351 700 282 700 q 504 646 442 700 l 504 861 l 390 893 l 390 947 l 579 971 l 618 951 l 618 97 l 717 76 l 717 22 l 528 -6 l 510 67 l 504 68 q 426 13 476 39 q 311 -12 376 -12 m 354 85 q 436 96 396 85 q 504 121 476 107 l 504 590 q 447 606 482 599 q 374 613 411 613 q 230 553 281 613 q 179 349 179 494 q 218 148 179 211 q 354 85 257 85 m 774 0 l 774 69 l 1154 594 l 1154 613 l 883 613 l 864 497 l 807 497 l 788 686 l 1288 686 l 1288 583 l 932 94 l 932 72 l 1222 72 l 1242 190 l 1299 190 l 1318 0 l 774 0 m 1043 756 q 972 800 1017 756 l 839 935 l 886 983 l 1053 863 l 1214 985 l 1249 939 l 1114 800 q 1043 756 1072 756 z "},"e":{"ha":638,"x_min":35,"x_max":572,"o":"m 333 -12 q 111 82 188 -12 q 35 324 35 176 q 74 519 35 433 q 185 652 114 604 q 344 700 256 700 q 515 626 458 700 q 572 447 572 553 q 558 349 572 374 q 506 324 544 324 l 157 324 q 209 151 157 218 q 375 85 261 85 q 460 92 424 85 q 517 108 497 100 q 542 118 538 115 l 561 79 q 530 52 561 76 q 448 8 499 28 q 333 -12 397 -12 m 456 399 q 460 454 460 424 q 430 578 460 538 q 324 619 400 619 q 200 561 240 619 q 158 388 160 503 l 456 399 z "},"é":{"ha":654,"x_min":51,"x_max":589,"o":"m 215 785 l 367 953 q 399 985 388 975 q 425 996 411 996 q 464 973 444 996 q 496 910 483 950 l 254 743 l 215 785 m 350 -12 q 128 82 204 -12 q 51 324 51 176 q 91 519 51 433 q 201 652 131 604 q 361 700 272 700 q 532 626 475 700 q 589 447 589 553 q 575 349 589 374 q 522 324 561 324 l 174 324 q 226 151 174 218 q 392 85 278 85 q 477 92 440 85 q 534 108 514 100 q 558 118 554 115 l 578 79 q 547 52 578 76 q 465 8 515 28 q 350 -12 414 -12 m 472 399 q 476 454 476 424 q 447 578 476 538 q 340 619 417 619 q 217 561 257 619 q 175 388 176 503 l 472 399 z "},"ĕ":{"ha":638,"x_min":35,"x_max":572,"o":"m 35 0 m 333 -12 q 111 82 188 -12 q 35 324 35 176 q 74 519 35 433 q 185 652 114 604 q 344 700 256 700 q 515 626 458 700 q 572 447 572 553 q 558 349 572 374 q 506 324 544 324 l 157 324 q 209 151 157 218 q 375 85 261 85 q 460 92 424 85 q 517 108 497 100 q 542 118 538 115 l 561 79 q 530 52 561 76 q 448 8 499 28 q 333 -12 397 -12 m 456 399 q 460 454 460 424 q 430 578 460 538 q 324 619 400 619 q 200 561 240 619 q 158 388 160 503 l 456 399 m 199 981 q 210 942 199 971 q 254 885 221 913 q 350 858 288 858 q 444 886 411 858 q 489 944 478 914 q 500 983 500 974 l 547 972 q 534 906 547 953 q 475 813 521 858 q 340 768 429 768 q 204 811 251 768 q 142 900 157 854 q 128 963 128 946 l 199 981 z "},"ě":{"ha":654,"x_min":51,"x_max":589,"o":"m 336 756 q 265 800 310 756 l 132 935 l 179 983 l 346 863 l 507 985 l 542 939 l 407 800 q 336 756 365 756 m 350 -12 q 128 82 204 -12 q 51 324 51 176 q 91 519 51 433 q 201 652 131 604 q 361 700 272 700 q 532 626 475 700 q 589 447 589 553 q 575 349 589 374 q 522 324 561 324 l 174 324 q 226 151 174 218 q 392 85 278 85 q 477 92 440 85 q 534 108 514 100 q 558 118 554 115 l 578 79 q 547 52 578 76 q 465 8 515 28 q 350 -12 414 -12 m 472 399 q 476 454 476 424 q 447 578 476 538 q 340 619 417 619 q 217 561 257 619 q 175 388 176 503 l 472 399 z "},"ê":{"ha":654,"x_min":51,"x_max":589,"o":"m 319 872 l 160 757 l 121 801 l 268 949 q 332 986 306 986 q 385 957 356 986 l 532 804 l 483 756 l 319 872 m 350 -12 q 128 82 204 -12 q 51 324 51 176 q 91 519 51 433 q 201 652 131 604 q 361 700 272 700 q 532 626 475 700 q 589 447 589 553 q 575 349 589 374 q 522 324 561 324 l 174 324 q 226 151 174 218 q 392 85 278 85 q 477 92 440 85 q 534 108 514 100 q 558 118 554 115 l 578 79 q 547 52 578 76 q 465 8 515 28 q 350 -12 414 -12 m 472 399 q 476 454 476 424 q 447 578 476 538 q 340 619 417 619 q 217 561 257 619 q 175 388 176 503 l 472 399 z "},"ế":{"ha":638,"x_min":35,"x_max":693,"o":"m 35 0 m 333 -12 q 111 82 188 -12 q 35 324 35 176 q 74 519 35 433 q 185 652 114 604 q 344 700 256 700 q 515 626 458 700 q 572 447 572 553 q 558 349 572 374 q 506 324 544 324 l 157 324 q 209 151 157 218 q 375 85 261 85 q 460 92 424 85 q 517 108 497 100 q 542 118 538 115 l 561 79 q 530 52 561 76 q 448 8 499 28 q 333 -12 397 -12 m 456 399 q 460 454 460 424 q 430 578 460 538 q 324 619 400 619 q 200 561 240 619 q 158 388 160 503 l 456 399 m 239 949 q 303 986 276 986 q 356 957 326 986 l 503 804 l 454 756 l 290 872 l 131 757 l 92 801 l 239 949 m 564 1124 q 597 1156 585 1146 q 622 1167 608 1167 q 661 1144 642 1167 q 693 1081 681 1121 l 451 914 l 413 956 l 564 1124 z "},"ệ":{"ha":638,"x_min":35,"x_max":572,"o":"m 35 0 m 333 -12 q 111 82 188 -12 q 35 324 35 176 q 74 519 35 433 q 185 652 114 604 q 344 700 256 700 q 515 626 458 700 q 572 447 572 553 q 558 349 572 374 q 506 324 544 324 l 157 324 q 209 151 157 218 q 375 85 261 85 q 460 92 424 85 q 517 108 497 100 q 542 118 538 115 l 561 79 q 530 52 561 76 q 448 8 499 28 q 333 -12 397 -12 m 456 399 q 460 454 460 424 q 430 578 460 538 q 324 619 400 619 q 200 561 240 619 q 158 388 160 503 l 456 399 m 333 -239 q 277 -215 299 -239 q 256 -153 256 -192 q 280 -88 256 -115 q 340 -61 304 -61 q 397 -83 376 -61 q 418 -144 418 -106 q 395 -211 418 -183 q 333 -239 372 -239 m 279 949 q 343 986 317 986 q 396 957 367 986 l 543 804 l 494 756 l 331 872 l 171 757 l 132 801 l 279 949 z "},"ề":{"ha":638,"x_min":35,"x_max":572,"o":"m 35 0 m 333 -12 q 111 82 188 -12 q 35 324 35 176 q 74 519 35 433 q 185 652 114 604 q 344 700 256 700 q 515 626 458 700 q 572 447 572 553 q 558 349 572 374 q 506 324 544 324 l 157 324 q 209 151 157 218 q 375 85 261 85 q 460 92 424 85 q 517 108 497 100 q 542 118 538 115 l 561 79 q 530 52 561 76 q 448 8 499 28 q 333 -12 397 -12 m 456 399 q 460 454 460 424 q 430 578 460 538 q 324 619 400 619 q 200 561 240 619 q 158 388 160 503 l 456 399 m 261 949 q 325 986 299 986 q 378 957 349 986 l 525 804 l 476 756 l 313 872 l 153 757 l 114 801 l 261 949 m 279 1081 q 311 1144 292 1121 q 350 1167 331 1167 q 376 1156 364 1167 q 408 1124 388 1146 l 560 956 l 521 914 l 279 1081 z "},"ể":{"ha":638,"x_min":35,"x_max":631,"o":"m 35 0 m 333 -12 q 111 82 188 -12 q 35 324 35 176 q 74 519 35 433 q 185 652 114 604 q 344 700 256 700 q 515 626 458 700 q 572 447 572 553 q 558 349 572 374 q 506 324 544 324 l 157 324 q 209 151 157 218 q 375 85 261 85 q 460 92 424 85 q 517 108 497 100 q 542 118 538 115 l 561 79 q 530 52 561 76 q 448 8 499 28 q 333 -12 397 -12 m 456 399 q 460 454 460 424 q 430 578 460 538 q 324 619 400 619 q 200 561 240 619 q 158 388 160 503 l 456 399 m 246 949 q 310 986 283 986 q 363 957 333 986 l 510 804 l 461 756 l 297 872 l 138 757 l 99 801 l 246 949 m 447 915 q 435 960 435 943 q 447 990 435 978 q 488 1015 460 1003 q 526 1040 515 1029 q 536 1065 536 1050 q 468 1101 536 1101 q 381 1090 428 1101 q 368 1135 368 1114 q 384 1166 368 1156 q 451 1176 400 1176 q 583 1147 535 1176 q 631 1063 631 1118 q 610 1012 631 1032 q 550 974 590 992 q 519 954 525 963 q 513 931 513 946 l 513 924 l 447 915 z "},"ễ":{"ha":638,"x_min":35,"x_max":572,"o":"m 35 0 m 333 -12 q 111 82 188 -12 q 35 324 35 176 q 74 519 35 433 q 185 652 114 604 q 344 700 256 700 q 515 626 458 700 q 572 447 572 553 q 558 349 572 374 q 506 324 544 324 l 157 324 q 209 151 157 218 q 375 85 261 85 q 460 92 424 85 q 517 108 497 100 q 542 118 538 115 l 561 79 q 530 52 561 76 q 448 8 499 28 q 333 -12 397 -12 m 456 399 q 460 454 460 424 q 430 578 460 538 q 324 619 400 619 q 200 561 240 619 q 158 388 160 503 l 456 399 m 276 949 q 340 986 314 986 q 393 957 364 986 l 540 804 l 492 756 l 328 872 l 168 757 l 129 801 l 276 949 m 143 1115 q 181 1152 157 1139 q 231 1165 204 1165 q 290 1156 256 1165 q 329 1144 324 1146 l 446 1110 l 540 1157 l 571 1129 l 532 1064 q 494 1027 518 1040 q 444 1014 471 1014 q 385 1024 419 1014 q 346 1035 351 1033 l 229 1069 l 135 1022 l 104 1050 l 143 1115 z "},"ȅ":{"ha":638,"x_min":35,"x_max":572,"o":"m 35 0 m 333 -12 q 111 82 188 -12 q 35 324 35 176 q 74 519 35 433 q 185 652 114 604 q 344 700 256 700 q 515 626 458 700 q 572 447 572 553 q 558 349 572 374 q 506 324 544 324 l 157 324 q 209 151 157 218 q 375 85 261 85 q 460 92 424 85 q 517 108 497 100 q 542 118 538 115 l 561 79 q 530 52 561 76 q 448 8 499 28 q 333 -12 397 -12 m 456 399 q 460 454 460 424 q 430 578 460 538 q 324 619 400 619 q 200 561 240 619 q 158 388 160 503 l 456 399 m 279 775 l 238 744 l 60 935 q 99 984 79 968 q 132 1000 118 1000 q 165 986 153 1000 q 185 955 176 972 q 199 929 194 938 l 279 775 m 503 775 l 461 744 l 283 935 q 322 984 303 968 q 356 1000 342 1000 q 388 986 376 1000 q 409 955 400 972 q 422 929 418 938 l 503 775 z "},"ë":{"ha":654,"x_min":51,"x_max":589,"o":"m 194 799 q 143 820 163 799 q 124 876 124 842 q 145 935 124 911 q 200 960 167 960 q 251 940 232 960 q 271 885 271 919 q 250 824 271 849 q 194 799 229 799 m 488 799 q 436 820 456 799 q 417 876 417 842 q 438 935 417 911 q 493 960 460 960 q 544 940 525 960 q 564 885 564 919 q 543 824 564 849 q 488 799 522 799 m 350 -12 q 128 82 204 -12 q 51 324 51 176 q 91 519 51 433 q 201 652 131 604 q 361 700 272 700 q 532 626 475 700 q 589 447 589 553 q 575 349 589 374 q 522 324 561 324 l 174 324 q 226 151 174 218 q 392 85 278 85 q 477 92 440 85 q 534 108 514 100 q 558 118 554 115 l 578 79 q 547 52 578 76 q 465 8 515 28 q 350 -12 414 -12 m 472 399 q 476 454 476 424 q 447 578 476 538 q 340 619 417 619 q 217 561 257 619 q 175 388 176 503 l 472 399 z "},"ė":{"ha":654,"x_min":51,"x_max":589,"o":"m 342 789 q 285 813 307 789 q 264 875 264 836 q 288 940 264 913 q 349 967 313 967 q 406 944 385 967 q 426 883 426 922 q 403 817 426 844 q 342 789 381 789 m 350 -12 q 128 82 204 -12 q 51 324 51 176 q 91 519 51 433 q 201 652 131 604 q 361 700 272 700 q 532 626 475 700 q 589 447 589 553 q 575 349 589 374 q 522 324 561 324 l 174 324 q 226 151 174 218 q 392 85 278 85 q 477 92 440 85 q 534 108 514 100 q 558 118 554 115 l 578 79 q 547 52 578 76 q 465 8 515 28 q 350 -12 414 -12 m 472 399 q 476 454 476 424 q 447 578 476 538 q 340 619 417 619 q 217 561 257 619 q 175 388 176 503 l 472 399 z "},"ẹ":{"ha":638,"x_min":35,"x_max":572,"o":"m 35 0 m 333 -12 q 111 82 188 -12 q 35 324 35 176 q 74 519 35 433 q 185 652 114 604 q 344 700 256 700 q 515 626 458 700 q 572 447 572 553 q 558 349 572 374 q 506 324 544 324 l 157 324 q 209 151 157 218 q 375 85 261 85 q 460 92 424 85 q 517 108 497 100 q 542 118 538 115 l 561 79 q 530 52 561 76 q 448 8 499 28 q 333 -12 397 -12 m 456 399 q 460 454 460 424 q 430 578 460 538 q 324 619 400 619 q 200 561 240 619 q 158 388 160 503 l 456 399 m 333 -239 q 277 -215 299 -239 q 256 -153 256 -192 q 280 -88 256 -115 q 340 -61 304 -61 q 397 -83 376 -61 q 418 -144 418 -106 q 395 -211 418 -183 q 333 -239 372 -239 z "},"è":{"ha":654,"x_min":51,"x_max":589,"o":"m 183 910 q 215 973 196 950 q 254 996 235 996 q 280 985 268 996 q 313 953 292 975 l 464 785 l 425 743 l 183 910 m 350 -12 q 128 82 204 -12 q 51 324 51 176 q 91 519 51 433 q 201 652 131 604 q 361 700 272 700 q 532 626 475 700 q 589 447 589 553 q 575 349 589 374 q 522 324 561 324 l 174 324 q 226 151 174 218 q 392 85 278 85 q 477 92 440 85 q 534 108 514 100 q 558 118 554 115 l 578 79 q 547 52 578 76 q 465 8 515 28 q 350 -12 414 -12 m 472 399 q 476 454 476 424 q 447 578 476 538 q 340 619 417 619 q 217 561 257 619 q 175 388 176 503 l 472 399 z "},"ẻ":{"ha":638,"x_min":35,"x_max":572,"o":"m 35 0 m 333 -12 q 111 82 188 -12 q 35 324 35 176 q 74 519 35 433 q 185 652 114 604 q 344 700 256 700 q 515 626 458 700 q 572 447 572 553 q 558 349 572 374 q 506 324 544 324 l 157 324 q 209 151 157 218 q 375 85 261 85 q 460 92 424 85 q 517 108 497 100 q 542 118 538 115 l 561 79 q 530 52 561 76 q 448 8 499 28 q 333 -12 397 -12 m 456 399 q 460 454 460 424 q 430 578 460 538 q 324 619 400 619 q 200 561 240 619 q 158 388 160 503 l 456 399 m 303 744 q 290 789 290 772 q 303 819 290 807 q 343 844 315 832 q 381 869 371 858 q 392 894 392 879 q 324 931 392 931 q 236 919 283 931 q 224 964 224 943 q 240 995 224 985 q 307 1006 256 1006 q 438 976 390 1006 q 486 892 486 947 q 466 841 486 861 q 406 803 446 821 q 374 783 381 792 q 368 760 368 775 l 368 753 l 303 744 z "},"ȇ":{"ha":638,"x_min":35,"x_max":572,"o":"m 35 0 m 333 -12 q 111 82 188 -12 q 35 324 35 176 q 74 519 35 433 q 185 652 114 604 q 344 700 256 700 q 515 626 458 700 q 572 447 572 553 q 558 349 572 374 q 506 324 544 324 l 157 324 q 209 151 157 218 q 375 85 261 85 q 460 92 424 85 q 517 108 497 100 q 542 118 538 115 l 561 79 q 530 52 561 76 q 448 8 499 28 q 333 -12 397 -12 m 456 399 q 460 454 460 424 q 430 578 460 538 q 324 619 400 619 q 200 561 240 619 q 158 388 160 503 l 456 399 m 476 771 q 465 810 476 781 q 421 866 454 839 q 325 893 388 893 q 231 865 264 893 q 186 808 197 838 q 175 768 175 778 l 128 779 q 141 846 128 799 q 200 938 154 893 q 335 983 246 983 q 471 940 424 983 q 533 851 518 897 q 547 789 547 806 l 476 771 z "},"ē":{"ha":654,"x_min":51,"x_max":589,"o":"m 110 842 l 124 921 l 585 921 l 571 842 l 110 842 m 350 -12 q 128 82 204 -12 q 51 324 51 176 q 91 519 51 433 q 201 652 131 604 q 361 700 272 700 q 532 626 475 700 q 589 447 589 553 q 575 349 589 374 q 522 324 561 324 l 174 324 q 226 151 174 218 q 392 85 278 85 q 477 92 440 85 q 534 108 514 100 q 558 118 554 115 l 578 79 q 547 52 578 76 q 465 8 515 28 q 350 -12 414 -12 m 472 399 q 476 454 476 424 q 447 578 476 538 q 340 619 417 619 q 217 561 257 619 q 175 388 176 503 l 472 399 z "},"ę":{"ha":654,"x_min":51,"x_max":589,"o":"m 425 -260 q 342 -233 374 -260 q 310 -157 310 -207 q 335 -74 310 -111 q 401 -8 361 -36 q 350 -12 376 -12 q 128 82 204 -12 q 51 324 51 176 q 91 519 51 433 q 201 652 131 604 q 361 700 272 700 q 532 626 475 700 q 589 447 589 553 q 575 349 589 374 q 522 324 561 324 l 174 324 q 226 151 174 218 q 392 85 278 85 q 477 92 440 85 q 534 108 514 100 q 558 118 554 115 l 578 79 q 553 58 578 78 q 497 22 529 38 q 431 -42 461 -3 q 401 -115 401 -81 q 461 -176 401 -176 q 540 -147 490 -176 l 565 -189 q 544 -209 565 -190 q 491 -244 522 -228 q 425 -260 460 -260 m 472 399 q 476 454 476 424 q 447 578 476 538 q 340 619 417 619 q 217 561 257 619 q 175 388 176 503 l 472 399 z "},"ẽ":{"ha":638,"x_min":35,"x_max":572,"o":"m 35 0 m 333 -12 q 111 82 188 -12 q 35 324 35 176 q 74 519 35 433 q 185 652 114 604 q 344 700 256 700 q 515 626 458 700 q 572 447 572 553 q 558 349 572 374 q 506 324 544 324 l 157 324 q 209 151 157 218 q 375 85 261 85 q 460 92 424 85 q 517 108 497 100 q 542 118 538 115 l 561 79 q 530 52 561 76 q 448 8 499 28 q 333 -12 397 -12 m 456 399 q 460 454 460 424 q 430 578 460 538 q 324 619 400 619 q 200 561 240 619 q 158 388 160 503 l 456 399 m 143 899 q 181 935 157 922 q 231 949 204 949 q 290 939 256 949 q 329 928 324 929 l 446 893 l 540 940 l 571 913 l 532 847 q 494 810 518 824 q 444 797 471 797 q 385 807 419 797 q 346 818 351 817 l 229 853 l 135 806 l 104 833 l 143 899 z "},"ə":{"ha":638,"x_min":65,"x_max":603,"o":"m 304 699 q 526 604 450 699 q 603 363 603 510 q 563 167 603 253 q 453 34 524 82 q 293 -14 382 -14 q 122 60 179 -14 q 65 239 65 133 q 79 338 65 313 q 132 363 93 363 l 481 363 q 428 535 481 468 q 263 601 376 601 q 177 594 214 601 q 120 578 140 586 q 96 568 100 571 l 76 607 q 108 634 76 610 q 190 678 139 658 q 304 699 240 699 m 182 288 q 178 232 178 263 q 208 108 178 149 q 314 67 238 67 q 438 125 397 67 q 479 299 478 183 l 182 288 z "},"f":{"ha":417,"x_min":21,"x_max":468,"o":"m 21 57 l 117 76 l 117 607 l 32 607 l 32 672 l 115 689 q 160 835 121 771 q 260 937 199 900 q 390 974 321 974 q 448 955 428 974 q 468 907 468 936 q 455 865 468 883 q 429 840 442 846 q 326 867 360 858 q 275 875 293 875 q 231 863 249 875 l 231 686 l 407 686 l 407 643 l 389 607 l 231 607 l 231 79 l 375 57 l 375 0 l 21 0 l 21 57 z "},"g":{"ha":640,"x_min":31,"x_max":654,"o":"m 297 -231 q 106 -192 182 -231 q 31 -76 31 -154 q 77 27 31 -14 q 189 101 124 68 q 169 132 176 113 q 161 174 161 151 q 179 222 161 199 q 224 264 197 246 q 96 336 138 282 q 54 463 54 390 q 90 583 54 529 q 187 669 125 638 q 322 700 249 700 q 471 657 414 700 q 508 687 472 658 q 593 715 544 715 q 654 656 654 715 q 629 594 654 624 l 578 606 q 549 610 567 607 q 514 614 532 614 q 545 549 535 585 q 556 481 556 514 q 520 363 556 414 q 425 285 485 313 q 296 257 365 257 l 278 257 l 278 179 l 425 150 q 578 95 526 131 q 629 -11 629 60 q 585 -127 629 -78 q 465 -203 540 -176 q 297 -231 389 -231 m 307 338 q 409 369 375 338 q 443 481 443 400 q 412 584 443 549 q 310 619 381 619 q 202 584 235 619 q 169 474 169 549 q 204 370 169 403 q 307 338 239 338 m 328 -158 q 471 -127 419 -158 q 522 -44 522 -96 q 502 10 522 -12 q 426 43 482 32 l 235 79 q 172 15 199 54 q 146 -58 146 -24 q 188 -135 146 -112 q 328 -158 231 -158 z "},"ǵ":{"ha":640,"x_min":31,"x_max":654,"o":"m 31 0 m 297 -231 q 106 -192 182 -231 q 31 -76 31 -154 q 77 27 31 -14 q 189 101 124 68 q 169 132 176 113 q 161 174 161 151 q 179 222 161 199 q 224 264 197 246 q 96 336 138 282 q 54 463 54 390 q 90 583 54 529 q 187 669 125 638 q 322 700 249 700 q 471 657 414 700 q 508 687 472 658 q 593 715 544 715 q 654 656 654 715 q 629 594 654 624 l 578 606 q 549 610 567 607 q 514 614 532 614 q 545 549 535 585 q 556 481 556 514 q 520 363 556 414 q 425 285 485 313 q 296 257 365 257 l 278 257 l 278 179 l 425 150 q 578 95 526 131 q 629 -11 629 60 q 585 -127 629 -78 q 465 -203 540 -176 q 297 -231 389 -231 m 307 338 q 409 369 375 338 q 443 481 443 400 q 412 584 443 549 q 310 619 381 619 q 202 584 235 619 q 169 474 169 549 q 204 370 169 403 q 307 338 239 338 m 328 -158 q 471 -127 419 -158 q 522 -44 522 -96 q 502 10 522 -12 q 426 43 482 32 l 235 79 q 172 15 199 54 q 146 -58 146 -24 q 188 -135 146 -112 q 328 -158 231 -158 m 401 953 q 434 985 422 975 q 460 996 446 996 q 499 973 479 996 q 531 910 518 950 l 289 743 l 250 785 l 401 953 z "},"ğ":{"ha":647,"x_min":31,"x_max":654,"o":"m 307 768 q 171 811 218 768 q 109 900 124 854 q 94 963 94 946 l 165 981 q 176 942 165 971 q 221 885 188 913 q 317 858 254 858 q 411 886 378 858 q 456 944 444 914 q 467 983 467 974 l 514 972 q 501 906 514 953 q 442 813 488 858 q 307 768 396 768 m 297 -231 q 106 -192 182 -231 q 31 -76 31 -154 q 77 27 31 -14 q 189 101 124 68 q 169 132 176 113 q 161 174 161 151 q 179 222 161 199 q 224 264 197 246 q 96 336 138 282 q 54 463 54 390 q 90 583 54 529 q 187 669 125 638 q 322 700 249 700 q 471 657 414 700 q 508 687 472 658 q 593 715 544 715 q 654 656 654 715 q 629 594 654 624 l 578 606 q 549 610 567 607 q 514 614 532 614 q 545 549 535 585 q 556 481 556 514 q 520 363 556 414 q 425 285 485 313 q 296 257 365 257 l 278 257 l 278 179 l 425 150 q 578 95 526 131 q 629 -11 629 60 q 585 -127 629 -78 q 465 -203 540 -176 q 297 -231 389 -231 m 307 338 q 409 369 375 338 q 443 481 443 400 q 412 584 443 549 q 310 619 381 619 q 202 584 235 619 q 169 474 169 549 q 204 370 169 403 q 307 338 239 338 m 328 -158 q 471 -127 419 -158 q 522 -44 522 -96 q 502 10 522 -12 q 426 43 482 32 l 235 79 q 172 15 199 54 q 146 -58 146 -24 q 188 -135 146 -112 q 328 -158 231 -158 z "},"ǧ":{"ha":640,"x_min":31,"x_max":654,"o":"m 31 0 m 297 -231 q 106 -192 182 -231 q 31 -76 31 -154 q 77 27 31 -14 q 189 101 124 68 q 169 132 176 113 q 161 174 161 151 q 179 222 161 199 q 224 264 197 246 q 96 336 138 282 q 54 463 54 390 q 90 583 54 529 q 187 669 125 638 q 322 700 249 700 q 471 657 414 700 q 508 687 472 658 q 593 715 544 715 q 654 656 654 715 q 629 594 654 624 l 578 606 q 549 610 567 607 q 514 614 532 614 q 545 549 535 585 q 556 481 556 514 q 520 363 556 414 q 425 285 485 313 q 296 257 365 257 l 278 257 l 278 179 l 425 150 q 578 95 526 131 q 629 -11 629 60 q 585 -127 629 -78 q 465 -203 540 -176 q 297 -231 389 -231 m 307 338 q 409 369 375 338 q 443 481 443 400 q 412 584 443 549 q 310 619 381 619 q 202 584 235 619 q 169 474 169 549 q 204 370 169 403 q 307 338 239 338 m 328 -158 q 471 -127 419 -158 q 522 -44 522 -96 q 502 10 522 -12 q 426 43 482 32 l 235 79 q 172 15 199 54 q 146 -58 146 -24 q 188 -135 146 -112 q 328 -158 231 -158 m 319 756 q 249 800 293 756 l 115 935 l 163 983 l 329 863 l 490 985 l 525 939 l 390 800 q 319 756 349 756 z "},"ĝ":{"ha":640,"x_min":31,"x_max":654,"o":"m 31 0 m 297 -231 q 106 -192 182 -231 q 31 -76 31 -154 q 77 27 31 -14 q 189 101 124 68 q 169 132 176 113 q 161 174 161 151 q 179 222 161 199 q 224 264 197 246 q 96 336 138 282 q 54 463 54 390 q 90 583 54 529 q 187 669 125 638 q 322 700 249 700 q 471 657 414 700 q 508 687 472 658 q 593 715 544 715 q 654 656 654 715 q 629 594 654 624 l 578 606 q 549 610 567 607 q 514 614 532 614 q 545 549 535 585 q 556 481 556 514 q 520 363 556 414 q 425 285 485 313 q 296 257 365 257 l 278 257 l 278 179 l 425 150 q 578 95 526 131 q 629 -11 629 60 q 585 -127 629 -78 q 465 -203 540 -176 q 297 -231 389 -231 m 307 338 q 409 369 375 338 q 443 481 443 400 q 412 584 443 549 q 310 619 381 619 q 202 584 235 619 q 169 474 169 549 q 204 370 169 403 q 307 338 239 338 m 328 -158 q 471 -127 419 -158 q 522 -44 522 -96 q 502 10 522 -12 q 426 43 482 32 l 235 79 q 172 15 199 54 q 146 -58 146 -24 q 188 -135 146 -112 q 328 -158 231 -158 m 263 949 q 326 986 300 986 q 379 957 350 986 l 526 804 l 478 756 l 314 872 l 154 757 l 115 801 l 263 949 z "},"ģ":{"ha":647,"x_min":31,"x_max":654,"o":"m 307 760 q 275 767 292 760 q 244 790 258 775 q 281 869 281 824 q 251 1006 281 921 l 294 1006 q 317 979 294 1008 q 356 912 339 950 q 374 832 374 874 q 357 781 374 803 q 307 760 340 760 m 297 -231 q 106 -192 182 -231 q 31 -76 31 -154 q 77 27 31 -14 q 189 101 124 68 q 169 132 176 113 q 161 174 161 151 q 179 222 161 199 q 224 264 197 246 q 96 336 138 282 q 54 463 54 390 q 90 583 54 529 q 187 669 125 638 q 322 700 249 700 q 471 657 414 700 q 508 687 472 658 q 593 715 544 715 q 654 656 654 715 q 629 594 654 624 l 578 606 q 549 610 567 607 q 514 614 532 614 q 545 549 535 585 q 556 481 556 514 q 520 363 556 414 q 425 285 485 313 q 296 257 365 257 l 278 257 l 278 179 l 425 150 q 578 95 526 131 q 629 -11 629 60 q 585 -127 629 -78 q 465 -203 540 -176 q 297 -231 389 -231 m 307 338 q 409 369 375 338 q 443 481 443 400 q 412 584 443 549 q 310 619 381 619 q 202 584 235 619 q 169 474 169 549 q 204 370 169 403 q 307 338 239 338 m 328 -158 q 471 -127 419 -158 q 522 -44 522 -96 q 502 10 522 -12 q 426 43 482 32 l 235 79 q 172 15 199 54 q 146 -58 146 -24 q 188 -135 146 -112 q 328 -158 231 -158 z "},"ġ":{"ha":640,"x_min":31,"x_max":654,"o":"m 31 0 m 297 -231 q 106 -192 182 -231 q 31 -76 31 -154 q 77 27 31 -14 q 189 101 124 68 q 169 132 176 113 q 161 174 161 151 q 179 222 161 199 q 224 264 197 246 q 96 336 138 282 q 54 463 54 390 q 90 583 54 529 q 187 669 125 638 q 322 700 249 700 q 471 657 414 700 q 508 687 472 658 q 593 715 544 715 q 654 656 654 715 q 629 594 654 624 l 578 606 q 549 610 567 607 q 514 614 532 614 q 545 549 535 585 q 556 481 556 514 q 520 363 556 414 q 425 285 485 313 q 296 257 365 257 l 278 257 l 278 179 l 425 150 q 578 95 526 131 q 629 -11 629 60 q 585 -127 629 -78 q 465 -203 540 -176 q 297 -231 389 -231 m 307 338 q 409 369 375 338 q 443 481 443 400 q 412 584 443 549 q 310 619 381 619 q 202 584 235 619 q 169 474 169 549 q 204 370 169 403 q 307 338 239 338 m 328 -158 q 471 -127 419 -158 q 522 -44 522 -96 q 502 10 522 -12 q 426 43 482 32 l 235 79 q 172 15 199 54 q 146 -58 146 -24 q 188 -135 146 -112 q 328 -158 231 -158 m 317 789 q 260 813 282 789 q 239 875 239 836 q 263 940 239 913 q 324 967 288 967 q 381 944 360 967 q 401 883 401 922 q 378 817 401 844 q 317 789 356 789 z "},"h":{"ha":799,"x_min":33,"x_max":771,"o":"m 33 57 l 146 76 l 146 864 l 35 883 l 35 940 l 228 971 l 260 958 l 260 629 q 369 680 307 660 q 478 700 431 700 q 608 654 557 700 q 660 510 660 608 l 660 76 l 771 57 l 771 0 l 438 0 l 438 57 l 546 76 l 546 490 q 510 578 546 553 q 400 603 474 603 q 332 597 372 603 q 260 585 292 592 l 260 76 l 369 57 l 369 0 l 33 0 l 33 57 z "},"ħ":{"ha":799,"x_min":32,"x_max":771,"o":"m 33 57 l 146 76 l 146 767 l 32 767 l 32 833 l 146 833 l 146 875 l 32 893 l 32 947 l 221 971 l 260 951 l 260 833 l 450 833 l 450 767 l 260 767 l 260 629 q 297 649 260 631 q 381 684 333 668 q 478 700 429 700 q 608 654 557 700 q 660 510 660 608 l 660 76 l 771 57 l 771 0 l 438 0 l 438 57 l 546 76 l 546 490 q 510 578 546 553 q 400 603 474 603 q 317 595 361 603 q 260 585 272 588 l 260 76 l 369 57 l 369 0 l 33 0 l 33 57 z "},"ĥ":{"ha":799,"x_min":-3,"x_max":771,"o":"m 0 0 m 33 57 l 146 76 l 146 864 l 35 883 l 35 940 l 228 971 l 260 958 l 260 629 q 369 680 307 660 q 478 700 431 700 q 608 654 557 700 q 660 510 660 608 l 660 76 l 771 57 l 771 0 l 438 0 l 438 57 l 546 76 l 546 490 q 510 578 546 553 q 400 603 474 603 q 332 597 372 603 q 260 585 292 592 l 260 76 l 369 57 l 369 0 l 33 0 l 33 57 m 144 1163 q 208 1200 182 1200 q 261 1171 232 1200 l 408 1018 l 360 969 l 196 1086 l 36 971 l -3 1015 l 144 1163 z "},"ḥ":{"ha":799,"x_min":33,"x_max":771,"o":"m 33 0 m 33 57 l 146 76 l 146 864 l 35 883 l 35 940 l 228 971 l 260 958 l 260 629 q 369 680 307 660 q 478 700 431 700 q 608 654 557 700 q 660 510 660 608 l 660 76 l 771 57 l 771 0 l 438 0 l 438 57 l 546 76 l 546 490 q 510 578 546 553 q 400 603 474 603 q 332 597 372 603 q 260 585 292 592 l 260 76 l 369 57 l 369 0 l 33 0 l 33 57 m 396 -239 q 340 -215 361 -239 q 318 -153 318 -192 q 342 -88 318 -115 q 403 -61 367 -61 q 460 -83 439 -61 q 481 -144 481 -106 q 458 -211 481 -183 q 396 -239 435 -239 z "},"i":{"ha":407,"x_min":39,"x_max":372,"o":"m 193 789 q 137 813 158 789 q 115 875 115 836 q 140 940 115 913 q 200 967 164 967 q 257 944 236 967 q 278 883 278 922 q 255 817 278 844 q 193 789 232 789 m 39 57 l 150 76 l 150 571 l 39 590 l 39 647 l 232 686 l 264 674 l 264 76 l 372 57 l 372 0 l 39 0 l 39 57 z "},"ı":{"ha":407,"x_min":39,"x_max":372,"o":"m 39 57 l 150 76 l 150 571 l 39 590 l 39 647 l 232 686 l 264 674 l 264 76 l 372 57 l 372 0 l 39 0 l 39 57 z "},"í":{"ha":407,"x_min":39,"x_max":372,"o":"m 53 785 l 204 953 q 237 985 225 975 q 263 996 249 996 q 301 973 282 996 q 333 910 321 950 l 92 743 l 53 785 m 39 0 l 39 57 l 150 76 l 150 571 l 39 590 l 39 647 l 232 686 l 264 674 l 264 76 l 372 57 l 372 0 l 39 0 z "},"ĭ":{"ha":407,"x_min":-3,"x_max":417,"o":"m 0 0 m 39 57 l 150 76 l 150 571 l 39 590 l 39 647 l 232 686 l 264 674 l 264 76 l 372 57 l 372 0 l 39 0 l 39 57 m 68 981 q 79 942 68 971 q 124 885 90 913 q 219 858 157 858 q 314 886 281 858 q 358 944 347 914 q 369 983 369 974 l 417 972 q 403 906 417 953 q 344 813 390 858 q 210 768 299 768 q 74 811 121 768 q 12 900 26 854 q -3 963 -3 946 l 68 981 z "},"ǐ":{"ha":407,"x_min":1,"x_max":411,"o":"m 1 0 m 39 57 l 150 76 l 150 571 l 39 590 l 39 647 l 232 686 l 264 674 l 264 76 l 372 57 l 372 0 l 39 0 l 39 57 m 206 756 q 135 800 179 756 l 1 935 l 49 983 l 215 863 l 376 985 l 411 939 l 276 800 q 206 756 235 756 z "},"î":{"ha":407,"x_min":-21,"x_max":372,"o":"m 85 926 q 168 999 147 999 q 249 926 188 999 l 346 814 l 301 769 l 164 878 l 14 772 l -21 811 l 85 926 m 39 57 l 150 76 l 150 571 l 39 590 l 39 647 l 232 686 l 264 674 l 264 76 l 372 57 l 372 0 l 39 0 l 39 57 z "},"ȉ":{"ha":407,"x_min":-71,"x_max":372,"o":"m 0 0 m 39 57 l 150 76 l 150 571 l 39 590 l 39 647 l 232 686 l 264 674 l 264 76 l 372 57 l 372 0 l 39 0 l 39 57 m 149 775 l 107 744 l -71 935 q -32 984 -51 968 q 1 1000 -12 1000 q 34 986 22 1000 q 55 955 46 972 q 68 929 64 938 l 149 775 m 372 775 l 331 744 l 153 935 q 192 984 172 968 q 225 1000 211 1000 q 258 986 246 1000 q 278 955 269 972 q 292 929 288 938 l 372 775 z "},"ï":{"ha":407,"x_min":-18,"x_max":372,"o":"m 53 796 q 1 817 21 796 q -18 874 -18 839 q 3 933 -18 908 q 58 957 25 957 q 110 937 90 957 q 129 882 129 917 q 108 821 129 846 q 53 796 88 796 m 290 796 q 239 817 258 796 q 219 874 219 839 q 241 933 219 908 q 296 957 263 957 q 347 937 328 957 q 367 882 367 917 q 346 821 367 846 q 290 796 325 796 m 39 0 l 39 57 l 150 76 l 150 571 l 39 590 l 39 647 l 232 686 l 264 674 l 264 76 l 372 57 l 372 0 l 39 0 z "},"ị":{"ha":407,"x_min":39,"x_max":372,"o":"m 39 0 m 193 789 q 137 813 158 789 q 115 875 115 836 q 140 940 115 913 q 200 967 164 967 q 257 944 236 967 q 278 883 278 922 q 255 817 278 844 q 193 789 232 789 m 39 57 l 150 76 l 150 571 l 39 590 l 39 647 l 232 686 l 264 674 l 264 76 l 372 57 l 372 0 l 39 0 l 39 57 m 203 -239 q 147 -215 168 -239 q 125 -153 125 -192 q 149 -88 125 -115 q 210 -61 174 -61 q 267 -83 246 -61 q 288 -144 288 -106 q 265 -211 288 -183 q 203 -239 242 -239 z "},"ì":{"ha":407,"x_min":19,"x_max":372,"o":"m 19 910 q 51 973 32 950 q 90 996 71 996 q 116 985 104 996 q 149 953 128 975 l 300 785 l 261 743 l 19 910 m 39 57 l 150 76 l 150 571 l 39 590 l 39 647 l 232 686 l 264 674 l 264 76 l 372 57 l 372 0 l 39 0 l 39 57 z "},"ỉ":{"ha":407,"x_min":39,"x_max":372,"o":"m 39 0 m 39 57 l 150 76 l 150 571 l 39 590 l 39 647 l 232 686 l 264 674 l 264 76 l 372 57 l 372 0 l 39 0 l 39 57 m 172 744 q 160 789 160 772 q 172 819 160 807 q 213 844 185 832 q 251 869 240 858 q 261 894 261 879 q 193 931 261 931 q 106 919 153 931 q 93 964 93 943 q 109 995 93 985 q 176 1006 125 1006 q 308 976 260 1006 q 356 892 356 947 q 335 841 356 861 q 275 803 315 821 q 244 783 250 792 q 238 760 238 775 l 238 753 l 172 744 z "},"ȋ":{"ha":407,"x_min":-3,"x_max":417,"o":"m 0 0 m 39 57 l 150 76 l 150 571 l 39 590 l 39 647 l 232 686 l 264 674 l 264 76 l 372 57 l 372 0 l 39 0 l 39 57 m 346 771 q 335 810 346 781 q 290 866 324 839 q 194 893 257 893 q 100 865 133 893 q 56 808 67 838 q 44 768 44 778 l -3 779 q 10 846 -3 799 q 69 938 24 893 q 204 983 115 983 q 340 940 293 983 q 402 851 388 897 q 417 789 417 806 l 346 771 z "},"ĳ":{"ha":767,"x_min":39,"x_max":661,"o":"m 39 0 m 193 789 q 137 813 158 789 q 115 875 115 836 q 140 940 115 913 q 200 967 164 967 q 257 944 236 967 q 278 883 278 922 q 255 817 278 844 q 193 789 232 789 m 39 57 l 150 76 l 150 571 l 39 590 l 39 647 l 232 686 l 264 674 l 264 76 l 372 57 l 372 0 l 39 0 l 39 57 m 576 789 q 520 813 542 789 q 499 875 499 836 q 523 940 499 913 q 583 967 547 967 q 640 944 619 967 q 661 883 661 922 q 638 817 661 844 q 576 789 615 789 m 504 -229 q 426 -223 463 -229 q 389 -215 389 -217 l 389 -162 l 539 -126 l 539 571 l 428 590 l 428 647 l 621 686 l 653 674 l 653 -115 q 615 -199 653 -169 q 504 -229 576 -229 z "},"ī":{"ha":407,"x_min":-33,"x_max":372,"o":"m -33 842 l -22 925 l 361 925 l 350 842 l -33 842 m 39 0 l 39 57 l 150 76 l 150 571 l 39 590 l 39 647 l 232 686 l 264 674 l 264 76 l 372 57 l 372 0 l 39 0 z "},"į":{"ha":407,"x_min":39,"x_max":426,"o":"m 194 789 q 138 813 160 789 q 117 875 117 836 q 141 940 117 913 q 201 967 165 967 q 258 944 238 967 q 279 883 279 922 q 256 817 279 844 q 194 789 233 789 m 150 76 l 150 571 l 39 590 l 39 647 l 232 686 l 264 674 l 264 76 l 372 57 l 372 0 l 340 0 q 263 -115 263 -61 q 322 -176 263 -176 q 401 -147 351 -176 l 426 -189 q 405 -209 426 -190 q 352 -244 383 -228 q 286 -260 321 -260 q 203 -233 235 -260 q 171 -157 171 -207 q 200 -67 171 -107 q 275 0 229 -28 l 39 0 l 39 57 l 150 76 z "},"ĩ":{"ha":407,"x_min":-26,"x_max":440,"o":"m 0 0 m 39 57 l 150 76 l 150 571 l 39 590 l 39 647 l 232 686 l 264 674 l 264 76 l 372 57 l 372 0 l 39 0 l 39 57 m 13 899 q 50 935 26 922 q 100 949 74 949 q 159 939 125 949 q 199 928 193 929 l 315 893 l 410 940 l 440 913 l 401 847 q 364 810 388 824 q 314 797 340 797 q 255 807 289 797 q 215 818 221 817 l 99 853 l 4 806 l -26 833 l 13 899 z "},"j":{"ha":360,"x_min":-18,"x_max":254,"o":"m 169 789 q 113 813 135 789 q 92 875 92 836 q 116 940 92 913 q 176 967 140 967 q 233 944 213 967 q 254 883 254 922 q 231 817 254 844 q 169 789 208 789 m 97 -229 q 19 -223 56 -229 q -18 -215 -18 -217 l -18 -162 l 132 -126 l 132 571 l 21 590 l 21 647 l 214 686 l 246 674 l 246 -115 q 208 -199 246 -169 q 97 -229 169 -229 z "},"ȷ":{"ha":360,"x_min":-18,"x_max":246,"o":"m 132 -126 l 132 571 l 21 590 l 21 647 l 214 686 l 246 674 l 246 -115 q 208 -199 246 -169 q 97 -229 169 -229 q 19 -223 56 -229 q -18 -215 -18 -217 l -18 -162 l 132 -126 z "},"ĵ":{"ha":360,"x_min":-18,"x_max":394,"o":"m 0 0 m 132 -126 l 132 571 l 21 590 l 21 647 l 214 686 l 246 674 l 246 -115 q 208 -199 246 -169 q 97 -229 169 -229 q 19 -223 56 -229 q -18 -215 -18 -217 l -18 -162 l 132 -126 m 131 949 q 194 986 168 986 q 247 957 218 986 l 394 804 l 346 756 l 182 872 l 22 757 l -17 801 l 131 949 z "},"k":{"ha":679,"x_min":26,"x_max":715,"o":"m 138 76 l 138 864 l 26 883 l 26 940 l 219 971 l 251 958 l 251 410 l 329 410 l 476 593 l 476 613 l 394 631 l 394 686 l 661 686 l 661 629 l 578 607 l 417 401 l 601 82 l 715 57 l 715 0 l 490 0 l 490 25 q 481 60 490 46 l 324 336 l 251 336 l 251 76 l 360 57 l 360 0 l 26 0 l 26 57 l 138 76 z "},"ķ":{"ha":679,"x_min":26,"x_max":715,"o":"m 138 76 l 138 864 l 26 883 l 26 940 l 219 971 l 251 958 l 251 410 l 329 410 l 476 593 l 476 613 l 394 631 l 394 686 l 661 686 l 661 629 l 578 607 l 417 401 l 601 82 l 715 57 l 715 0 l 490 0 l 490 25 q 481 60 490 46 l 324 336 l 251 336 l 251 76 l 360 57 l 360 0 l 26 0 l 26 57 l 138 76 m 325 -260 q 343 -200 338 -224 q 349 -150 349 -176 q 313 -71 349 -104 q 343 -48 326 -56 q 375 -40 360 -40 q 425 -62 408 -40 q 442 -112 442 -83 q 425 -187 442 -154 q 388 -241 408 -219 q 368 -260 368 -262 l 325 -260 z "},"ĸ":{"ha":689,"x_min":36,"x_max":725,"o":"m 147 76 l 147 571 l 36 590 l 36 647 l 229 686 l 261 674 l 261 410 l 339 410 l 486 593 l 486 613 l 404 631 l 404 686 l 671 686 l 671 629 l 588 607 l 426 401 l 611 82 l 725 57 l 725 0 l 500 0 l 500 25 q 490 60 500 46 l 333 336 l 261 336 l 261 76 l 369 57 l 369 0 l 36 0 l 36 57 l 147 76 z "},"l":{"ha":393,"x_min":26,"x_max":360,"o":"m 26 57 l 138 76 l 138 864 l 26 883 l 26 940 l 219 971 l 251 958 l 251 76 l 360 57 l 360 0 l 26 0 l 26 57 z "},"ĺ":{"ha":393,"x_min":1,"x_max":360,"o":"m 1 997 l 183 1133 q 216 1155 200 1146 q 242 1164 232 1164 q 279 1139 263 1164 q 300 1068 296 1114 l 32 949 l 1 997 m 26 0 l 26 57 l 138 76 l 138 864 l 26 883 l 26 940 l 219 971 l 251 958 l 251 76 l 360 57 l 360 0 l 26 0 z "},"ľ":{"ha":404,"x_min":26,"x_max":442,"o":"m 322 753 q 338 819 332 782 q 344 885 344 856 q 310 967 344 925 q 372 999 332 999 q 424 977 407 999 q 442 924 442 956 q 425 858 442 896 q 390 790 408 819 q 367 753 372 761 l 322 753 m 26 0 l 26 57 l 138 76 l 138 864 l 26 883 l 26 940 l 219 971 l 251 958 l 251 76 l 360 57 l 360 0 l 26 0 z "},"ļ":{"ha":393,"x_min":26,"x_max":360,"o":"m 26 0 l 26 57 l 138 76 l 138 864 l 26 883 l 26 940 l 219 971 l 251 958 l 251 76 l 360 57 l 360 0 l 26 0 m 138 -260 q 156 -200 150 -224 q 161 -150 161 -176 q 125 -71 161 -104 q 156 -48 139 -56 q 188 -40 172 -40 q 238 -62 221 -40 q 254 -112 254 -83 q 238 -187 254 -154 q 201 -241 221 -219 q 181 -260 181 -262 l 138 -260 z "},"ŀ":{"ha":393,"x_min":26,"x_max":468,"o":"m 26 0 m 26 57 l 138 76 l 138 864 l 26 883 l 26 940 l 219 971 l 251 958 l 251 76 l 360 57 l 360 0 l 26 0 l 26 57 m 382 410 q 324 434 346 410 q 303 497 303 458 q 327 563 303 536 q 389 590 351 590 q 447 567 425 590 q 468 506 468 544 q 445 438 468 465 q 382 410 422 410 z "},"ǉ":{"ha":753,"x_min":26,"x_max":647,"o":"m 26 0 m 26 57 l 138 76 l 138 864 l 26 883 l 26 940 l 219 971 l 251 958 l 251 76 l 360 57 l 360 0 l 26 0 l 26 57 m 563 789 q 506 813 528 789 q 485 875 485 836 q 509 940 485 913 q 569 967 533 967 q 626 944 606 967 q 647 883 647 922 q 624 817 647 844 q 563 789 601 789 m 490 -229 q 412 -223 449 -229 q 375 -215 375 -217 l 375 -162 l 525 -126 l 525 571 l 414 590 l 414 647 l 607 686 l 639 674 l 639 -115 q 601 -199 639 -169 q 490 -229 563 -229 z "},"ł":{"ha":393,"x_min":-1,"x_max":394,"o":"m 26 57 l 138 76 l 138 424 l -1 374 l -1 456 l 138 507 l 138 864 l 26 883 l 26 940 l 219 971 l 251 958 l 251 549 l 394 603 l 394 515 l 251 464 l 251 76 l 360 57 l 360 0 l 26 0 l 26 57 z "},"m":{"ha":1178,"x_min":36,"x_max":1150,"o":"m 36 57 l 147 76 l 147 572 l 36 594 l 36 647 l 224 686 l 261 629 q 367 680 308 660 q 471 700 426 700 q 561 679 518 700 q 626 625 604 658 q 736 678 667 656 q 860 700 806 700 q 988 649 936 700 q 1039 522 1039 599 l 1039 76 l 1150 57 l 1150 0 l 817 0 l 817 57 l 925 76 l 925 490 q 894 577 925 551 q 789 603 863 603 q 722 597 763 603 q 649 585 681 592 l 649 550 l 649 76 l 736 56 l 736 0 l 444 0 l 444 56 l 535 76 l 535 490 q 504 577 535 551 q 400 603 474 603 q 336 597 375 603 q 261 583 297 592 l 261 76 l 371 57 l 371 0 l 36 0 l 36 57 z "},"n":{"ha":800,"x_min":36,"x_max":772,"o":"m 36 57 l 147 76 l 147 571 l 36 590 l 36 647 l 243 686 l 254 640 l 257 632 q 479 700 383 700 q 613 650 565 700 q 661 510 661 600 l 661 76 l 772 57 l 772 0 l 439 0 l 439 57 l 547 76 l 547 490 q 513 576 547 550 q 401 603 478 603 q 325 598 365 603 q 261 586 285 593 l 261 76 l 369 57 l 369 0 l 36 0 l 36 57 z "},"ń":{"ha":800,"x_min":36,"x_max":772,"o":"m 276 785 l 428 953 q 460 985 449 975 q 486 996 472 996 q 525 973 506 996 q 557 910 544 950 l 315 743 l 276 785 m 36 57 l 147 76 l 147 571 l 36 590 l 36 647 l 243 686 l 254 640 l 257 632 q 479 700 383 700 q 613 650 565 700 q 661 510 661 600 l 661 76 l 772 57 l 772 0 l 439 0 l 439 57 l 547 76 l 547 490 q 513 576 547 550 q 401 603 478 603 q 325 598 365 603 q 261 586 285 593 l 261 76 l 369 57 l 369 0 l 36 0 l 36 57 z "},"ŉ":{"ha":833,"x_min":14,"x_max":772,"o":"m 14 0 m 26 753 q 42 819 36 782 q 49 885 49 856 q 14 967 49 925 q 76 999 36 999 q 128 977 111 999 q 146 924 146 956 q 129 858 146 896 q 94 790 113 819 q 71 753 76 761 l 26 753 m 36 57 l 147 76 l 147 571 l 36 590 l 36 647 l 243 686 l 254 640 l 257 632 q 479 700 383 700 q 613 650 565 700 q 661 510 661 600 l 661 76 l 772 57 l 772 0 l 439 0 l 439 57 l 547 76 l 547 490 q 513 576 547 550 q 401 603 478 603 q 325 598 365 603 q 261 586 285 593 l 261 76 l 369 57 l 369 0 l 36 0 l 36 57 z "},"ň":{"ha":800,"x_min":36,"x_max":772,"o":"m 389 756 q 318 800 363 756 l 185 935 l 232 983 l 399 863 l 560 985 l 594 939 l 460 800 q 389 756 418 756 m 36 57 l 147 76 l 147 571 l 36 590 l 36 647 l 243 686 l 254 640 l 257 632 q 479 700 383 700 q 613 650 565 700 q 661 510 661 600 l 661 76 l 772 57 l 772 0 l 439 0 l 439 57 l 547 76 l 547 490 q 513 576 547 550 q 401 603 478 603 q 325 598 365 603 q 261 586 285 593 l 261 76 l 369 57 l 369 0 l 36 0 l 36 57 z "},"ņ":{"ha":800,"x_min":36,"x_max":772,"o":"m 36 57 l 147 76 l 147 571 l 36 590 l 36 647 l 243 686 l 254 640 l 257 632 q 479 700 383 700 q 613 650 565 700 q 661 510 661 600 l 661 76 l 772 57 l 772 0 l 439 0 l 439 57 l 547 76 l 547 490 q 513 576 547 550 q 401 603 478 603 q 325 598 365 603 q 261 586 285 593 l 261 76 l 369 57 l 369 0 l 36 0 l 36 57 m 354 -260 q 372 -200 367 -224 q 378 -150 378 -176 q 342 -71 378 -104 q 372 -48 356 -56 q 404 -40 389 -40 q 454 -62 438 -40 q 471 -112 471 -83 q 454 -187 471 -154 q 417 -241 438 -219 q 397 -260 397 -262 l 354 -260 z "},"ṅ":{"ha":800,"x_min":36,"x_max":772,"o":"m 36 0 m 36 57 l 147 76 l 147 571 l 36 590 l 36 647 l 243 686 l 254 640 l 257 632 q 479 700 383 700 q 613 650 565 700 q 661 510 661 600 l 661 76 l 772 57 l 772 0 l 439 0 l 439 57 l 547 76 l 547 490 q 513 576 547 550 q 401 603 478 603 q 325 598 365 603 q 261 586 285 593 l 261 76 l 369 57 l 369 0 l 36 0 l 36 57 m 396 789 q 340 813 361 789 q 318 875 318 836 q 342 940 318 913 q 403 967 367 967 q 460 944 439 967 q 481 883 481 922 q 458 817 481 844 q 396 789 435 789 z "},"ŋ":{"ha":767,"x_min":36,"x_max":661,"o":"m 513 -229 q 397 -215 449 -229 l 397 -162 l 547 -126 l 547 490 q 513 576 547 550 q 401 603 478 603 q 325 598 365 603 q 261 586 285 593 l 261 76 l 369 57 l 369 0 l 36 0 l 36 57 l 147 76 l 147 571 l 36 590 l 36 647 l 243 686 l 256 638 l 257 632 q 479 700 383 700 q 613 650 565 700 q 661 510 661 600 l 661 -115 q 623 -200 661 -171 q 513 -229 585 -229 z "},"ɲ":{"ha":785,"x_min":-18,"x_max":757,"o":"m 97 -229 q -18 -215 33 -229 l -18 -162 l 132 -126 l 132 571 l 21 590 l 21 647 l 228 686 l 240 636 l 242 632 q 464 700 368 700 q 598 650 550 700 q 646 510 646 600 l 646 76 l 757 57 l 757 0 l 424 0 l 424 57 l 532 76 l 532 490 q 497 576 532 550 q 386 603 463 603 q 310 598 350 603 q 246 586 269 593 l 246 -115 q 208 -200 246 -171 q 97 -229 169 -229 z "},"ǌ":{"ha":1160,"x_min":36,"x_max":1054,"o":"m 36 0 m 36 57 l 147 76 l 147 571 l 36 590 l 36 647 l 243 686 l 254 640 l 257 632 q 479 700 383 700 q 613 650 565 700 q 661 510 661 600 l 661 76 l 772 57 l 772 0 l 439 0 l 439 57 l 547 76 l 547 490 q 513 576 547 550 q 401 603 478 603 q 325 598 365 603 q 261 586 285 593 l 261 76 l 369 57 l 369 0 l 36 0 l 36 57 m 969 789 q 913 813 935 789 q 892 875 892 836 q 916 940 892 913 q 976 967 940 967 q 1033 944 1013 967 q 1054 883 1054 922 q 1031 817 1054 844 q 969 789 1008 789 m 897 -229 q 819 -223 856 -229 q 782 -215 782 -217 l 782 -162 l 932 -126 l 932 571 l 821 590 l 821 647 l 1014 686 l 1046 674 l 1046 -115 q 1008 -199 1046 -169 q 897 -229 969 -229 z "},"ñ":{"ha":800,"x_min":36,"x_max":772,"o":"m 493 807 q 434 817 468 807 q 394 828 400 826 l 278 863 l 183 815 l 153 843 l 192 908 q 229 945 206 932 q 279 958 253 958 q 338 949 304 958 q 378 938 372 939 l 494 903 l 589 950 l 619 922 l 581 857 q 543 820 567 833 q 493 807 519 807 m 36 57 l 147 76 l 147 571 l 36 590 l 36 647 l 243 686 l 254 640 l 257 632 q 479 700 383 700 q 613 650 565 700 q 661 510 661 600 l 661 76 l 772 57 l 772 0 l 439 0 l 439 57 l 547 76 l 547 490 q 513 576 547 550 q 401 603 478 603 q 325 598 365 603 q 261 586 285 593 l 261 76 l 369 57 l 369 0 l 36 0 l 36 57 z "},"o":{"ha":690,"x_min":35,"x_max":651,"o":"m 328 -12 q 110 81 186 -12 q 35 333 35 174 q 74 516 35 432 q 185 650 113 600 q 353 700 257 700 q 575 610 499 700 q 651 365 651 521 q 614 172 651 258 q 503 37 576 86 q 328 -12 431 -12 m 354 68 q 488 136 449 68 q 526 340 526 204 q 485 553 526 486 q 344 619 444 619 q 229 588 269 619 q 174 497 189 556 q 160 340 160 438 q 203 138 160 207 q 354 68 247 68 z "},"ó":{"ha":724,"x_min":56,"x_max":672,"o":"m 403 953 q 435 985 424 975 q 461 996 447 996 q 500 973 481 996 q 532 910 519 950 l 290 743 l 251 785 l 403 953 m 349 -12 q 131 81 207 -12 q 56 333 56 174 q 94 516 56 432 q 206 650 133 600 q 374 700 278 700 q 596 610 519 700 q 672 365 672 521 q 635 172 672 258 q 524 37 597 86 q 349 -12 451 -12 m 375 68 q 508 136 469 68 q 547 340 547 204 q 506 553 547 486 q 365 619 465 619 q 250 588 290 619 q 195 497 210 556 q 181 340 181 438 q 224 138 181 207 q 375 68 268 68 z "},"ŏ":{"ha":690,"x_min":35,"x_max":651,"o":"m 35 0 m 328 -12 q 110 81 186 -12 q 35 333 35 174 q 74 516 35 432 q 185 650 113 600 q 353 700 257 700 q 575 610 499 700 q 651 365 651 521 q 614 172 651 258 q 503 37 576 86 q 328 -12 431 -12 m 354 68 q 488 136 449 68 q 526 340 526 204 q 485 553 526 486 q 344 619 444 619 q 229 588 269 619 q 174 497 189 556 q 160 340 160 438 q 203 138 160 207 q 354 68 247 68 m 207 981 q 218 942 207 971 q 263 885 229 913 q 358 858 296 858 q 453 886 419 858 q 497 944 486 914 q 508 983 508 974 l 556 972 q 542 906 556 953 q 483 813 529 858 q 349 768 438 768 q 213 811 260 768 q 151 900 165 854 q 136 963 136 946 l 207 981 z "},"ǒ":{"ha":690,"x_min":35,"x_max":651,"o":"m 35 0 m 328 -12 q 110 81 186 -12 q 35 333 35 174 q 74 516 35 432 q 185 650 113 600 q 353 700 257 700 q 575 610 499 700 q 651 365 651 521 q 614 172 651 258 q 503 37 576 86 q 328 -12 431 -12 m 354 68 q 488 136 449 68 q 526 340 526 204 q 485 553 526 486 q 344 619 444 619 q 229 588 269 619 q 174 497 189 556 q 160 340 160 438 q 203 138 160 207 q 354 68 247 68 m 344 756 q 274 800 318 756 l 140 935 l 188 983 l 354 863 l 515 985 l 550 939 l 415 800 q 344 756 374 756 z "},"ô":{"ha":724,"x_min":56,"x_max":672,"o":"m 307 949 q 371 986 344 986 q 424 957 394 986 l 571 804 l 522 756 l 358 872 l 199 757 l 160 801 l 307 949 m 349 -12 q 131 81 207 -12 q 56 333 56 174 q 94 516 56 432 q 206 650 133 600 q 374 700 278 700 q 596 610 519 700 q 672 365 672 521 q 635 172 672 258 q 524 37 597 86 q 349 -12 451 -12 m 375 68 q 508 136 469 68 q 547 340 547 204 q 506 553 547 486 q 365 619 465 619 q 250 588 290 619 q 195 497 210 556 q 181 340 181 438 q 224 138 181 207 q 375 68 268 68 z "},"ố":{"ha":690,"x_min":35,"x_max":701,"o":"m 35 0 m 328 -12 q 110 81 186 -12 q 35 333 35 174 q 74 516 35 432 q 185 650 113 600 q 353 700 257 700 q 575 610 499 700 q 651 365 651 521 q 614 172 651 258 q 503 37 576 86 q 328 -12 431 -12 m 354 68 q 488 136 449 68 q 526 340 526 204 q 485 553 526 486 q 344 619 444 619 q 229 588 269 619 q 174 497 189 556 q 160 340 160 438 q 203 138 160 207 q 354 68 247 68 m 247 949 q 311 986 285 986 q 364 957 335 986 l 511 804 l 463 756 l 299 872 l 139 757 l 100 801 l 247 949 m 572 1124 q 605 1156 593 1146 q 631 1167 617 1167 q 669 1144 650 1167 q 701 1081 689 1121 l 460 914 l 421 956 l 572 1124 z "},"ộ":{"ha":690,"x_min":35,"x_max":651,"o":"m 35 0 m 328 -12 q 110 81 186 -12 q 35 333 35 174 q 74 516 35 432 q 185 650 113 600 q 353 700 257 700 q 575 610 499 700 q 651 365 651 521 q 614 172 651 258 q 503 37 576 86 q 328 -12 431 -12 m 354 68 q 488 136 449 68 q 526 340 526 204 q 485 553 526 486 q 344 619 444 619 q 229 588 269 619 q 174 497 189 556 q 160 340 160 438 q 203 138 160 207 q 354 68 247 68 m 342 -239 q 285 -215 307 -239 q 264 -153 264 -192 q 288 -88 264 -115 q 349 -61 313 -61 q 406 -83 385 -61 q 426 -144 426 -106 q 403 -211 426 -183 q 342 -239 381 -239 m 288 949 q 351 986 325 986 q 404 957 375 986 l 551 804 l 503 756 l 339 872 l 179 757 l 140 801 l 288 949 z "},"ồ":{"ha":690,"x_min":35,"x_max":651,"o":"m 35 0 m 328 -12 q 110 81 186 -12 q 35 333 35 174 q 74 516 35 432 q 185 650 113 600 q 353 700 257 700 q 575 610 499 700 q 651 365 651 521 q 614 172 651 258 q 503 37 576 86 q 328 -12 431 -12 m 354 68 q 488 136 449 68 q 526 340 526 204 q 485 553 526 486 q 344 619 444 619 q 229 588 269 619 q 174 497 189 556 q 160 340 160 438 q 203 138 160 207 q 354 68 247 68 m 269 949 q 333 986 307 986 q 386 957 357 986 l 533 804 l 485 756 l 321 872 l 161 757 l 122 801 l 269 949 m 288 1081 q 319 1144 300 1121 q 358 1167 339 1167 q 384 1156 372 1167 q 417 1124 396 1146 l 568 956 l 529 914 l 288 1081 z "}}}
